{"glyphs":{"0":{"ha":882,"x_min":78,"x_max":804,"o":"m 78 465 q 171 804 78 676 q 442 933 264 933 q 711 804 619 933 q 804 465 804 676 q 710 118 804 253 q 442 -17 615 -17 q 172 118 267 -17 q 78 465 78 253 m 611 464 q 442 760 611 760 q 271 464 271 760 q 442 157 271 157 q 611 464 611 157 z "},"1":{"ha":557,"x_min":25,"x_max":431,"o":"m 368 917 l 431 917 l 431 0 l 243 0 l 243 694 l 69 639 l 25 804 l 368 917 z "},"2":{"ha":811,"x_min":63,"x_max":739,"o":"m 397 160 l 739 160 l 739 0 l 63 -1 l 63 39 l 390 394 q 490 523 460 471 q 519 625 519 575 q 485 722 519 685 q 392 760 450 760 q 298 721 333 760 q 263 619 263 682 q 269 553 263 599 l 81 553 q 71 631 71 588 q 162 843 71 753 q 394 933 253 933 q 622 849 532 933 q 713 640 713 765 q 663 467 713 547 q 515 285 610 383 l 397 160 z "},"3":{"ha":763,"x_min":21,"x_max":700,"o":"m 700 300 q 599 74 700 164 q 354 -17 499 -17 q 156 39 243 -17 q 21 192 68 94 l 151 283 q 241 188 194 218 q 349 157 288 157 q 464 195 419 157 q 508 299 508 233 q 460 397 508 363 q 321 431 413 431 l 206 431 l 206 479 l 397 747 l 92 747 l 92 917 l 682 917 l 682 867 l 479 581 q 636 482 571 557 q 700 300 700 410 z "},"4":{"ha":801,"x_min":22,"x_max":782,"o":"m 782 308 l 782 150 l 665 150 l 665 0 l 478 0 l 478 150 l 22 150 l 22 200 l 306 917 l 499 917 l 256 308 l 478 308 l 478 565 l 665 565 l 665 308 l 782 308 z "},"5":{"ha":783,"x_min":29,"x_max":721,"o":"m 721 301 q 619 73 721 163 q 369 -17 518 -17 q 166 39 256 -17 q 29 192 76 94 l 160 283 q 364 157 242 157 q 482 195 436 157 q 528 299 528 233 q 340 431 528 431 l 126 431 l 126 917 l 668 917 l 668 747 l 307 747 l 307 581 q 411 592 363 592 q 629 513 538 592 q 721 301 721 435 z "},"6":{"ha":781,"x_min":51,"x_max":731,"o":"m 728 311 q 628 78 728 172 q 390 -17 528 -17 q 153 78 256 -19 q 54 313 51 175 q 69 413 54 364 q 179 600 92 479 l 408 917 l 629 917 l 418 622 l 424 622 q 636 533 542 625 q 728 311 731 440 m 498 200 q 520 222 498 200 q 542 311 542 244 q 498 422 542 378 q 390 465 454 465 q 283 421 326 465 q 239 311 239 376 q 283 201 239 246 q 390 156 326 156 q 498 200 454 156 z "},"7":{"ha":729,"x_min":53,"x_max":697,"o":"m 53 917 l 697 917 l 697 867 l 278 0 l 74 0 l 446 747 l 53 747 l 53 917 z "},"8":{"ha":817,"x_min":64,"x_max":751,"o":"m 751 244 q 656 55 751 126 q 408 -17 560 -17 q 160 55 256 -17 q 64 244 64 126 q 244 475 64 403 q 106 690 106 556 q 190 868 106 804 q 408 933 276 933 q 625 868 539 933 q 711 690 711 803 q 574 475 711 554 q 751 244 751 401 m 281 682 q 310 614 281 642 q 408 554 339 586 q 507 614 478 586 q 536 683 536 642 q 500 755 536 728 q 408 782 464 782 q 316 755 351 782 q 281 682 281 728 m 565 251 q 528 335 565 303 q 408 396 492 367 q 288 333 325 365 q 251 251 251 300 q 292 167 251 199 q 408 136 333 136 q 524 167 483 136 q 565 251 565 199 z "},"9":{"ha":781,"x_min":51,"x_max":728,"o":"m 728 604 q 697 468 728 528 q 601 317 669 410 l 374 0 l 151 0 l 364 294 l 357 294 q 146 384 240 292 q 54 606 51 476 q 153 839 51 742 q 390 933 256 936 q 628 839 528 933 q 728 604 728 744 m 498 496 q 520 518 498 496 q 542 606 542 540 q 498 716 542 671 q 390 761 454 761 q 283 717 328 761 q 239 606 239 672 q 283 496 239 540 q 390 451 328 451 q 498 496 454 451 z "}," ":{"ha":389,"x_min":0,"x_max":0,"o":""},"!":{"ha":482,"x_min":113,"x_max":371,"o":"m 164 336 l 128 917 l 351 917 l 317 336 l 164 336 m 113 113 q 149 204 113 167 q 243 242 186 242 q 334 204 297 242 q 371 113 371 167 q 334 20 371 57 q 243 -17 297 -17 q 149 20 186 -17 q 113 113 113 57 z "},"\"":{"ha":747,"x_min":115,"x_max":665,"o":"m 115 531 l 122 917 l 336 917 l 258 531 l 115 531 m 444 531 l 451 917 l 665 917 l 588 531 l 444 531 z "},"#":{"ha":876,"x_min":38,"x_max":840,"o":"m 840 549 l 706 549 l 682 368 l 810 368 l 810 211 l 660 211 l 632 0 l 481 0 l 508 211 l 301 211 l 274 0 l 122 0 l 150 211 l 38 211 l 38 368 l 171 368 l 196 549 l 67 549 l 67 706 l 217 706 l 244 917 l 397 917 l 369 706 l 575 706 l 603 917 l 756 917 l 728 706 l 840 706 l 840 549 m 322 360 l 529 360 l 554 557 l 349 557 l 322 360 z "},"$":{"ha":747,"x_min":44,"x_max":685,"o":"m 454 35 l 454 -135 l 290 -135 l 290 38 q 44 225 122 75 l 171 319 q 381 193 251 193 q 469 214 436 193 q 501 275 501 235 q 477 327 501 307 q 394 371 453 347 l 300 406 q 93 647 93 483 q 147 792 93 731 q 290 874 201 853 l 290 1040 l 454 1040 l 454 876 q 661 717 593 847 l 536 622 q 376 717 472 717 q 304 699 332 717 q 276 646 276 681 q 298 598 276 617 q 369 558 319 579 l 474 522 q 685 278 685 444 q 622 117 685 182 q 454 35 560 51 z "},"%":{"ha":1196,"x_min":78,"x_max":1118,"o":"m 147 543 q 113 576 147 543 q 78 706 78 610 q 147 867 78 801 q 315 933 217 933 q 482 867 413 933 q 551 706 551 801 q 482 543 551 610 q 315 476 413 476 q 147 543 217 476 m 260 0 l 786 917 l 938 917 l 410 0 l 260 0 m 407 706 q 381 776 407 749 q 317 804 356 804 q 249 776 275 804 q 224 706 224 749 q 249 633 224 661 q 317 606 274 606 q 381 633 356 606 q 407 706 407 661 m 714 51 q 679 85 714 51 q 644 214 644 118 q 714 376 644 310 q 881 442 783 442 q 1048 376 978 442 q 1118 214 1118 310 q 1049 51 1118 118 q 881 -15 979 -15 q 714 51 783 -15 m 947 143 q 959 157 947 143 q 972 214 972 171 q 947 285 972 257 q 882 313 921 313 q 814 285 839 313 q 789 214 789 258 q 814 142 789 169 q 882 115 839 115 q 947 143 921 115 z "},"&":{"ha":936,"x_min":64,"x_max":893,"o":"m 893 408 l 857 356 q 735 188 774 235 l 889 0 l 669 0 l 614 68 q 365 -17 504 -17 q 148 54 232 -17 q 64 239 64 125 q 104 372 64 311 q 249 514 144 432 q 168 714 168 618 q 233 873 168 813 q 406 933 299 933 q 571 877 507 933 q 635 732 635 821 q 600 611 635 667 q 485 489 565 556 l 619 326 q 699 440 647 365 q 749 511 724 474 l 893 408 m 336 711 q 390 604 336 671 l 393 606 q 467 714 467 664 q 403 774 467 774 q 354 757 372 774 q 336 711 336 740 m 506 200 l 347 392 q 271 317 290 344 q 251 257 251 290 q 286 178 251 208 q 376 149 321 149 q 506 200 444 149 z "},"'":{"ha":418,"x_min":115,"x_max":336,"o":"m 115 531 l 122 917 l 336 917 l 258 531 l 115 531 z "},"(":{"ha":507,"x_min":94,"x_max":471,"o":"m 94 421 q 176 810 94 657 q 397 1026 258 964 l 471 914 q 258 421 258 774 q 471 -71 258 69 l 397 -183 q 176 33 258 -121 q 94 421 94 186 z "},")":{"ha":507,"x_min":36,"x_max":413,"o":"m 111 -183 l 36 -71 q 250 421 250 71 q 36 914 250 774 l 111 1026 q 328 815 243 965 q 413 421 413 667 q 328 26 413 178 q 111 -183 243 -122 z "},"*":{"ha":649,"x_min":54,"x_max":594,"o":"m 594 854 l 468 761 l 594 667 l 540 574 l 396 636 l 378 481 l 271 481 l 253 636 l 108 574 l 54 667 l 181 761 l 54 854 l 108 947 l 253 885 l 271 1040 l 378 1040 l 396 885 l 540 947 l 594 854 z "},"+":{"ha":778,"x_min":63,"x_max":717,"o":"m 301 119 l 301 365 l 63 365 l 63 525 l 301 525 l 301 769 l 481 769 l 481 525 l 717 525 l 717 365 l 481 365 l 481 119 l 301 119 z "},",":{"ha":389,"x_min":89,"x_max":311,"o":"m 89 -247 l 97 171 l 311 171 l 238 -247 l 89 -247 z "},"-":{"ha":475,"x_min":63,"x_max":413,"o":"m 63 367 l 63 524 l 413 524 l 413 367 l 63 367 z "},".":{"ha":389,"x_min":65,"x_max":324,"o":"m 65 113 q 103 204 65 167 q 196 242 140 242 q 287 204 250 242 q 324 113 324 167 q 288 20 324 57 q 196 -17 251 -17 q 103 20 140 -17 q 65 113 65 57 z "},"/":{"ha":933,"x_min":4,"x_max":929,"o":"m 4 -168 l 731 1083 l 929 1083 l 203 -168 l 4 -168 z "},":":{"ha":389,"x_min":65,"x_max":324,"o":"m 65 571 q 103 663 65 625 q 196 700 140 700 q 287 663 250 700 q 324 571 324 625 q 288 478 324 515 q 196 442 251 442 q 103 478 140 442 q 65 571 65 515 m 65 113 q 103 204 65 167 q 196 242 140 242 q 287 204 250 242 q 324 113 324 167 q 288 20 324 57 q 196 -17 251 -17 q 103 20 140 -17 q 65 113 65 57 z "},";":{"ha":389,"x_min":65,"x_max":324,"o":"m 65 571 q 103 663 65 625 q 196 700 140 700 q 287 663 250 700 q 324 571 324 625 q 288 478 324 515 q 196 442 251 442 q 103 478 140 442 q 65 571 65 515 m 89 -247 l 97 171 l 311 171 l 238 -247 l 89 -247 z "},"<":{"ha":778,"x_min":51,"x_max":696,"o":"m 696 756 l 696 593 l 351 446 l 696 299 l 696 135 l 51 419 l 51 471 l 696 756 z "},"=":{"ha":778,"x_min":76,"x_max":703,"o":"m 76 515 l 76 674 l 703 674 l 703 515 l 76 515 m 76 217 l 76 375 l 703 375 l 703 217 l 76 217 z "},">":{"ha":778,"x_min":82,"x_max":726,"o":"m 82 756 l 726 471 l 726 419 l 82 135 l 82 299 l 426 446 l 82 593 l 82 756 z "},"?":{"ha":628,"x_min":33,"x_max":581,"o":"m 197 403 q 307 560 197 471 q 372 623 356 600 q 389 676 389 646 q 364 738 389 714 q 301 761 339 761 q 186 656 225 761 l 33 722 q 134 879 63 825 q 307 933 206 933 q 502 865 424 933 q 581 690 581 797 q 554 588 581 633 q 465 488 528 542 q 385 413 403 433 q 368 365 368 392 q 371 336 368 358 l 213 336 q 197 403 197 371 m 167 113 q 204 204 167 167 q 297 242 242 242 q 390 204 353 242 q 426 113 426 167 q 390 20 426 57 q 297 -17 353 -17 q 204 20 242 -17 q 167 113 167 57 z "},"@":{"ha":1324,"x_min":50,"x_max":1271,"o":"m 1269 392 q 1161 129 1269 219 q 872 42 1053 42 l 804 42 l 804 111 q 621 26 743 26 q 421 113 500 26 q 342 329 342 199 q 421 545 342 460 q 621 631 500 631 q 800 553 739 631 l 800 618 l 957 618 l 957 188 q 1119 392 1119 197 q 1000 673 1119 564 q 685 782 881 782 q 339 657 476 785 q 204 333 201 529 q 334 12 201 139 q 667 -112 467 -115 q 832 -90 742 -112 l 861 -221 q 647 -256 769 -256 q 350 -182 488 -258 q 131 31 213 -106 q 53 331 50 168 q 135 634 50 496 q 366 850 221 772 q 681 925 511 928 q 913 884 803 926 q 1102 769 1024 842 q 1226 597 1181 696 q 1269 392 1271 499 m 790 329 q 751 437 790 397 q 656 476 713 476 q 556 435 596 476 q 515 329 515 394 q 555 223 515 264 q 654 182 594 182 q 751 221 713 182 q 790 329 790 260 z "},"A":{"ha":918,"x_min":18,"x_max":899,"o":"m 697 0 l 646 119 l 271 119 l 219 0 l 18 0 l 428 933 l 490 933 l 899 0 l 697 0 m 581 274 l 458 583 l 336 274 l 581 274 z "},"B":{"ha":863,"x_min":106,"x_max":815,"o":"m 815 269 q 731 76 815 151 q 514 0 646 0 l 106 0 l 106 917 l 431 917 q 640 845 558 917 q 721 661 721 774 q 653 496 721 560 q 815 269 815 436 m 415 756 l 286 756 l 286 546 l 415 546 q 503 574 472 546 q 535 651 535 601 q 503 728 535 700 q 415 756 472 756 m 631 276 q 596 360 631 329 q 500 392 561 392 l 286 392 l 286 161 l 500 161 q 596 192 561 161 q 631 276 631 222 z "},"C":{"ha":1000,"x_min":49,"x_max":946,"o":"m 53 458 q 196 797 50 656 q 542 933 342 938 q 778 873 672 933 q 946 706 885 813 l 804 606 q 542 760 706 760 q 330 674 414 760 q 246 457 246 588 q 330 242 246 326 q 542 157 414 157 q 804 311 706 157 l 946 211 q 779 44 886 104 q 540 -17 672 -17 q 194 120 339 -21 q 53 458 49 261 z "},"D":{"ha":958,"x_min":106,"x_max":908,"o":"m 106 0 l 106 917 l 406 917 q 767 791 625 919 q 906 461 908 663 q 765 129 908 261 q 406 0 622 -3 l 106 0 m 293 169 l 404 169 q 628 249 543 169 q 713 461 713 329 q 629 671 713 594 q 404 747 546 747 l 293 747 l 293 169 z "},"E":{"ha":796,"x_min":106,"x_max":739,"o":"m 106 0 l 106 917 l 722 917 l 722 747 l 293 747 l 293 561 l 608 561 l 608 401 l 293 401 l 293 169 l 739 169 l 739 0 l 106 0 z "},"F":{"ha":743,"x_min":106,"x_max":708,"o":"m 106 0 l 106 917 l 708 917 l 708 747 l 293 747 l 293 518 l 633 518 l 633 349 l 293 349 l 293 0 l 106 0 z "},"G":{"ha":1038,"x_min":49,"x_max":981,"o":"m 53 458 q 194 796 49 656 q 543 933 339 936 q 929 735 789 933 l 796 625 q 540 760 699 760 q 328 675 410 760 q 246 458 246 590 q 331 238 246 324 q 551 151 415 151 q 793 265 711 151 l 793 340 l 540 340 l 540 503 l 981 503 l 981 232 q 801 51 917 119 q 543 -17 688 -17 q 196 120 342 -21 q 53 458 50 261 z "},"H":{"ha":990,"x_min":106,"x_max":886,"o":"m 106 0 l 106 917 l 293 917 l 293 565 l 699 565 l 699 917 l 886 917 l 886 0 l 699 0 l 699 396 l 293 396 l 293 0 l 106 0 z "},"I":{"ha":397,"x_min":106,"x_max":293,"o":"m 106 0 l 106 917 l 293 917 l 293 0 l 106 0 z "},"J":{"ha":540,"x_min":24,"x_max":435,"o":"m 24 0 l 24 160 q 115 154 90 154 q 215 180 183 154 q 247 264 247 206 l 247 917 l 435 917 l 435 244 q 363 49 435 115 q 156 -17 292 -17 q 24 0 90 -17 z "},"K":{"ha":931,"x_min":106,"x_max":913,"o":"m 913 0 l 686 0 l 293 478 l 293 0 l 106 0 l 106 917 l 293 917 l 293 492 l 643 917 l 867 917 l 515 485 l 913 0 z "},"L":{"ha":728,"x_min":106,"x_max":694,"o":"m 106 0 l 106 917 l 293 917 l 293 169 l 694 169 l 694 0 l 106 0 z "},"M":{"ha":1108,"x_min":106,"x_max":1003,"o":"m 942 933 l 1003 933 l 1003 0 l 815 0 l 815 489 l 585 200 l 524 200 l 293 489 l 293 0 l 106 0 l 106 933 l 167 933 l 554 438 l 942 933 z "},"N":{"ha":990,"x_min":106,"x_max":886,"o":"m 699 917 l 886 917 l 886 -17 l 824 -17 l 293 550 l 293 0 l 106 0 l 106 933 l 167 933 l 699 369 l 699 917 z "},"O":{"ha":1081,"x_min":50,"x_max":1031,"o":"m 53 458 q 195 796 50 654 q 539 933 340 938 q 884 796 738 938 q 1028 458 1031 654 q 884 121 1031 263 q 539 -17 738 -21 q 195 121 340 -21 q 53 458 50 263 m 835 458 q 751 674 835 589 q 540 760 667 760 q 329 675 413 760 q 246 458 246 590 q 329 242 246 326 q 540 157 413 157 q 751 242 667 157 q 835 458 835 326 z "},"P":{"ha":825,"x_min":106,"x_max":781,"o":"m 106 0 l 106 917 l 450 917 q 688 835 594 917 q 781 621 781 753 q 688 407 781 490 q 450 324 594 324 l 293 324 l 293 0 l 106 0 m 293 488 l 450 488 q 552 524 515 488 q 589 621 589 561 q 551 715 589 679 q 450 751 513 751 l 293 751 l 293 488 z "},"Q":{"ha":1081,"x_min":50,"x_max":1468,"o":"m 1468 -142 l 1468 -289 q 1304 -307 1397 -307 q 959 -227 1117 -307 q 693 7 801 -147 q 539 -17 615 -17 q 195 121 340 -21 q 53 458 50 263 q 195 796 50 654 q 539 933 340 938 q 884 796 738 938 q 1028 458 1031 654 q 981 251 1028 347 q 849 89 933 156 q 1060 -90 942 -33 q 1340 -147 1179 -147 q 1468 -142 1379 -147 m 540 157 q 751 242 667 157 q 835 458 835 326 q 751 674 835 589 q 540 760 667 760 q 329 675 413 760 q 246 458 246 590 q 329 242 246 326 q 540 157 413 157 z "},"R":{"ha":889,"x_min":106,"x_max":879,"o":"m 879 0 l 668 0 l 431 324 l 293 324 l 293 0 l 106 0 l 106 917 l 450 917 q 688 835 594 917 q 781 621 781 753 q 738 466 781 535 q 619 360 696 397 l 879 0 m 293 751 l 293 489 l 450 489 q 552 525 515 489 q 589 621 589 561 q 551 715 589 679 q 450 751 513 751 l 293 751 z "},"S":{"ha":776,"x_min":42,"x_max":717,"o":"m 42 186 l 171 283 q 396 150 268 150 q 492 177 457 150 q 526 251 526 204 q 503 312 526 290 q 410 365 479 333 l 311 410 q 89 674 89 508 q 175 862 89 790 q 393 933 261 933 q 574 887 496 933 q 696 760 651 840 l 568 661 q 393 767 497 767 q 311 743 343 767 q 279 678 279 719 q 302 622 279 643 q 386 572 325 600 l 490 526 q 663 412 608 474 q 717 258 717 350 q 626 59 717 135 q 396 -17 536 -17 q 188 38 281 -17 q 42 186 96 92 z "},"T":{"ha":813,"x_min":19,"x_max":794,"o":"m 313 0 l 313 747 l 19 747 l 19 917 l 794 917 l 794 747 l 500 747 l 500 0 l 313 0 z "},"U":{"ha":972,"x_min":97,"x_max":875,"o":"m 97 379 l 97 917 l 285 917 l 285 365 q 340 212 285 267 q 486 157 396 157 q 633 212 578 157 q 688 365 688 267 l 688 917 l 875 917 l 875 379 q 765 92 875 200 q 486 -17 656 -17 q 206 92 315 -17 q 97 379 97 200 z "},"V":{"ha":918,"x_min":18,"x_max":899,"o":"m 688 917 l 899 917 l 490 -17 l 428 -17 l 18 917 l 231 917 l 460 361 l 688 917 z "},"W":{"ha":1438,"x_min":35,"x_max":1403,"o":"m 1194 917 l 1403 917 l 1036 -17 l 975 -17 l 719 558 l 463 -17 l 401 -17 l 35 917 l 243 917 l 447 375 l 688 933 l 750 933 l 990 378 l 1194 917 z "},"X":{"ha":853,"x_min":18,"x_max":833,"o":"m 833 0 l 621 0 l 426 304 l 232 0 l 18 0 l 322 467 l 36 917 l 250 917 l 426 628 l 601 917 l 814 917 l 532 467 l 833 0 z "},"Y":{"ha":867,"x_min":24,"x_max":843,"o":"m 843 917 l 528 361 l 528 0 l 340 0 l 340 360 l 24 917 l 232 917 l 435 553 l 636 917 l 843 917 z "},"Z":{"ha":817,"x_min":28,"x_max":778,"o":"m 317 169 l 778 169 l 778 0 l 28 0 l 28 50 l 488 747 l 88 747 l 88 917 l 776 917 l 776 867 l 317 169 z "},"[":{"ha":496,"x_min":125,"x_max":443,"o":"m 125 -181 l 125 1014 l 443 1014 l 443 863 l 285 863 l 285 -29 l 443 -29 l 443 -181 l 125 -181 z "},"\\":{"ha":933,"x_min":4,"x_max":929,"o":"m 731 -168 l 4 1083 l 203 1083 l 929 -168 l 731 -168 z "},"]":{"ha":496,"x_min":53,"x_max":372,"o":"m 53 -181 l 53 -29 l 211 -29 l 211 863 l 53 863 l 53 1014 l 372 1014 l 372 -181 l 53 -181 z "},"^":{"ha":744,"x_min":68,"x_max":675,"o":"m 675 383 l 496 383 l 372 639 l 247 383 l 68 383 l 342 931 l 403 931 l 675 383 z "},"_":{"ha":697,"x_min":49,"x_max":649,"o":"m 49 -237 l 49 -90 l 649 -90 l 649 -237 l 49 -237 z "},"`":{"ha":833,"x_min":253,"x_max":579,"o":"m 443 793 l 253 1050 l 253 1083 l 478 1083 l 579 793 l 443 793 z "},"a":{"ha":757,"x_min":50,"x_max":669,"o":"m 669 408 l 669 0 l 497 0 l 497 67 q 288 -17 417 -17 q 115 40 179 -17 q 50 189 50 97 q 120 335 50 282 q 310 389 190 389 l 482 389 l 482 419 q 449 509 482 478 q 354 540 417 540 q 261 518 303 540 q 172 446 219 496 l 75 561 q 375 703 194 703 q 590 626 511 703 q 669 408 669 549 m 482 257 l 482 265 l 335 265 q 239 196 239 265 q 266 141 239 161 q 338 121 293 121 q 441 159 400 121 q 482 257 482 197 z "},"b":{"ha":874,"x_min":93,"x_max":819,"o":"m 725 601 q 772 550 725 601 q 819 343 819 499 q 725 85 819 188 q 486 -17 631 -17 q 265 85 340 -17 l 265 0 l 93 0 l 93 1042 l 281 1042 l 281 621 q 486 703 356 703 q 725 601 631 703 m 629 344 q 578 481 629 428 q 451 533 528 533 q 327 483 376 533 q 278 343 278 432 q 327 204 278 254 q 451 154 376 154 q 579 207 529 154 q 629 344 629 260 z "},"c":{"ha":767,"x_min":51,"x_max":721,"o":"m 54 344 q 161 599 54 494 q 422 703 268 703 q 721 533 625 703 l 590 432 q 425 532 521 532 q 295 478 346 532 q 244 344 244 425 q 295 209 244 263 q 425 156 346 156 q 590 254 521 156 l 721 154 q 598 28 675 74 q 422 -17 521 -17 q 161 88 271 -19 q 54 344 51 196 z "},"d":{"ha":874,"x_min":54,"x_max":781,"o":"m 593 1042 l 781 1042 l 781 0 l 608 0 l 608 85 q 388 -17 538 -17 q 149 85 243 -17 q 54 343 54 188 q 149 601 54 499 q 388 703 243 703 q 593 621 518 703 l 593 1042 m 547 204 q 571 229 547 204 q 596 343 596 254 q 546 483 596 432 q 422 533 496 533 q 295 481 346 533 q 244 344 244 428 q 294 207 244 260 q 422 154 344 154 q 547 204 497 154 z "},"e":{"ha":790,"x_min":51,"x_max":738,"o":"m 725 281 l 243 281 q 310 180 260 215 q 436 144 361 144 q 628 214 538 144 l 706 86 q 431 -17 582 -17 q 162 87 272 -19 q 54 343 51 193 q 158 599 51 492 q 414 703 265 706 q 647 611 556 703 q 738 383 738 519 q 725 281 738 333 m 243 413 l 556 413 q 512 513 554 475 q 407 551 469 551 q 303 514 347 551 q 243 413 258 476 z "},"f":{"ha":475,"x_min":28,"x_max":493,"o":"m 313 783 l 313 688 l 464 688 l 464 529 l 313 529 l 313 0 l 125 0 l 125 529 l 28 529 l 28 688 l 125 688 l 125 800 q 194 993 125 928 q 390 1058 264 1058 q 493 1043 443 1058 l 493 886 q 438 890 463 890 q 342 865 372 890 q 313 783 313 840 z "},"g":{"ha":876,"x_min":57,"x_max":783,"o":"m 611 688 l 783 688 l 783 76 q 688 -178 783 -89 q 428 -267 592 -267 q 90 -139 235 -267 l 189 -8 q 413 -97 308 -97 q 547 -56 497 -97 q 596 65 596 -14 l 596 103 q 386 21 521 21 q 150 117 243 21 q 57 363 57 213 q 150 608 57 514 q 386 703 243 703 q 611 601 536 703 l 611 688 m 599 365 q 549 497 599 450 q 425 543 500 543 q 297 494 347 543 q 247 364 247 446 q 298 231 247 282 q 425 179 349 179 q 549 229 499 179 q 599 365 599 279 z "},"h":{"ha":813,"x_min":93,"x_max":725,"o":"m 725 426 l 725 0 l 539 0 l 539 400 q 503 497 539 460 q 411 533 468 533 q 317 497 354 533 q 281 400 281 460 l 281 0 l 93 0 l 93 1042 l 281 1042 l 281 629 q 469 703 354 703 q 656 627 586 703 q 725 426 725 551 z "},"i":{"ha":374,"x_min":67,"x_max":307,"o":"m 93 0 l 93 688 l 281 688 l 281 0 l 93 0 m 67 938 q 101 1021 67 988 q 186 1054 136 1054 q 272 1021 236 1054 q 307 938 307 988 q 272 856 307 889 q 186 822 236 822 q 101 856 136 822 q 67 938 67 889 z "},"j":{"ha":374,"x_min":-87,"x_max":307,"o":"m -87 -251 l -87 -94 q -31 -99 -54 -99 q 63 -74 33 -99 q 93 8 93 -49 l 93 688 l 281 688 l 281 -8 q 211 -201 281 -135 q 17 -267 142 -267 q -87 -251 -37 -267 m 67 938 q 101 1021 67 988 q 186 1054 136 1054 q 272 1021 236 1054 q 307 938 307 988 q 272 856 307 889 q 186 822 236 822 q 101 856 136 822 q 67 938 67 889 z "},"k":{"ha":778,"x_min":93,"x_max":771,"o":"m 771 0 l 557 0 l 281 381 l 281 0 l 93 0 l 93 1042 l 281 1042 l 281 394 l 528 688 l 750 688 l 492 383 l 771 0 z "},"l":{"ha":374,"x_min":93,"x_max":281,"o":"m 93 0 l 93 1042 l 281 1042 l 281 0 l 93 0 z "},"m":{"ha":1239,"x_min":93,"x_max":1153,"o":"m 1153 426 l 1153 0 l 965 0 l 965 400 q 932 497 965 461 q 843 533 899 533 q 752 497 788 533 q 717 404 717 461 l 717 0 l 529 0 l 529 400 q 496 497 529 461 q 407 533 463 533 q 315 497 350 533 q 281 400 281 461 l 281 0 l 93 0 l 93 688 l 265 688 l 265 626 q 460 703 338 703 q 664 604 594 703 q 893 703 751 703 q 1083 628 1013 703 q 1153 426 1153 553 z "},"n":{"ha":813,"x_min":93,"x_max":725,"o":"m 725 426 l 725 0 l 539 0 l 539 401 q 503 498 539 461 q 411 535 468 535 q 317 498 354 535 q 281 401 281 461 l 281 0 l 93 0 l 93 688 l 265 688 l 265 625 q 467 703 343 703 q 656 628 586 703 q 725 426 725 553 z "},"o":{"ha":844,"x_min":51,"x_max":794,"o":"m 54 344 q 161 599 51 492 q 422 703 271 706 q 684 599 574 706 q 792 344 794 492 q 683 90 794 197 q 421 -15 572 -18 q 160 90 269 -18 q 54 344 51 197 m 549 210 q 575 236 549 210 q 600 343 600 263 q 549 478 600 424 q 422 532 499 532 q 294 478 344 532 q 244 343 244 425 q 294 210 244 263 q 422 157 344 157 q 549 210 499 157 z "},"p":{"ha":874,"x_min":93,"x_max":819,"o":"m 724 601 q 772 550 724 601 q 819 344 819 499 q 724 87 819 190 q 486 -17 629 -17 q 281 67 357 -17 l 281 -250 l 93 -250 l 93 688 l 265 688 l 265 601 q 486 703 336 703 q 724 601 629 703 m 629 343 q 579 481 629 428 q 451 533 529 533 q 327 483 376 533 q 278 344 278 433 q 327 205 278 256 q 451 154 376 154 q 578 207 528 154 q 629 343 629 260 z "},"q":{"ha":874,"x_min":54,"x_max":781,"o":"m 608 688 l 781 688 l 781 -250 l 593 -250 l 593 67 q 388 -17 517 -17 q 149 87 244 -17 q 54 344 54 190 q 149 601 54 499 q 388 703 244 703 q 608 601 538 703 l 608 688 m 546 205 q 571 230 546 205 q 596 344 596 256 q 547 483 596 433 q 422 533 497 533 q 294 481 344 533 q 244 343 244 428 q 295 207 244 260 q 422 154 346 154 q 546 205 496 154 z "},"r":{"ha":539,"x_min":93,"x_max":515,"o":"m 515 688 l 515 522 l 465 522 q 330 476 379 522 q 281 343 281 431 l 281 0 l 93 0 l 93 688 l 265 688 l 265 606 q 454 696 338 696 q 515 688 489 696 z "},"s":{"ha":632,"x_min":31,"x_max":583,"o":"m 31 117 l 125 231 q 318 138 214 138 q 381 152 357 138 q 406 194 406 167 q 391 227 406 215 q 335 257 376 239 l 261 288 q 118 376 163 328 q 74 497 74 424 q 143 648 74 593 q 326 703 213 703 q 574 600 479 703 l 479 485 q 325 550 410 550 q 251 501 251 550 q 267 469 251 482 q 324 440 282 457 l 390 413 q 538 324 493 371 q 583 203 583 276 q 507 42 583 100 q 315 -17 432 -17 q 31 117 131 -17 z "},"t":{"ha":578,"x_min":22,"x_max":535,"o":"m 535 157 l 535 0 q 406 -17 468 -17 q 202 49 274 -17 q 131 242 131 114 l 131 529 l 22 529 l 22 688 l 131 688 l 131 861 l 318 861 l 318 688 l 513 688 l 513 529 l 318 529 l 318 258 q 348 176 318 200 q 446 151 378 151 q 535 157 469 151 z "},"u":{"ha":806,"x_min":86,"x_max":719,"o":"m 86 303 l 86 688 l 274 688 l 274 288 q 310 192 274 228 q 404 156 347 156 q 496 192 460 156 q 532 288 532 229 l 532 688 l 719 688 l 719 303 q 630 72 719 161 q 404 -17 540 -17 q 176 72 265 -17 q 86 303 86 160 z "},"v":{"ha":776,"x_min":17,"x_max":760,"o":"m 561 688 l 760 688 l 419 -17 l 357 -17 l 17 688 l 214 688 l 388 299 l 561 688 z "},"w":{"ha":1190,"x_min":17,"x_max":1174,"o":"m 976 688 l 1174 688 l 854 -17 l 793 -17 l 596 383 l 397 -17 l 336 -17 l 17 688 l 214 688 l 376 296 l 564 703 l 626 703 l 817 304 l 976 688 z "},"x":{"ha":738,"x_min":11,"x_max":726,"o":"m 726 0 l 517 0 l 369 219 l 221 0 l 11 0 l 263 354 l 28 688 l 238 688 l 369 489 l 500 688 l 710 688 l 474 356 l 726 0 z "},"y":{"ha":776,"x_min":17,"x_max":760,"o":"m 563 688 l 760 688 l 431 -60 q 318 -217 383 -167 q 157 -267 253 -267 q 36 -250 99 -267 l 36 -93 q 117 -99 93 -99 q 203 -78 169 -99 q 260 -6 236 -57 l 281 42 l 17 688 l 215 688 l 383 236 l 563 688 z "},"z":{"ha":650,"x_min":24,"x_max":628,"o":"m 299 158 l 628 158 l 628 0 l 24 0 l 24 50 l 353 529 l 56 529 l 56 688 l 625 688 l 625 638 l 299 158 z "},"{":{"ha":574,"x_min":63,"x_max":521,"o":"m 354 772 q 368 663 354 742 q 385 536 385 572 q 286 415 385 440 q 385 296 385 392 q 378 222 385 271 l 369 172 q 354 60 354 89 q 440 -31 354 -31 l 521 -31 l 521 -181 l 408 -181 q 194 14 194 -181 q 213 164 194 61 q 225 264 225 233 q 149 336 225 336 l 63 336 l 63 496 l 149 496 q 225 568 225 496 q 213 669 225 597 q 194 818 194 763 q 408 1014 194 1014 l 521 1014 l 521 863 l 440 863 q 354 772 354 863 z "},"|":{"ha":461,"x_min":153,"x_max":308,"o":"m 153 -168 l 153 1083 l 308 1083 l 308 -168 l 153 -168 z "},"}":{"ha":574,"x_min":53,"x_max":510,"o":"m 425 496 l 510 496 l 510 336 l 425 336 q 349 264 349 336 q 361 164 349 233 q 379 14 379 61 q 165 -181 379 -181 l 53 -181 l 53 -31 l 132 -31 q 219 60 219 -31 q 204 172 219 89 l 196 222 q 189 296 189 271 q 286 415 189 392 q 189 536 189 439 q 206 663 189 572 q 219 772 219 742 q 132 863 219 863 l 53 863 l 53 1014 l 165 1014 q 379 818 379 1014 q 361 669 379 763 q 349 568 349 597 q 425 496 349 496 z "},"~":{"ha":778,"x_min":51,"x_max":728,"o":"m 442 325 l 319 399 q 243 431 271 431 q 197 376 197 431 l 197 350 l 54 350 q 51 401 51 397 q 99 543 51 488 q 218 600 147 600 q 336 564 275 600 l 458 489 q 535 458 511 458 q 569 474 556 458 q 582 511 582 489 l 582 539 l 724 539 q 728 488 728 513 q 680 345 728 401 q 560 289 632 289 q 442 325 501 289 z "}," ":{"ha":389,"x_min":0,"x_max":0,"o":""},"¡":{"ha":482,"x_min":113,"x_max":371,"o":"m 149 483 q 131 501 149 483 q 113 575 113 519 q 149 667 113 631 q 243 703 186 703 q 334 667 297 703 q 371 575 371 631 q 334 483 371 519 q 243 446 297 446 q 149 483 186 446 m 129 -250 l 165 350 l 318 350 l 353 -250 l 129 -250 z "},"¢":{"ha":774,"x_min":46,"x_max":714,"o":"m 583 364 l 713 264 q 469 97 633 121 l 469 -135 l 306 -135 l 306 108 q 118 236 192 142 q 46 453 46 329 q 118 669 46 576 q 306 797 192 764 l 306 1040 l 469 1040 l 469 808 q 714 642 632 785 l 583 542 q 417 640 514 640 q 288 587 338 640 q 238 453 238 533 q 288 319 238 372 q 417 265 338 265 q 583 364 514 265 z "},"£":{"ha":790,"x_min":58,"x_max":743,"o":"m 383 158 l 729 158 l 729 0 l 58 0 l 58 40 q 198 170 154 110 q 242 301 242 231 l 242 315 l 72 315 l 72 474 l 182 474 q 122 665 122 586 q 208 859 122 785 q 425 933 294 933 q 626 869 543 933 q 743 682 710 804 l 586 625 q 438 760 543 760 q 347 725 381 760 q 313 635 313 690 q 326 566 313 599 q 374 474 339 533 l 597 474 l 597 315 l 428 315 l 428 304 q 383 158 428 219 z "},"¤":{"ha":913,"x_min":24,"x_max":889,"o":"m 739 282 l 889 129 l 778 18 l 622 176 q 451 133 546 133 q 283 175 360 133 l 136 18 l 24 129 l 167 281 q 113 458 113 358 q 167 633 113 556 l 24 779 l 136 892 l 283 740 q 451 783 357 783 q 625 739 543 783 l 776 892 l 889 779 l 740 633 q 793 458 793 553 q 739 282 793 358 m 560 349 q 581 370 560 349 q 601 458 601 392 q 559 568 601 525 q 453 611 517 611 q 345 568 386 611 q 304 458 304 525 q 345 349 304 392 q 453 306 386 306 q 560 349 518 306 z "},"¥":{"ha":832,"x_min":7,"x_max":825,"o":"m 825 917 l 553 521 l 761 521 l 761 369 l 511 369 l 511 283 l 761 283 l 761 132 l 511 132 l 511 0 l 324 0 l 324 132 l 72 132 l 72 283 l 324 283 l 324 369 l 72 369 l 72 521 l 281 521 l 7 917 l 215 917 l 417 622 l 618 917 l 825 917 z "},"¦":{"ha":461,"x_min":153,"x_max":308,"o":"m 153 667 l 153 1083 l 308 1083 l 308 667 l 153 667 m 153 -168 l 153 249 l 308 249 l 308 -168 l 153 -168 z "},"§":{"ha":836,"x_min":40,"x_max":796,"o":"m 635 74 q 638 39 638 43 q 566 -123 638 -61 q 378 -185 494 -185 q 103 -36 190 -185 l 221 60 q 378 -28 285 -28 q 461 39 461 -28 q 441 92 461 71 q 357 157 421 113 l 231 242 q 85 361 129 306 q 40 486 40 417 q 83 610 40 558 q 201 685 126 663 q 199 719 199 715 q 270 881 199 819 q 458 943 342 943 q 732 794 644 943 l 614 699 q 457 786 547 786 q 374 719 374 786 q 393 667 374 688 q 479 601 413 646 l 604 517 q 751 397 707 451 q 796 272 796 343 q 753 148 796 200 q 635 74 710 96 m 571 192 q 619 267 619 219 q 597 319 619 294 q 513 386 575 344 l 376 476 q 263 565 293 532 q 215 492 215 539 q 238 440 215 464 q 324 372 260 415 l 449 288 q 571 192 531 236 z "},"¨":{"ha":833,"x_min":139,"x_max":694,"o":"m 172 863 q 156 878 172 863 q 139 939 139 894 q 172 1015 139 983 q 253 1047 206 1047 q 331 1015 297 1047 q 364 939 364 983 q 331 863 364 894 q 253 831 297 831 q 172 863 206 831 m 503 863 q 486 878 503 863 q 469 939 469 894 q 503 1015 469 983 q 583 1047 536 1047 q 661 1015 628 1047 q 694 939 694 983 q 661 863 694 894 q 583 831 628 831 q 503 863 536 831 z "},"©":{"ha":1081,"x_min":49,"x_max":1032,"o":"m 53 457 q 197 795 49 654 q 540 933 344 936 q 884 795 736 938 q 1028 458 1032 653 q 883 122 1032 264 q 539 -17 735 -21 q 196 122 343 -19 q 53 457 49 263 m 906 457 q 797 720 908 615 q 539 822 686 825 q 281 720 390 825 q 175 457 172 615 q 281 195 172 299 q 539 94 390 92 q 797 196 686 92 q 906 457 908 300 m 288 458 q 363 642 288 568 q 550 717 439 717 q 760 607 676 717 l 663 522 q 551 586 617 586 q 465 550 499 586 q 432 458 432 514 q 465 368 432 404 q 551 332 499 332 q 663 394 617 332 l 760 310 q 549 201 678 201 q 363 276 439 201 q 288 458 288 350 z "},"ª":{"ha":508,"x_min":38,"x_max":444,"o":"m 444 594 l 444 339 l 313 339 l 313 372 q 188 328 264 328 q 78 366 118 328 q 38 464 38 404 q 83 558 38 525 q 207 592 128 592 l 300 592 l 300 607 q 231 665 300 665 q 115 619 179 665 l 57 713 q 247 785 138 785 q 392 735 340 785 q 444 594 444 686 m 300 497 l 300 510 l 232 510 q 183 469 183 510 q 197 441 183 451 q 232 431 210 431 q 281 449 261 431 q 300 497 300 468 z "},"«":{"ha":829,"x_min":40,"x_max":788,"o":"m 311 63 l 40 353 l 40 403 l 311 694 l 431 590 l 243 379 l 431 167 l 311 63 m 668 63 l 397 353 l 397 403 l 668 694 l 788 590 l 600 379 l 788 167 l 668 63 z "},"¬":{"ha":778,"x_min":60,"x_max":672,"o":"m 497 143 l 497 365 l 60 365 l 60 525 l 672 525 l 672 143 l 497 143 z "},"­":{"ha":475,"x_min":63,"x_max":413,"o":"m 63 367 l 63 524 l 413 524 l 413 367 l 63 367 z "},"®":{"ha":797,"x_min":43,"x_max":754,"o":"m 751 606 q 648 353 754 461 q 400 249 542 246 q 150 353 257 246 q 46 606 43 461 q 150 856 43 749 q 400 961 257 964 q 647 856 540 964 q 751 606 754 749 m 584 415 q 622 454 584 415 q 660 606 660 493 q 584 796 660 718 q 400 874 508 874 q 215 796 290 874 q 139 606 139 718 q 215 414 139 492 q 400 336 290 336 q 584 415 508 336 m 490 557 l 582 431 l 475 431 l 394 535 l 357 535 l 357 431 l 260 431 l 260 779 l 404 779 q 506 745 467 779 q 544 657 544 711 q 490 557 544 592 m 357 694 l 357 618 l 404 618 q 433 628 422 618 q 444 656 444 639 q 433 684 444 674 q 404 694 422 694 l 357 694 z "},"¯":{"ha":833,"x_min":207,"x_max":626,"o":"m 207 864 l 207 1011 l 626 1011 l 626 864 l 207 864 z "},"°":{"ha":501,"x_min":33,"x_max":468,"o":"m 97 569 q 65 600 97 569 q 33 719 33 632 q 97 870 33 807 q 251 933 161 933 q 405 871 342 933 q 468 719 468 808 q 405 568 468 631 q 251 506 342 506 q 97 569 161 506 m 344 718 q 318 785 344 758 q 251 813 292 813 q 185 785 211 813 q 158 718 158 758 q 185 652 158 679 q 251 625 211 625 q 318 652 292 625 q 344 718 344 679 z "},"±":{"ha":778,"x_min":76,"x_max":703,"o":"m 300 242 l 300 438 l 76 438 l 76 589 l 300 589 l 300 775 l 479 775 l 479 589 l 703 589 l 703 438 l 479 438 l 479 242 l 300 242 m 76 0 l 76 150 l 703 150 l 703 0 l 76 0 z "},"²":{"ha":535,"x_min":46,"x_max":481,"o":"m 297 631 l 481 631 l 481 506 l 46 504 l 46 533 l 253 758 q 325 893 325 840 q 307 947 325 926 q 258 967 289 967 q 209 947 228 967 q 190 890 190 926 q 191 883 190 889 q 192 869 192 878 q 193 850 193 860 l 56 850 q 50 899 50 871 q 109 1035 50 976 q 260 1094 168 1094 q 408 1040 349 1094 q 468 906 468 989 q 438 797 468 849 q 342 678 408 744 l 297 631 z "},"³":{"ha":500,"x_min":15,"x_max":453,"o":"m 453 697 q 388 553 453 611 q 231 494 324 494 q 101 531 157 494 q 15 631 44 567 l 111 699 q 226 622 163 622 q 287 643 264 622 q 310 697 310 664 q 204 764 310 764 l 138 764 l 138 799 l 246 958 l 61 958 l 61 1083 l 443 1083 l 443 1046 l 326 872 q 417 808 382 854 q 453 697 453 761 z "},"´":{"ha":833,"x_min":253,"x_max":579,"o":"m 253 793 l 354 1083 l 579 1083 l 579 1050 l 389 793 l 253 793 z "},"µ":{"ha":851,"x_min":93,"x_max":826,"o":"m 789 154 l 826 156 l 826 0 q 726 -14 783 -14 q 579 58 622 -14 q 424 -17 518 -17 q 281 46 336 -17 l 281 -250 l 93 -250 l 93 688 l 281 688 l 281 292 q 316 192 281 231 q 408 153 351 153 q 503 192 467 153 q 539 292 539 231 l 539 688 l 725 688 l 725 239 q 789 154 725 154 z "},"¶":{"ha":851,"x_min":44,"x_max":747,"o":"m 44 611 q 142 833 44 749 q 389 917 239 917 l 469 917 l 469 301 l 389 301 q 142 388 240 301 q 44 611 44 475 m 342 -250 l 342 -90 q 431 -96 408 -96 q 529 -70 499 -96 q 560 15 560 -44 l 560 917 l 747 917 l 747 -4 q 676 -201 747 -135 q 471 -267 606 -267 q 342 -250 406 -267 z "},"·":{"ha":389,"x_min":65,"x_max":324,"o":"m 65 444 q 103 536 65 499 q 196 574 140 574 q 287 536 250 574 q 324 444 324 499 q 288 352 324 389 q 196 315 251 315 q 103 352 140 315 q 65 444 65 389 z "},"¸":{"ha":833,"x_min":257,"x_max":575,"o":"m 257 -253 l 257 -129 q 340 -132 304 -132 q 426 -53 426 -132 q 408 28 426 -14 l 482 61 q 575 -90 575 10 q 517 -217 575 -168 q 360 -267 458 -267 q 257 -253 303 -267 z "},"¹":{"ha":514,"x_min":58,"x_max":461,"o":"m 58 506 l 58 631 l 201 631 l 201 958 l 71 958 l 71 1083 l 342 1083 l 342 631 l 461 631 l 461 506 l 58 506 z "},"º":{"ha":554,"x_min":40,"x_max":514,"o":"m 110 394 q 75 428 110 394 q 40 557 40 461 q 110 719 40 653 q 276 785 179 785 q 444 719 374 785 q 514 557 514 653 q 444 394 514 461 q 276 328 375 328 q 110 394 179 328 m 369 557 q 344 628 369 601 q 276 656 318 656 q 210 628 235 656 q 185 557 185 601 q 210 485 185 513 q 276 458 235 458 q 344 486 318 458 q 369 557 369 514 z "},"»":{"ha":829,"x_min":43,"x_max":789,"o":"m 163 63 l 43 167 l 229 379 l 43 590 l 163 694 l 432 403 l 432 353 l 163 63 m 519 63 l 400 167 l 586 379 l 400 590 l 519 694 l 789 403 l 789 353 l 519 63 z "},"¼":{"ha":1301,"x_min":58,"x_max":1286,"o":"m 58 339 l 58 464 l 201 464 l 201 792 l 71 792 l 71 917 l 342 917 l 342 464 l 461 464 l 461 339 l 58 339 m 349 0 l 876 917 l 1028 917 l 500 0 l 349 0 m 1286 203 l 1286 89 l 1217 89 l 1217 0 l 1090 0 l 1090 89 l 796 89 l 796 125 l 968 578 l 1111 578 l 967 203 l 1090 203 l 1092 354 l 1217 354 l 1217 203 l 1286 203 z "},"½":{"ha":1349,"x_min":58,"x_max":1294,"o":"m 58 339 l 58 464 l 201 464 l 201 792 l 71 792 l 71 917 l 342 917 l 342 464 l 461 464 l 461 339 l 58 339 m 349 0 l 876 917 l 1028 917 l 500 0 l 349 0 m 1111 125 l 1294 125 l 1294 0 l 860 -1 l 860 28 l 1067 253 q 1139 388 1139 335 q 1121 441 1139 421 q 1072 461 1103 461 q 1023 441 1042 461 q 1004 385 1004 421 q 1005 378 1004 383 q 1006 363 1006 372 q 1007 344 1007 354 l 869 344 q 864 393 864 365 q 923 530 864 471 q 1074 589 982 589 q 1222 535 1161 589 q 1282 400 1282 483 q 1252 291 1282 343 q 1156 172 1222 239 l 1111 125 z "},"¾":{"ha":1239,"x_min":15,"x_max":1224,"o":"m 453 531 q 388 386 453 444 q 231 328 324 328 q 101 364 157 328 q 15 464 44 400 l 111 532 q 226 456 163 456 q 287 476 264 456 q 310 531 310 497 q 204 597 310 597 l 138 597 l 138 632 l 246 792 l 61 792 l 61 917 l 443 917 l 443 879 l 326 706 q 417 641 382 688 q 453 531 453 594 m 286 0 l 814 917 l 965 917 l 438 0 l 286 0 m 1224 203 l 1224 89 l 1154 89 l 1154 0 l 1028 0 l 1028 89 l 733 89 l 733 125 l 906 578 l 1049 578 l 904 203 l 1028 203 l 1029 354 l 1154 354 l 1154 203 l 1224 203 z "},"¿":{"ha":626,"x_min":47,"x_max":594,"o":"m 237 483 q 218 501 237 483 q 200 575 200 519 q 237 667 200 631 q 329 703 274 703 q 422 667 385 703 q 458 575 458 631 q 422 483 458 519 q 329 446 385 446 q 237 483 274 446 m 47 -15 q 74 94 47 49 q 161 193 101 140 q 240 271 221 247 q 258 322 258 294 l 257 350 l 415 350 q 431 285 431 308 q 407 211 431 243 q 321 122 383 179 q 256 53 274 79 q 239 -3 239 28 q 265 -68 239 -43 q 328 -93 290 -93 q 440 11 401 -93 l 594 -56 q 494 -212 565 -158 q 322 -267 422 -267 q 126 -196 206 -267 q 47 -15 47 -125 z "},"À":{"ha":918,"x_min":18,"x_max":899,"o":"m 697 0 l 646 119 l 271 119 l 219 0 l 18 0 l 428 933 l 490 933 l 899 0 l 697 0 m 581 274 l 458 583 l 336 274 l 581 274 m 392 1006 l 201 1231 l 201 1264 l 426 1264 l 528 1006 l 392 1006 z "},"Á":{"ha":918,"x_min":18,"x_max":899,"o":"m 697 0 l 646 119 l 271 119 l 219 0 l 18 0 l 428 933 l 490 933 l 899 0 l 697 0 m 581 274 l 458 583 l 336 274 l 581 274 m 386 1006 l 488 1264 l 713 1264 l 713 1231 l 522 1006 l 386 1006 z "},"Â":{"ha":918,"x_min":18,"x_max":899,"o":"m 697 0 l 646 119 l 271 119 l 219 0 l 18 0 l 428 933 l 490 933 l 899 0 l 697 0 m 581 274 l 458 583 l 336 274 l 581 274 m 726 1006 l 583 1006 l 458 1117 l 333 1006 l 192 1006 l 397 1264 l 521 1264 l 726 1006 z "},"Ã":{"ha":918,"x_min":18,"x_max":899,"o":"m 697 0 l 646 119 l 271 119 l 219 0 l 18 0 l 428 933 l 490 933 l 899 0 l 697 0 m 581 274 l 458 583 l 336 274 l 581 274 m 471 1038 l 429 1060 q 368 1083 389 1083 q 329 1038 329 1083 l 329 1021 l 186 1021 q 183 1068 183 1063 q 229 1202 183 1150 q 344 1254 275 1254 q 447 1225 393 1254 l 489 1200 q 551 1176 525 1176 q 590 1224 590 1176 l 590 1240 l 733 1240 q 736 1194 736 1199 q 690 1059 736 1111 q 576 1007 644 1007 q 471 1038 526 1007 z "},"Ä":{"ha":918,"x_min":18,"x_max":899,"o":"m 697 0 l 646 119 l 271 119 l 219 0 l 18 0 l 428 933 l 490 933 l 899 0 l 697 0 m 581 274 l 458 583 l 336 274 l 581 274 m 168 1131 q 201 1208 168 1176 q 279 1239 233 1239 q 360 1208 326 1239 q 393 1131 393 1176 q 360 1056 393 1088 q 279 1024 326 1024 q 202 1056 236 1024 q 168 1131 168 1089 m 526 1129 q 560 1207 526 1175 q 639 1239 593 1239 q 718 1207 685 1239 q 751 1129 751 1175 q 718 1054 751 1086 q 639 1022 685 1022 q 561 1055 596 1022 q 526 1129 526 1088 z "},"Å":{"ha":918,"x_min":18,"x_max":899,"o":"m 697 0 l 646 119 l 271 119 l 219 0 l 18 0 l 428 933 l 490 933 l 899 0 l 697 0 m 581 274 l 458 583 l 336 274 l 581 274 m 283 1108 q 333 1228 283 1179 q 458 1276 383 1276 q 584 1228 533 1276 q 635 1108 635 1179 q 584 987 635 1036 q 458 938 533 938 q 333 987 383 938 q 283 1108 283 1036 m 517 1108 q 500 1149 517 1132 q 460 1165 483 1165 q 419 1149 435 1165 q 403 1108 403 1132 q 419 1067 403 1083 q 460 1050 435 1050 q 500 1067 483 1050 q 517 1108 517 1083 z "},"Æ":{"ha":1183,"x_min":7,"x_max":1128,"o":"m 789 169 l 1128 169 l 1128 0 l 635 0 l 614 119 l 271 119 l 208 0 l 7 0 l 476 917 l 1111 917 l 1111 747 l 693 747 l 724 561 l 999 561 l 999 401 l 750 401 l 789 169 m 528 647 l 349 274 l 588 274 l 528 647 z "},"Ç":{"ha":1000,"x_min":49,"x_max":946,"o":"m 53 458 q 196 797 50 656 q 542 933 342 938 q 778 873 672 933 q 946 706 885 813 l 804 606 q 542 760 706 760 q 330 674 414 760 q 246 457 246 588 q 330 242 246 326 q 542 157 414 157 q 804 311 706 157 l 946 211 q 779 44 886 104 q 540 -17 672 -17 q 194 120 339 -21 q 53 458 49 261 m 353 -253 l 353 -129 q 436 -132 400 -132 q 522 -53 522 -132 q 504 28 522 -14 l 578 61 q 671 -90 671 10 q 613 -217 671 -168 q 456 -267 554 -267 q 353 -253 399 -267 z "},"È":{"ha":796,"x_min":106,"x_max":739,"o":"m 106 0 l 106 917 l 722 917 l 722 747 l 293 747 l 293 561 l 608 561 l 608 401 l 293 401 l 293 169 l 739 169 l 739 0 l 106 0 m 342 1006 l 151 1231 l 151 1264 l 376 1264 l 478 1006 l 342 1006 z "},"É":{"ha":796,"x_min":106,"x_max":739,"o":"m 106 0 l 106 917 l 722 917 l 722 747 l 293 747 l 293 561 l 608 561 l 608 401 l 293 401 l 293 169 l 739 169 l 739 0 l 106 0 m 336 1006 l 438 1264 l 663 1264 l 663 1231 l 472 1006 l 336 1006 z "},"Ê":{"ha":796,"x_min":106,"x_max":739,"o":"m 106 0 l 106 917 l 722 917 l 722 747 l 293 747 l 293 561 l 608 561 l 608 401 l 293 401 l 293 169 l 739 169 l 739 0 l 106 0 m 676 1006 l 533 1006 l 408 1117 l 283 1006 l 142 1006 l 347 1264 l 471 1264 l 676 1006 z "},"Ë":{"ha":796,"x_min":106,"x_max":739,"o":"m 106 0 l 106 917 l 722 917 l 722 747 l 293 747 l 293 561 l 608 561 l 608 401 l 293 401 l 293 169 l 739 169 l 739 0 l 106 0 m 118 1131 q 151 1208 118 1176 q 229 1239 183 1239 q 310 1208 276 1239 q 343 1131 343 1176 q 310 1056 343 1088 q 229 1024 276 1024 q 152 1056 186 1024 q 118 1131 118 1089 m 476 1129 q 510 1207 476 1175 q 589 1239 543 1239 q 668 1207 635 1239 q 701 1129 701 1175 q 668 1054 701 1086 q 589 1022 635 1022 q 511 1055 546 1022 q 476 1129 476 1088 z "},"Ì":{"ha":397,"x_min":-58,"x_max":293,"o":"m 106 0 l 106 917 l 293 917 l 293 0 l 106 0 m 132 1006 l -58 1231 l -58 1264 l 167 1264 l 268 1006 l 132 1006 z "},"Í":{"ha":397,"x_min":106,"x_max":453,"o":"m 106 0 l 106 917 l 293 917 l 293 0 l 106 0 m 126 1006 l 228 1264 l 453 1264 l 453 1231 l 263 1006 l 126 1006 z "},"Î":{"ha":397,"x_min":-68,"x_max":467,"o":"m 106 0 l 106 917 l 293 917 l 293 0 l 106 0 m 467 1006 l 324 1006 l 199 1117 l 74 1006 l -68 1006 l 138 1264 l 261 1264 l 467 1006 z "},"Ï":{"ha":397,"x_min":-92,"x_max":492,"o":"m 106 0 l 106 917 l 293 917 l 293 0 l 106 0 m -92 1131 q -59 1208 -92 1176 q 19 1239 -26 1239 q 100 1208 67 1239 q 133 1131 133 1176 q 100 1056 133 1088 q 19 1024 67 1024 q -58 1056 -24 1024 q -92 1131 -92 1089 m 267 1129 q 300 1207 267 1175 q 379 1239 333 1239 q 458 1207 425 1239 q 492 1129 492 1175 q 458 1054 492 1086 q 379 1022 425 1022 q 301 1055 336 1022 q 267 1129 267 1088 z "},"Ð":{"ha":958,"x_min":-11,"x_max":908,"o":"m 906 461 q 765 129 908 261 q 406 0 622 -3 l 106 0 l 106 357 l -11 357 l -11 514 l 106 514 l 106 917 l 406 917 q 767 791 625 919 q 906 461 908 663 m 713 461 q 629 671 713 594 q 404 747 546 747 l 293 747 l 293 514 l 443 514 l 443 357 l 293 357 l 293 169 l 404 169 q 628 249 543 169 q 713 461 713 329 z "},"Ñ":{"ha":990,"x_min":106,"x_max":886,"o":"m 699 917 l 886 917 l 886 -17 l 824 -17 l 293 550 l 293 0 l 106 0 l 106 933 l 167 933 l 699 369 l 699 917 m 507 1038 l 465 1060 q 404 1083 425 1083 q 365 1038 365 1083 l 365 1021 l 222 1021 q 219 1068 219 1063 q 265 1202 219 1150 q 381 1254 311 1254 q 483 1225 429 1254 l 525 1200 q 588 1176 561 1176 q 626 1224 626 1176 l 626 1240 l 769 1240 q 772 1194 772 1199 q 726 1059 772 1111 q 613 1007 681 1007 q 507 1038 563 1007 z "},"Ò":{"ha":1081,"x_min":50,"x_max":1031,"o":"m 53 458 q 195 796 50 654 q 539 933 340 938 q 884 796 738 938 q 1028 458 1031 654 q 884 121 1031 263 q 539 -17 738 -21 q 195 121 340 -21 q 53 458 50 263 m 835 458 q 751 674 835 589 q 540 760 667 760 q 329 675 413 760 q 246 458 246 590 q 329 242 246 326 q 540 157 413 157 q 751 242 667 157 q 835 458 835 326 m 472 1006 l 282 1231 l 282 1264 l 507 1264 l 608 1006 l 472 1006 z "},"Ó":{"ha":1081,"x_min":50,"x_max":1031,"o":"m 53 458 q 195 796 50 654 q 539 933 340 938 q 884 796 738 938 q 1028 458 1031 654 q 884 121 1031 263 q 539 -17 738 -21 q 195 121 340 -21 q 53 458 50 263 m 835 458 q 751 674 835 589 q 540 760 667 760 q 329 675 413 760 q 246 458 246 590 q 329 242 246 326 q 540 157 413 157 q 751 242 667 157 q 835 458 835 326 m 467 1006 l 568 1264 l 793 1264 l 793 1231 l 603 1006 l 467 1006 z "},"Ô":{"ha":1081,"x_min":50,"x_max":1031,"o":"m 53 458 q 195 796 50 654 q 539 933 340 938 q 884 796 738 938 q 1028 458 1031 654 q 884 121 1031 263 q 539 -17 738 -21 q 195 121 340 -21 q 53 458 50 263 m 835 458 q 751 674 835 589 q 540 760 667 760 q 329 675 413 760 q 246 458 246 590 q 329 242 246 326 q 540 157 413 157 q 751 242 667 157 q 835 458 835 326 m 807 1006 l 664 1006 l 539 1117 l 414 1006 l 272 1006 l 478 1264 l 601 1264 l 807 1006 z "},"Õ":{"ha":1081,"x_min":50,"x_max":1031,"o":"m 53 458 q 195 796 50 654 q 539 933 340 938 q 884 796 738 938 q 1028 458 1031 654 q 884 121 1031 263 q 539 -17 738 -21 q 195 121 340 -21 q 53 458 50 263 m 835 458 q 751 674 835 589 q 540 760 667 760 q 329 675 413 760 q 246 458 246 590 q 329 242 246 326 q 540 157 413 157 q 751 242 667 157 q 835 458 835 326 m 551 1038 l 510 1060 q 449 1083 469 1083 q 410 1038 410 1083 l 410 1021 l 267 1021 q 264 1068 264 1063 q 310 1202 264 1150 q 425 1254 356 1254 q 528 1225 474 1254 l 569 1200 q 632 1176 604 1176 q 671 1224 671 1176 l 671 1240 l 814 1240 q 817 1194 817 1199 q 771 1059 817 1111 q 657 1007 725 1007 q 551 1038 607 1007 z "},"Ö":{"ha":1081,"x_min":50,"x_max":1031,"o":"m 53 458 q 195 796 50 654 q 539 933 340 938 q 884 796 738 938 q 1028 458 1031 654 q 884 121 1031 263 q 539 -17 738 -21 q 195 121 340 -21 q 53 458 50 263 m 835 458 q 751 674 835 589 q 540 760 667 760 q 329 675 413 760 q 246 458 246 590 q 329 242 246 326 q 540 157 413 157 q 751 242 667 157 q 835 458 835 326 m 249 1131 q 281 1208 249 1176 q 360 1239 314 1239 q 440 1208 407 1239 q 474 1131 474 1176 q 440 1056 474 1088 q 360 1024 407 1024 q 283 1056 317 1024 q 249 1131 249 1089 m 607 1129 q 640 1207 607 1175 q 719 1239 674 1239 q 799 1207 765 1239 q 832 1129 832 1175 q 799 1054 832 1086 q 719 1022 765 1022 q 642 1055 676 1022 q 607 1129 607 1088 z "},"×":{"ha":778,"x_min":72,"x_max":704,"o":"m 183 132 l 72 244 l 276 449 l 72 653 l 183 764 l 389 560 l 593 764 l 704 653 l 500 449 l 704 244 l 593 132 l 388 336 l 183 132 z "},"Ø":{"ha":1081,"x_min":43,"x_max":1038,"o":"m 1038 844 l 933 740 q 1028 458 1028 618 q 884 121 1031 263 q 539 -17 738 -21 q 261 65 389 -17 l 156 -40 l 43 72 l 146 175 q 53 458 53 301 q 195 796 50 654 q 539 933 340 938 q 818 850 693 933 l 925 957 l 1038 844 m 238 458 q 274 304 238 374 l 697 726 q 540 768 625 768 q 323 681 408 768 q 238 458 238 593 m 843 458 q 806 613 843 542 l 383 189 q 540 149 453 149 q 756 237 669 149 q 843 458 843 325 z "},"Ù":{"ha":972,"x_min":97,"x_max":875,"o":"m 97 379 l 97 917 l 285 917 l 285 365 q 340 212 285 267 q 486 157 396 157 q 633 212 578 157 q 688 365 688 267 l 688 917 l 875 917 l 875 379 q 765 92 875 200 q 486 -17 656 -17 q 206 92 315 -17 q 97 379 97 200 m 418 1006 l 228 1231 l 228 1264 l 453 1264 l 554 1006 l 418 1006 z "},"Ú":{"ha":972,"x_min":97,"x_max":875,"o":"m 97 379 l 97 917 l 285 917 l 285 365 q 340 212 285 267 q 486 157 396 157 q 633 212 578 157 q 688 365 688 267 l 688 917 l 875 917 l 875 379 q 765 92 875 200 q 486 -17 656 -17 q 206 92 315 -17 q 97 379 97 200 m 413 1006 l 514 1264 l 739 1264 l 739 1231 l 549 1006 l 413 1006 z "},"Û":{"ha":972,"x_min":97,"x_max":875,"o":"m 97 379 l 97 917 l 285 917 l 285 365 q 340 212 285 267 q 486 157 396 157 q 633 212 578 157 q 688 365 688 267 l 688 917 l 875 917 l 875 379 q 765 92 875 200 q 486 -17 656 -17 q 206 92 315 -17 q 97 379 97 200 m 753 1006 l 610 1006 l 485 1117 l 360 1006 l 218 1006 l 424 1264 l 547 1264 l 753 1006 z "},"Ü":{"ha":972,"x_min":97,"x_max":875,"o":"m 97 379 l 97 917 l 285 917 l 285 365 q 340 212 285 267 q 486 157 396 157 q 633 212 578 157 q 688 365 688 267 l 688 917 l 875 917 l 875 379 q 765 92 875 200 q 486 -17 656 -17 q 206 92 315 -17 q 97 379 97 200 m 194 1131 q 227 1208 194 1176 q 306 1239 260 1239 q 386 1208 353 1239 q 419 1131 419 1176 q 386 1056 419 1088 q 306 1024 353 1024 q 228 1056 263 1024 q 194 1131 194 1089 m 553 1129 q 586 1207 553 1175 q 665 1239 619 1239 q 744 1207 711 1239 q 778 1129 778 1175 q 744 1054 778 1086 q 665 1022 711 1022 q 588 1055 622 1022 q 553 1129 553 1088 z "},"Ý":{"ha":867,"x_min":24,"x_max":843,"o":"m 843 917 l 528 361 l 528 0 l 340 0 l 340 360 l 24 917 l 232 917 l 435 553 l 636 917 l 843 917 m 358 1006 l 460 1264 l 685 1264 l 685 1231 l 494 1006 l 358 1006 z "},"Þ":{"ha":825,"x_min":106,"x_max":781,"o":"m 106 0 l 106 917 l 293 917 l 293 776 l 450 776 q 688 694 594 776 q 781 478 781 611 q 688 261 781 344 q 450 178 594 178 l 293 178 l 293 0 l 106 0 m 293 342 l 450 342 q 551 379 514 342 q 589 476 589 417 q 552 575 589 539 q 450 611 515 611 l 293 611 l 293 342 z "},"ß":{"ha":903,"x_min":93,"x_max":868,"o":"m 363 68 l 433 200 q 607 142 525 142 q 686 200 686 142 q 667 243 686 226 q 578 300 649 260 q 469 383 503 344 q 436 469 436 421 q 461 571 436 506 l 508 692 q 528 783 528 739 q 500 861 528 833 q 419 889 472 889 q 317 845 356 889 q 278 717 278 801 l 278 0 l 93 0 l 93 725 q 183 970 93 882 q 428 1058 272 1058 q 638 997 560 1058 q 717 833 717 935 q 693 718 717 782 l 643 589 q 621 513 621 539 q 646 460 621 482 q 732 401 671 438 q 835 313 803 357 q 868 203 868 268 q 797 43 868 103 q 607 -17 725 -17 q 363 68 464 -17 z "},"à":{"ha":757,"x_min":50,"x_max":669,"o":"m 669 408 l 669 0 l 497 0 l 497 67 q 288 -17 417 -17 q 115 40 179 -17 q 50 189 50 97 q 120 335 50 282 q 310 389 190 389 l 482 389 l 482 419 q 449 509 482 478 q 354 540 417 540 q 261 518 303 540 q 172 446 219 496 l 75 561 q 375 703 194 703 q 590 626 511 703 q 669 408 669 549 m 482 257 l 482 265 l 335 265 q 239 196 239 265 q 266 141 239 161 q 338 121 293 121 q 441 159 400 121 q 482 257 482 197 m 308 793 l 118 1050 l 118 1083 l 343 1083 l 444 793 l 308 793 z "},"á":{"ha":757,"x_min":50,"x_max":669,"o":"m 669 408 l 669 0 l 497 0 l 497 67 q 288 -17 417 -17 q 115 40 179 -17 q 50 189 50 97 q 120 335 50 282 q 310 389 190 389 l 482 389 l 482 419 q 449 509 482 478 q 354 540 417 540 q 261 518 303 540 q 172 446 219 496 l 75 561 q 375 703 194 703 q 590 626 511 703 q 669 408 669 549 m 482 257 l 482 265 l 335 265 q 239 196 239 265 q 266 141 239 161 q 338 121 293 121 q 441 159 400 121 q 482 257 482 197 m 307 793 l 408 1083 l 633 1083 l 633 1050 l 443 793 l 307 793 z "},"â":{"ha":757,"x_min":50,"x_max":669,"o":"m 669 408 l 669 0 l 497 0 l 497 67 q 288 -17 417 -17 q 115 40 179 -17 q 50 189 50 97 q 120 335 50 282 q 310 389 190 389 l 482 389 l 482 419 q 449 509 482 478 q 354 540 417 540 q 261 518 303 540 q 172 446 219 496 l 75 561 q 375 703 194 703 q 590 626 511 703 q 669 408 669 549 m 482 257 l 482 265 l 335 265 q 239 196 239 265 q 266 141 239 161 q 338 121 293 121 q 441 159 400 121 q 482 257 482 197 m 624 793 l 486 793 l 375 921 l 264 793 l 126 793 l 314 1083 l 438 1083 l 624 793 z "},"ã":{"ha":757,"x_min":50,"x_max":669,"o":"m 669 408 l 669 0 l 497 0 l 497 67 q 288 -17 417 -17 q 115 40 179 -17 q 50 189 50 97 q 120 335 50 282 q 310 389 190 389 l 482 389 l 482 419 q 449 509 482 478 q 354 540 417 540 q 261 518 303 540 q 172 446 219 496 l 75 561 q 375 703 194 703 q 590 626 511 703 q 669 408 669 549 m 482 257 l 482 265 l 335 265 q 239 196 239 265 q 266 141 239 161 q 338 121 293 121 q 441 159 400 121 q 482 257 482 197 m 386 835 l 347 858 q 292 885 311 885 q 253 836 253 885 l 253 819 l 110 819 q 107 865 107 839 q 151 1002 107 950 q 264 1054 196 1054 q 364 1024 317 1054 l 403 999 q 458 974 436 974 q 497 1022 497 974 l 497 1039 l 639 1039 q 643 992 643 1014 q 598 856 643 908 q 485 804 553 804 q 386 835 433 804 z "},"ä":{"ha":757,"x_min":50,"x_max":669,"o":"m 669 408 l 669 0 l 497 0 l 497 67 q 288 -17 417 -17 q 115 40 179 -17 q 50 189 50 97 q 120 335 50 282 q 310 389 190 389 l 482 389 l 482 419 q 449 509 482 478 q 354 540 417 540 q 261 518 303 540 q 172 446 219 496 l 75 561 q 375 703 194 703 q 590 626 511 703 q 669 408 669 549 m 482 257 l 482 265 l 335 265 q 239 196 239 265 q 266 141 239 161 q 338 121 293 121 q 441 159 400 121 q 482 257 482 197 m 131 863 q 114 878 131 863 q 97 939 97 894 q 131 1015 97 983 q 211 1047 164 1047 q 289 1015 256 1047 q 322 939 322 983 q 289 863 322 894 q 211 831 256 831 q 131 863 164 831 m 461 863 q 444 878 461 863 q 428 939 428 894 q 461 1015 428 983 q 542 1047 494 1047 q 619 1015 586 1047 q 653 939 653 983 q 619 863 653 894 q 542 831 586 831 q 461 863 494 831 z "},"å":{"ha":757,"x_min":50,"x_max":669,"o":"m 669 408 l 669 0 l 497 0 l 497 67 q 288 -17 417 -17 q 115 40 179 -17 q 50 189 50 97 q 120 335 50 282 q 310 389 190 389 l 482 389 l 482 419 q 449 509 482 478 q 354 540 417 540 q 261 518 303 540 q 172 446 219 496 l 75 561 q 375 703 194 703 q 590 626 511 703 q 669 408 669 549 m 482 257 l 482 265 l 335 265 q 239 196 239 265 q 266 141 239 161 q 338 121 293 121 q 441 159 400 121 q 482 257 482 197 m 199 932 q 249 1053 199 1004 q 374 1101 299 1101 q 500 1053 450 1101 q 550 932 550 1006 q 500 810 550 858 q 374 761 450 761 q 249 810 299 761 q 199 932 199 858 m 432 932 q 415 973 432 957 q 375 989 399 989 q 335 973 351 989 q 318 932 318 957 q 334 891 318 907 q 375 875 350 875 q 415 892 399 875 q 432 932 432 908 z "},"æ":{"ha":1219,"x_min":50,"x_max":1167,"o":"m 1153 274 l 674 274 q 742 178 692 211 q 865 144 793 144 q 1056 214 965 144 l 1133 86 q 861 -17 1014 -17 q 572 122 671 -17 q 301 -17 489 -17 q 117 40 183 -17 q 50 190 50 97 q 120 342 50 286 q 310 397 190 397 l 482 397 l 482 419 q 449 509 482 478 q 356 540 417 540 q 172 446 264 540 l 76 561 q 375 703 194 703 q 601 601 529 703 q 844 703 696 703 q 1075 611 983 703 q 1167 383 1167 519 q 1153 274 1167 321 m 668 397 l 985 397 q 945 509 986 467 q 838 551 904 551 q 728 510 774 551 q 668 397 682 468 m 482 256 l 482 274 l 335 274 q 239 201 239 274 q 265 143 239 164 q 336 122 292 122 q 440 160 399 122 q 482 256 482 197 z "},"ç":{"ha":767,"x_min":51,"x_max":721,"o":"m 54 344 q 161 599 54 494 q 422 703 268 703 q 721 533 625 703 l 590 432 q 425 532 521 532 q 295 478 346 532 q 244 344 244 425 q 295 209 244 263 q 425 156 346 156 q 590 254 521 156 l 721 154 q 598 28 675 74 q 422 -17 521 -17 q 161 88 271 -19 q 54 344 51 196 m 225 -253 l 225 -129 q 308 -132 272 -132 q 394 -53 394 -132 q 376 28 394 -14 l 450 61 q 543 -90 543 10 q 485 -217 543 -168 q 328 -267 426 -267 q 225 -253 271 -267 z "},"è":{"ha":790,"x_min":51,"x_max":738,"o":"m 725 281 l 243 281 q 310 180 260 215 q 436 144 361 144 q 628 214 538 144 l 706 86 q 431 -17 582 -17 q 162 87 272 -19 q 54 343 51 193 q 158 599 51 492 q 414 703 265 706 q 647 611 556 703 q 738 383 738 519 q 725 281 738 333 m 243 413 l 556 413 q 512 513 554 475 q 407 551 469 551 q 303 514 347 551 q 243 413 258 476 m 346 793 l 156 1050 l 156 1083 l 381 1083 l 482 793 l 346 793 z "},"é":{"ha":790,"x_min":51,"x_max":738,"o":"m 725 281 l 243 281 q 310 180 260 215 q 436 144 361 144 q 628 214 538 144 l 706 86 q 431 -17 582 -17 q 162 87 272 -19 q 54 343 51 193 q 158 599 51 492 q 414 703 265 706 q 647 611 556 703 q 738 383 738 519 q 725 281 738 333 m 243 413 l 556 413 q 512 513 554 475 q 407 551 469 551 q 303 514 347 551 q 243 413 258 476 m 346 793 l 447 1083 l 672 1083 l 672 1050 l 482 793 l 346 793 z "},"ê":{"ha":790,"x_min":51,"x_max":738,"o":"m 725 281 l 243 281 q 310 180 260 215 q 436 144 361 144 q 628 214 538 144 l 706 86 q 431 -17 582 -17 q 162 87 272 -19 q 54 343 51 193 q 158 599 51 492 q 414 703 265 706 q 647 611 556 703 q 738 383 738 519 q 725 281 738 333 m 243 413 l 556 413 q 512 513 554 475 q 407 551 469 551 q 303 514 347 551 q 243 413 258 476 m 663 793 l 525 793 l 414 921 l 303 793 l 165 793 l 353 1083 l 476 1083 l 663 793 z "},"ë":{"ha":790,"x_min":51,"x_max":738,"o":"m 725 281 l 243 281 q 310 180 260 215 q 436 144 361 144 q 628 214 538 144 l 706 86 q 431 -17 582 -17 q 162 87 272 -19 q 54 343 51 193 q 158 599 51 492 q 414 703 265 706 q 647 611 556 703 q 738 383 738 519 q 725 281 738 333 m 243 413 l 556 413 q 512 513 554 475 q 407 551 469 551 q 303 514 347 551 q 243 413 258 476 m 169 863 q 153 878 169 863 q 136 939 136 894 q 169 1015 136 983 q 250 1047 203 1047 q 328 1015 294 1047 q 361 939 361 983 q 328 863 361 894 q 250 831 294 831 q 169 863 203 831 m 500 863 q 483 878 500 863 q 467 939 467 894 q 500 1015 467 983 q 581 1047 533 1047 q 658 1015 625 1047 q 692 939 692 983 q 658 863 692 894 q 581 831 625 831 q 500 863 533 831 z "},"ì":{"ha":374,"x_min":-26,"x_max":281,"o":"m 93 0 l 93 688 l 281 688 l 281 0 l 93 0 m 122 793 l -26 1050 l -26 1083 l 199 1083 l 258 793 l 122 793 z "},"í":{"ha":374,"x_min":93,"x_max":403,"o":"m 93 0 l 93 688 l 281 688 l 281 0 l 93 0 m 118 793 l 178 1083 l 403 1083 l 403 1050 l 254 793 l 118 793 z "},"î":{"ha":374,"x_min":-61,"x_max":436,"o":"m 93 0 l 93 688 l 281 688 l 281 0 l 93 0 m 436 793 l 299 793 l 188 921 l 76 793 l -61 793 l 126 1083 l 250 1083 l 436 793 z "},"ï":{"ha":374,"x_min":-78,"x_max":453,"o":"m 93 0 l 93 688 l 281 688 l 281 0 l 93 0 m -78 938 q -45 1015 -78 983 q 33 1047 -12 1047 q 114 1015 81 1047 q 147 938 147 983 q 114 863 147 894 q 33 831 81 831 q -44 863 -10 831 q -78 938 -78 896 m 228 938 q 261 1015 228 983 q 340 1047 294 1047 q 419 1015 386 1047 q 453 938 453 983 q 419 863 453 894 q 340 831 386 831 q 263 863 297 831 q 228 938 228 896 z "},"ð":{"ha":796,"x_min":51,"x_max":742,"o":"m 742 315 q 644 78 742 172 q 400 -17 546 -17 q 153 76 251 -17 q 54 306 54 168 q 147 529 54 440 q 376 618 240 618 l 390 618 l 306 733 l 117 640 l 51 774 l 217 856 l 143 956 l 283 1058 l 376 935 l 593 1042 l 660 910 l 468 814 l 578 669 q 664 547 619 615 q 742 315 742 435 m 509 194 q 531 217 509 194 q 553 307 553 239 q 509 419 553 375 q 397 463 465 463 q 286 419 329 463 q 243 306 243 375 q 286 194 243 238 q 397 150 329 150 q 509 194 465 150 z "},"ñ":{"ha":813,"x_min":93,"x_max":725,"o":"m 725 426 l 725 0 l 539 0 l 539 401 q 503 498 539 461 q 411 535 468 535 q 317 498 354 535 q 281 401 281 461 l 281 0 l 93 0 l 93 688 l 265 688 l 265 625 q 467 703 343 703 q 656 628 586 703 q 725 426 725 553 m 401 835 l 363 858 q 307 885 326 885 q 268 836 268 885 l 268 819 l 125 819 q 122 865 122 839 q 167 1002 122 950 q 279 1054 211 1054 q 379 1024 332 1054 l 418 999 q 474 974 451 974 q 513 1022 513 974 l 513 1039 l 654 1039 q 658 992 658 1014 q 613 856 658 908 q 500 804 568 804 q 401 835 449 804 z "},"ò":{"ha":844,"x_min":51,"x_max":794,"o":"m 54 344 q 161 599 51 492 q 422 703 271 706 q 684 599 574 706 q 792 344 794 492 q 683 90 794 197 q 421 -15 572 -18 q 160 90 269 -18 q 54 344 51 197 m 549 210 q 575 236 549 210 q 600 343 600 263 q 549 478 600 424 q 422 532 499 532 q 294 478 344 532 q 244 343 244 425 q 294 210 244 263 q 422 157 344 157 q 549 210 499 157 m 356 793 l 165 1050 l 165 1083 l 390 1083 l 492 793 l 356 793 z "},"ó":{"ha":844,"x_min":51,"x_max":794,"o":"m 54 344 q 161 599 51 492 q 422 703 271 706 q 684 599 574 706 q 792 344 794 492 q 683 90 794 197 q 421 -15 572 -18 q 160 90 269 -18 q 54 344 51 197 m 549 210 q 575 236 549 210 q 600 343 600 263 q 549 478 600 424 q 422 532 499 532 q 294 478 344 532 q 244 343 244 425 q 294 210 244 263 q 422 157 344 157 q 549 210 499 157 m 354 793 l 456 1083 l 681 1083 l 681 1050 l 490 793 l 354 793 z "},"ô":{"ha":844,"x_min":51,"x_max":794,"o":"m 54 344 q 161 599 51 492 q 422 703 271 706 q 684 599 574 706 q 792 344 794 492 q 683 90 794 197 q 421 -15 572 -18 q 160 90 269 -18 q 54 344 51 197 m 549 210 q 575 236 549 210 q 600 343 600 263 q 549 478 600 424 q 422 532 499 532 q 294 478 344 532 q 244 343 244 425 q 294 210 244 263 q 422 157 344 157 q 549 210 499 157 m 671 793 l 533 793 l 422 921 l 311 793 l 174 793 l 361 1083 l 485 1083 l 671 793 z "},"õ":{"ha":844,"x_min":51,"x_max":794,"o":"m 54 344 q 161 599 51 492 q 422 703 271 706 q 684 599 574 706 q 792 344 794 492 q 683 90 794 197 q 421 -15 572 -18 q 160 90 269 -18 q 54 344 51 197 m 549 210 q 575 236 549 210 q 600 343 600 263 q 549 478 600 424 q 422 532 499 532 q 294 478 344 532 q 244 343 244 425 q 294 210 244 263 q 422 157 344 157 q 549 210 499 157 m 433 835 l 394 858 q 339 885 358 885 q 300 836 300 885 l 300 819 l 157 819 q 154 865 154 839 q 199 1002 154 950 q 311 1054 243 1054 q 411 1024 364 1054 l 450 999 q 506 974 483 974 q 544 1022 544 974 l 544 1039 l 686 1039 q 690 992 690 1014 q 645 856 690 908 q 532 804 600 804 q 433 835 481 804 z "},"ö":{"ha":844,"x_min":51,"x_max":794,"o":"m 54 344 q 161 599 51 492 q 422 703 271 706 q 684 599 574 706 q 792 344 794 492 q 683 90 794 197 q 421 -15 572 -18 q 160 90 269 -18 q 54 344 51 197 m 549 210 q 575 236 549 210 q 600 343 600 263 q 549 478 600 424 q 422 532 499 532 q 294 478 344 532 q 244 343 244 425 q 294 210 244 263 q 422 157 344 157 q 549 210 499 157 m 178 863 q 161 878 178 863 q 144 939 144 894 q 178 1015 144 983 q 258 1047 211 1047 q 336 1015 303 1047 q 369 939 369 983 q 336 863 369 894 q 258 831 303 831 q 178 863 211 831 m 508 863 q 492 878 508 863 q 475 939 475 894 q 508 1015 475 983 q 589 1047 542 1047 q 667 1015 633 1047 q 700 939 700 983 q 667 863 700 894 q 589 831 633 831 q 508 863 542 831 z "},"÷":{"ha":778,"x_min":61,"x_max":715,"o":"m 274 706 q 307 781 274 750 q 388 811 340 811 q 467 781 433 811 q 500 706 500 750 q 467 628 500 660 q 388 597 433 597 q 307 628 340 597 q 274 706 274 660 m 61 365 l 61 525 l 715 525 l 715 365 l 61 365 m 274 183 q 307 260 274 229 q 388 290 340 290 q 467 260 433 290 q 500 183 500 229 q 467 108 500 139 q 388 76 433 76 q 307 108 340 76 q 274 183 274 139 z "},"ø":{"ha":850,"x_min":42,"x_max":808,"o":"m 808 615 l 735 542 q 794 343 794 453 q 685 88 794 193 q 424 -17 576 -17 q 229 36 319 -17 l 154 -40 l 42 72 l 115 146 q 57 343 57 231 q 165 599 56 492 q 425 703 274 706 q 619 650 529 703 l 696 726 l 808 615 m 232 343 q 249 257 232 294 l 514 524 q 425 544 474 544 q 286 488 340 544 q 232 343 232 432 m 618 343 q 601 429 618 392 l 333 163 q 424 142 374 142 q 563 198 508 142 q 618 343 618 254 z "},"ù":{"ha":806,"x_min":86,"x_max":719,"o":"m 86 303 l 86 688 l 274 688 l 274 288 q 310 192 274 228 q 404 156 347 156 q 496 192 460 156 q 532 288 532 229 l 532 688 l 719 688 l 719 303 q 630 72 719 161 q 404 -17 540 -17 q 176 72 265 -17 q 86 303 86 160 m 336 793 l 146 1050 l 146 1083 l 371 1083 l 472 793 l 336 793 z "},"ú":{"ha":806,"x_min":86,"x_max":719,"o":"m 86 303 l 86 688 l 274 688 l 274 288 q 310 192 274 228 q 404 156 347 156 q 496 192 460 156 q 532 288 532 229 l 532 688 l 719 688 l 719 303 q 630 72 719 161 q 404 -17 540 -17 q 176 72 265 -17 q 86 303 86 160 m 335 793 l 436 1083 l 661 1083 l 661 1050 l 471 793 l 335 793 z "},"û":{"ha":806,"x_min":86,"x_max":719,"o":"m 86 303 l 86 688 l 274 688 l 274 288 q 310 192 274 228 q 404 156 347 156 q 496 192 460 156 q 532 288 532 229 l 532 688 l 719 688 l 719 303 q 630 72 719 161 q 404 -17 540 -17 q 176 72 265 -17 q 86 303 86 160 m 651 793 l 514 793 l 403 921 l 292 793 l 154 793 l 342 1083 l 465 1083 l 651 793 z "},"ü":{"ha":806,"x_min":86,"x_max":719,"o":"m 86 303 l 86 688 l 274 688 l 274 288 q 310 192 274 228 q 404 156 347 156 q 496 192 460 156 q 532 288 532 229 l 532 688 l 719 688 l 719 303 q 630 72 719 161 q 404 -17 540 -17 q 176 72 265 -17 q 86 303 86 160 m 158 863 q 142 878 158 863 q 125 939 125 894 q 158 1015 125 983 q 239 1047 192 1047 q 317 1015 283 1047 q 350 939 350 983 q 317 863 350 894 q 239 831 283 831 q 158 863 192 831 m 489 863 q 472 878 489 863 q 456 939 456 894 q 489 1015 456 983 q 569 1047 522 1047 q 647 1015 614 1047 q 681 939 681 983 q 647 863 681 894 q 569 831 614 831 q 489 863 522 831 z "},"ý":{"ha":776,"x_min":17,"x_max":760,"o":"m 563 688 l 760 688 l 431 -60 q 318 -217 383 -167 q 157 -267 253 -267 q 36 -250 99 -267 l 36 -93 q 117 -99 93 -99 q 203 -78 169 -99 q 260 -6 236 -57 l 281 42 l 17 688 l 215 688 l 383 236 l 563 688 m 319 793 l 421 1083 l 646 1083 l 646 1050 l 456 793 l 319 793 z "},"þ":{"ha":874,"x_min":93,"x_max":819,"o":"m 724 601 q 772 550 724 601 q 819 344 819 499 q 724 87 819 190 q 486 -17 629 -17 q 281 67 357 -17 l 281 -250 l 93 -250 l 93 1042 l 281 1042 l 281 621 q 486 703 356 703 q 724 601 629 703 m 629 343 q 579 481 629 428 q 451 533 529 533 q 327 483 376 533 q 278 344 278 433 q 327 205 278 256 q 451 154 376 154 q 578 207 528 154 q 629 343 629 260 z "},"ÿ":{"ha":776,"x_min":17,"x_max":760,"o":"m 563 688 l 760 688 l 431 -60 q 318 -217 383 -167 q 157 -267 253 -267 q 36 -250 99 -267 l 36 -93 q 117 -99 93 -99 q 203 -78 169 -99 q 260 -6 236 -57 l 281 42 l 17 688 l 215 688 l 383 236 l 563 688 m 143 863 q 126 878 143 863 q 110 939 110 894 q 143 1015 110 983 q 224 1047 176 1047 q 301 1015 268 1047 q 335 939 335 983 q 301 863 335 894 q 224 831 268 831 q 143 863 176 831 m 474 863 q 457 878 474 863 q 440 939 440 894 q 474 1015 440 983 q 554 1047 507 1047 q 632 1015 599 1047 q 665 939 665 983 q 632 863 665 894 q 554 831 599 831 q 474 863 507 831 z "},"Ā":{"ha":918,"x_min":18,"x_max":899,"o":"m 697 0 l 646 119 l 271 119 l 219 0 l 18 0 l 428 933 l 490 933 l 899 0 l 697 0 m 581 274 l 458 583 l 336 274 l 581 274 m 236 1049 l 236 1196 l 683 1196 l 683 1049 l 236 1049 z "},"ā":{"ha":757,"x_min":50,"x_max":669,"o":"m 669 408 l 669 0 l 497 0 l 497 67 q 288 -17 417 -17 q 115 40 179 -17 q 50 189 50 97 q 120 335 50 282 q 310 389 190 389 l 482 389 l 482 419 q 449 509 482 478 q 354 540 417 540 q 261 518 303 540 q 172 446 219 496 l 75 561 q 375 703 194 703 q 590 626 511 703 q 669 408 669 549 m 482 257 l 482 265 l 335 265 q 239 196 239 265 q 266 141 239 161 q 338 121 293 121 q 441 159 400 121 q 482 257 482 197 m 165 864 l 165 1011 l 585 1011 l 585 864 l 165 864 z "},"Ă":{"ha":918,"x_min":18,"x_max":899,"o":"m 697 0 l 646 119 l 271 119 l 219 0 l 18 0 l 428 933 l 490 933 l 899 0 l 697 0 m 581 274 l 458 583 l 336 274 l 581 274 m 219 1243 l 219 1264 l 367 1264 l 367 1243 q 392 1167 367 1196 q 460 1139 417 1139 q 528 1167 503 1139 q 553 1243 553 1194 l 553 1264 l 699 1264 l 699 1243 q 631 1067 699 1136 q 460 999 564 999 q 286 1067 353 999 q 219 1243 219 1136 z "},"ă":{"ha":757,"x_min":50,"x_max":669,"o":"m 669 408 l 669 0 l 497 0 l 497 67 q 288 -17 417 -17 q 115 40 179 -17 q 50 189 50 97 q 120 335 50 282 q 310 389 190 389 l 482 389 l 482 419 q 449 509 482 478 q 354 540 417 540 q 261 518 303 540 q 172 446 219 496 l 75 561 q 375 703 194 703 q 590 626 511 703 q 669 408 669 549 m 482 257 l 482 265 l 335 265 q 239 196 239 265 q 266 141 239 161 q 338 121 293 121 q 441 159 400 121 q 482 257 482 197 m 135 1035 l 135 1074 l 282 1074 l 282 1036 q 307 960 282 988 q 375 932 332 932 q 443 960 418 932 q 468 1036 468 988 l 468 1074 l 614 1074 l 614 1035 q 547 860 614 928 q 375 793 481 793 q 202 861 269 793 q 135 1035 135 929 z "},"Ą":{"ha":918,"x_min":18,"x_max":899,"o":"m 697 0 l 646 119 l 271 119 l 219 0 l 18 0 l 428 933 l 490 933 l 899 0 l 697 0 m 581 274 l 458 583 l 336 274 l 581 274 m 611 -128 q 660 -19 611 -67 q 822 75 710 28 l 899 0 l 843 -35 q 801 -65 813 -53 q 790 -92 790 -76 q 840 -132 790 -132 q 899 -124 856 -132 l 899 -246 q 779 -267 836 -267 q 656 -228 701 -267 q 611 -128 611 -190 z "},"ą":{"ha":757,"x_min":50,"x_max":669,"o":"m 669 408 l 669 0 l 497 0 l 497 67 q 288 -17 417 -17 q 115 40 179 -17 q 50 189 50 97 q 120 335 50 282 q 310 389 190 389 l 482 389 l 482 419 q 449 509 482 478 q 354 540 417 540 q 261 518 303 540 q 172 446 219 496 l 75 561 q 375 703 194 703 q 590 626 511 703 q 669 408 669 549 m 482 257 l 482 265 l 335 265 q 239 196 239 265 q 266 141 239 161 q 338 121 293 121 q 441 159 400 121 q 482 257 482 197 m 382 -128 q 431 -19 382 -67 q 593 75 481 28 l 669 0 l 614 -35 q 572 -65 583 -53 q 561 -92 561 -76 q 611 -132 561 -132 q 669 -124 625 -132 l 669 -246 q 550 -267 607 -267 q 427 -228 472 -267 q 382 -128 382 -190 z "},"Ć":{"ha":1000,"x_min":49,"x_max":946,"o":"m 53 458 q 196 797 50 656 q 542 933 342 938 q 778 873 672 933 q 946 706 885 813 l 804 606 q 542 760 706 760 q 330 674 414 760 q 246 457 246 588 q 330 242 246 326 q 542 157 414 157 q 804 311 706 157 l 946 211 q 779 44 886 104 q 540 -17 672 -17 q 194 120 339 -21 q 53 458 49 261 m 469 1006 l 571 1264 l 796 1264 l 796 1231 l 606 1006 l 469 1006 z "},"ć":{"ha":767,"x_min":51,"x_max":721,"o":"m 54 344 q 161 599 54 494 q 422 703 268 703 q 721 533 625 703 l 590 432 q 425 532 521 532 q 295 478 346 532 q 244 344 244 425 q 295 209 244 263 q 425 156 346 156 q 590 254 521 156 l 721 154 q 598 28 675 74 q 422 -17 521 -17 q 161 88 271 -19 q 54 344 51 196 m 353 793 l 454 1083 l 679 1083 l 679 1050 l 489 793 l 353 793 z "},"Ĉ":{"ha":1000,"x_min":49,"x_max":946,"o":"m 53 458 q 196 797 50 656 q 542 933 342 938 q 778 873 672 933 q 946 706 885 813 l 804 606 q 542 760 706 760 q 330 674 414 760 q 246 457 246 588 q 330 242 246 326 q 542 157 414 157 q 804 311 706 157 l 946 211 q 779 44 886 104 q 540 -17 672 -17 q 194 120 339 -21 q 53 458 49 261 m 808 1006 l 665 1006 l 540 1117 l 415 1006 l 274 1006 l 479 1264 l 603 1264 l 808 1006 z "},"ĉ":{"ha":767,"x_min":51,"x_max":721,"o":"m 54 344 q 161 599 54 494 q 422 703 268 703 q 721 533 625 703 l 590 432 q 425 532 521 532 q 295 478 346 532 q 244 344 244 425 q 295 209 244 263 q 425 156 346 156 q 590 254 521 156 l 721 154 q 598 28 675 74 q 422 -17 521 -17 q 161 88 271 -19 q 54 344 51 196 m 669 793 l 532 793 l 421 921 l 310 793 l 172 793 l 360 1083 l 483 1083 l 669 793 z "},"Ċ":{"ha":1000,"x_min":49,"x_max":946,"o":"m 53 458 q 196 797 50 656 q 542 933 342 938 q 778 873 672 933 q 946 706 885 813 l 804 606 q 542 760 706 760 q 330 674 414 760 q 246 457 246 588 q 330 242 246 326 q 542 157 414 157 q 804 311 706 157 l 946 211 q 779 44 886 104 q 540 -17 672 -17 q 194 120 339 -21 q 53 458 49 261 m 456 1049 q 438 1066 456 1049 q 421 1132 421 1083 q 456 1215 421 1181 q 540 1249 490 1249 q 626 1215 590 1249 q 661 1132 661 1181 q 626 1049 661 1083 q 540 1015 590 1015 q 456 1049 490 1015 z "},"ċ":{"ha":767,"x_min":51,"x_max":721,"o":"m 54 344 q 161 599 54 494 q 422 703 268 703 q 721 533 625 703 l 590 432 q 425 532 521 532 q 295 478 346 532 q 244 344 244 425 q 295 209 244 263 q 425 156 346 156 q 590 254 521 156 l 721 154 q 598 28 675 74 q 422 -17 521 -17 q 161 88 271 -19 q 54 344 51 196 m 300 938 q 335 1021 300 988 q 419 1054 369 1054 q 505 1021 469 1054 q 540 938 540 988 q 505 856 540 889 q 419 822 469 822 q 335 856 369 822 q 300 938 300 889 z "},"Č":{"ha":1000,"x_min":49,"x_max":946,"o":"m 53 458 q 196 797 50 656 q 542 933 342 938 q 778 873 672 933 q 946 706 885 813 l 804 606 q 542 760 706 760 q 330 674 414 760 q 246 457 246 588 q 330 242 246 326 q 542 157 414 157 q 804 311 706 157 l 946 211 q 779 44 886 104 q 540 -17 672 -17 q 194 120 339 -21 q 53 458 49 261 m 665 1264 l 808 1264 l 603 1006 l 479 1006 l 274 1264 l 415 1264 l 540 1153 l 665 1264 z "},"č":{"ha":767,"x_min":51,"x_max":721,"o":"m 54 344 q 161 599 54 494 q 422 703 268 703 q 721 533 625 703 l 590 432 q 425 532 521 532 q 295 478 346 532 q 244 344 244 425 q 295 209 244 263 q 425 156 346 156 q 590 254 521 156 l 721 154 q 598 28 675 74 q 422 -17 521 -17 q 161 88 271 -19 q 54 344 51 196 m 532 1083 l 669 1083 l 483 793 l 360 793 l 172 1083 l 310 1083 l 421 956 l 532 1083 z "},"Ď":{"ha":958,"x_min":106,"x_max":908,"o":"m 106 0 l 106 917 l 406 917 q 767 791 625 919 q 906 461 908 663 q 765 129 908 261 q 406 0 622 -3 l 106 0 m 293 169 l 404 169 q 628 249 543 169 q 713 461 713 329 q 629 671 713 594 q 404 747 546 747 l 293 747 l 293 169 m 513 1264 l 656 1264 l 450 1006 l 326 1006 l 121 1264 l 263 1264 l 388 1153 l 513 1264 z "},"ď":{"ha":1103,"x_min":54,"x_max":1103,"o":"m 593 1042 l 781 1042 l 781 0 l 608 0 l 608 85 q 388 -17 538 -17 q 149 85 243 -17 q 54 343 54 188 q 149 601 54 499 q 388 703 243 703 q 593 621 518 703 l 593 1042 m 547 204 q 571 229 547 204 q 596 343 596 254 q 546 483 596 432 q 422 533 496 533 q 295 481 346 533 q 244 344 244 428 q 294 207 244 260 q 422 154 344 154 q 547 204 497 154 m 903 756 l 910 1042 l 1103 1042 l 1035 756 l 903 756 z "},"Đ":{"ha":958,"x_min":-11,"x_max":908,"o":"m 906 461 q 765 129 908 261 q 406 0 622 -3 l 106 0 l 106 357 l -11 357 l -11 514 l 106 514 l 106 917 l 406 917 q 767 791 625 919 q 906 461 908 663 m 713 461 q 629 671 713 594 q 404 747 546 747 l 293 747 l 293 514 l 443 514 l 443 357 l 293 357 l 293 169 l 404 169 q 628 249 543 169 q 713 461 713 329 z "},"đ":{"ha":883,"x_min":53,"x_max":889,"o":"m 889 919 l 889 768 l 779 768 l 779 0 l 608 0 l 608 88 q 382 -17 531 -17 q 147 78 240 -17 q 53 322 53 174 q 147 565 53 468 q 381 663 242 663 q 593 574 515 663 l 593 768 l 310 768 l 310 919 l 593 919 l 593 1042 l 779 1042 l 779 919 l 889 919 m 596 321 q 546 456 596 407 q 421 504 496 504 q 295 453 346 504 q 244 322 244 403 q 294 192 244 242 q 421 142 344 142 q 546 189 496 142 q 596 321 596 236 z "},"Ē":{"ha":796,"x_min":106,"x_max":739,"o":"m 106 0 l 106 917 l 722 917 l 722 747 l 293 747 l 293 561 l 608 561 l 608 401 l 293 401 l 293 169 l 739 169 l 739 0 l 106 0 m 186 1049 l 186 1196 l 633 1196 l 633 1049 l 186 1049 z "},"ē":{"ha":790,"x_min":51,"x_max":738,"o":"m 725 281 l 243 281 q 310 180 260 215 q 436 144 361 144 q 628 214 538 144 l 706 86 q 431 -17 582 -17 q 162 87 272 -19 q 54 343 51 193 q 158 599 51 492 q 414 703 265 706 q 647 611 556 703 q 738 383 738 519 q 725 281 738 333 m 243 413 l 556 413 q 512 513 554 475 q 407 551 469 551 q 303 514 347 551 q 243 413 258 476 m 204 864 l 204 1011 l 624 1011 l 624 864 l 204 864 z "},"Ĕ":{"ha":796,"x_min":106,"x_max":739,"o":"m 106 0 l 106 917 l 722 917 l 722 747 l 293 747 l 293 561 l 608 561 l 608 401 l 293 401 l 293 169 l 739 169 l 739 0 l 106 0 m 169 1243 l 169 1264 l 317 1264 l 317 1243 q 342 1167 317 1196 q 410 1139 367 1139 q 478 1167 453 1139 q 503 1243 503 1194 l 503 1264 l 649 1264 l 649 1243 q 581 1067 649 1136 q 410 999 514 999 q 236 1067 303 999 q 169 1243 169 1136 z "},"ĕ":{"ha":790,"x_min":51,"x_max":738,"o":"m 725 281 l 243 281 q 310 180 260 215 q 436 144 361 144 q 628 214 538 144 l 706 86 q 431 -17 582 -17 q 162 87 272 -19 q 54 343 51 193 q 158 599 51 492 q 414 703 265 706 q 647 611 556 703 q 738 383 738 519 q 725 281 738 333 m 243 413 l 556 413 q 512 513 554 475 q 407 551 469 551 q 303 514 347 551 q 243 413 258 476 m 174 1035 l 174 1074 l 321 1074 l 321 1036 q 346 960 321 988 q 414 932 371 932 q 482 960 457 932 q 507 1036 507 988 l 507 1074 l 653 1074 l 653 1035 q 586 860 653 928 q 414 793 519 793 q 241 861 308 793 q 174 1035 174 929 z "},"Ė":{"ha":796,"x_min":106,"x_max":739,"o":"m 106 0 l 106 917 l 722 917 l 722 747 l 293 747 l 293 561 l 608 561 l 608 401 l 293 401 l 293 169 l 739 169 l 739 0 l 106 0 m 324 1049 q 306 1066 324 1049 q 289 1132 289 1083 q 324 1215 289 1181 q 408 1249 358 1249 q 494 1215 458 1249 q 529 1132 529 1181 q 494 1049 529 1083 q 408 1015 458 1015 q 324 1049 358 1015 z "},"ė":{"ha":790,"x_min":51,"x_max":738,"o":"m 725 281 l 243 281 q 310 180 260 215 q 436 144 361 144 q 628 214 538 144 l 706 86 q 431 -17 582 -17 q 162 87 272 -19 q 54 343 51 193 q 158 599 51 492 q 414 703 265 706 q 647 611 556 703 q 738 383 738 519 q 725 281 738 333 m 243 413 l 556 413 q 512 513 554 475 q 407 551 469 551 q 303 514 347 551 q 243 413 258 476 m 293 938 q 328 1021 293 988 q 413 1054 363 1054 q 498 1021 463 1054 q 533 938 533 988 q 498 856 533 889 q 413 822 463 822 q 328 856 363 822 q 293 938 293 889 z "},"Ę":{"ha":796,"x_min":106,"x_max":739,"o":"m 106 0 l 106 917 l 722 917 l 722 747 l 293 747 l 293 561 l 608 561 l 608 401 l 293 401 l 293 169 l 739 169 l 739 0 l 106 0 m 451 -128 q 501 -19 451 -67 q 663 75 550 28 l 739 0 l 683 -35 q 642 -65 653 -53 q 631 -92 631 -76 q 681 -132 631 -132 q 739 -124 694 -132 l 739 -246 q 619 -267 676 -267 q 497 -228 542 -267 q 451 -128 451 -190 z "},"ę":{"ha":790,"x_min":51,"x_max":738,"o":"m 725 281 l 243 281 q 310 180 260 215 q 436 144 361 144 q 628 214 538 144 l 706 86 q 431 -17 582 -17 q 162 87 272 -19 q 54 343 51 193 q 158 599 51 492 q 414 703 265 706 q 647 611 556 703 q 738 383 738 519 q 725 281 738 333 m 243 413 l 556 413 q 512 513 554 475 q 407 551 469 551 q 303 514 347 551 q 243 413 258 476 m 375 -128 q 404 -37 375 -76 q 535 86 433 1 l 704 86 l 590 -29 q 554 -92 554 -65 q 604 -132 554 -132 q 663 -124 614 -132 l 663 -246 q 543 -267 604 -267 q 421 -229 467 -267 q 375 -128 375 -192 z "},"Ě":{"ha":796,"x_min":106,"x_max":739,"o":"m 106 0 l 106 917 l 722 917 l 722 747 l 293 747 l 293 561 l 608 561 l 608 401 l 293 401 l 293 169 l 739 169 l 739 0 l 106 0 m 533 1264 l 676 1264 l 471 1006 l 347 1006 l 142 1264 l 283 1264 l 408 1153 l 533 1264 z "},"ě":{"ha":790,"x_min":51,"x_max":738,"o":"m 725 281 l 243 281 q 310 180 260 215 q 436 144 361 144 q 628 214 538 144 l 706 86 q 431 -17 582 -17 q 162 87 272 -19 q 54 343 51 193 q 158 599 51 492 q 414 703 265 706 q 647 611 556 703 q 738 383 738 519 q 725 281 738 333 m 243 413 l 556 413 q 512 513 554 475 q 407 551 469 551 q 303 514 347 551 q 243 413 258 476 m 525 1083 l 663 1083 l 476 793 l 353 793 l 165 1083 l 303 1083 l 414 956 l 525 1083 z "},"Ĝ":{"ha":1038,"x_min":49,"x_max":981,"o":"m 53 458 q 194 796 49 656 q 543 933 339 936 q 929 735 789 933 l 796 625 q 540 760 699 760 q 328 675 410 760 q 246 458 246 590 q 331 238 246 324 q 551 151 415 151 q 793 265 711 151 l 793 340 l 540 340 l 540 503 l 981 503 l 981 232 q 801 51 917 119 q 543 -17 688 -17 q 196 120 342 -21 q 53 458 50 261 m 811 1006 l 668 1006 l 543 1117 l 418 1006 l 276 1006 l 482 1264 l 606 1264 l 811 1006 z "},"ĝ":{"ha":876,"x_min":57,"x_max":783,"o":"m 611 688 l 783 688 l 783 76 q 688 -178 783 -89 q 428 -267 592 -267 q 90 -139 235 -267 l 189 -8 q 413 -97 308 -97 q 547 -56 497 -97 q 596 65 596 -14 l 596 103 q 386 21 521 21 q 150 117 243 21 q 57 363 57 213 q 150 608 57 514 q 386 703 243 703 q 611 601 536 703 l 611 688 m 599 365 q 549 497 599 450 q 425 543 500 543 q 297 494 347 543 q 247 364 247 446 q 298 231 247 282 q 425 179 349 179 q 549 229 499 179 q 599 365 599 279 m 683 793 l 546 793 l 435 921 l 324 793 l 186 793 l 374 1083 l 497 1083 l 683 793 z "},"Ğ":{"ha":1038,"x_min":49,"x_max":981,"o":"m 53 458 q 194 796 49 656 q 543 933 339 936 q 929 735 789 933 l 796 625 q 540 760 699 760 q 328 675 410 760 q 246 458 246 590 q 331 238 246 324 q 551 151 415 151 q 793 265 711 151 l 793 340 l 540 340 l 540 503 l 981 503 l 981 232 q 801 51 917 119 q 543 -17 688 -17 q 196 120 342 -21 q 53 458 50 261 m 304 1243 l 304 1264 l 451 1264 l 451 1243 q 476 1167 451 1196 q 544 1139 501 1139 q 613 1167 588 1139 q 638 1243 638 1194 l 638 1264 l 783 1264 l 783 1243 q 716 1067 783 1136 q 544 999 649 999 q 371 1067 438 999 q 304 1243 304 1136 z "},"ğ":{"ha":876,"x_min":57,"x_max":783,"o":"m 611 688 l 783 688 l 783 76 q 688 -178 783 -89 q 428 -267 592 -267 q 90 -139 235 -267 l 189 -8 q 413 -97 308 -97 q 547 -56 497 -97 q 596 65 596 -14 l 596 103 q 386 21 521 21 q 150 117 243 21 q 57 363 57 213 q 150 608 57 514 q 386 703 243 703 q 611 601 536 703 l 611 688 m 599 365 q 549 497 599 450 q 425 543 500 543 q 297 494 347 543 q 247 364 247 446 q 298 231 247 282 q 425 179 349 179 q 549 229 499 179 q 599 365 599 279 m 194 1035 l 194 1074 l 342 1074 l 342 1036 q 367 960 342 988 q 435 932 392 932 q 503 960 478 932 q 528 1036 528 988 l 528 1074 l 674 1074 l 674 1035 q 607 860 674 928 q 435 793 540 793 q 262 861 329 793 q 194 1035 194 929 z "},"Ġ":{"ha":1038,"x_min":49,"x_max":981,"o":"m 53 458 q 194 796 49 656 q 543 933 339 936 q 929 735 789 933 l 796 625 q 540 760 699 760 q 328 675 410 760 q 246 458 246 590 q 331 238 246 324 q 551 151 415 151 q 793 265 711 151 l 793 340 l 540 340 l 540 503 l 981 503 l 981 232 q 801 51 917 119 q 543 -17 688 -17 q 196 120 342 -21 q 53 458 50 261 m 458 1049 q 441 1066 458 1049 q 424 1132 424 1083 q 458 1215 424 1181 q 543 1249 493 1249 q 628 1215 593 1249 q 664 1132 664 1181 q 628 1049 664 1083 q 543 1015 593 1015 q 458 1049 493 1015 z "},"ġ":{"ha":876,"x_min":57,"x_max":783,"o":"m 611 688 l 783 688 l 783 76 q 688 -178 783 -89 q 428 -267 592 -267 q 90 -139 235 -267 l 189 -8 q 413 -97 308 -97 q 547 -56 497 -97 q 596 65 596 -14 l 596 103 q 386 21 521 21 q 150 117 243 21 q 57 363 57 213 q 150 608 57 514 q 386 703 243 703 q 611 601 536 703 l 611 688 m 599 365 q 549 497 599 450 q 425 543 500 543 q 297 494 347 543 q 247 364 247 446 q 298 231 247 282 q 425 179 349 179 q 549 229 499 179 q 599 365 599 279 m 314 938 q 349 1021 314 988 q 433 1054 383 1054 q 519 1021 483 1054 q 554 938 554 988 q 519 856 554 889 q 433 822 483 822 q 349 856 383 822 q 314 938 314 889 z "},"Ģ":{"ha":1038,"x_min":49,"x_max":981,"o":"m 53 458 q 194 796 49 656 q 543 933 339 936 q 929 735 789 933 l 796 625 q 540 760 699 760 q 328 675 410 760 q 246 458 246 590 q 331 238 246 324 q 551 151 415 151 q 793 265 711 151 l 793 340 l 540 340 l 540 503 l 981 503 l 981 232 q 801 51 917 119 q 543 -17 688 -17 q 196 120 342 -21 q 53 458 50 261 m 454 -306 l 458 -64 l 632 -64 l 596 -306 l 454 -306 z "},"ģ":{"ha":876,"x_min":57,"x_max":783,"o":"m 611 688 l 783 688 l 783 76 q 688 -178 783 -89 q 428 -267 592 -267 q 90 -139 235 -267 l 189 -8 q 413 -97 308 -97 q 547 -56 497 -97 q 596 65 596 -14 l 596 103 q 386 21 521 21 q 150 117 243 21 q 57 363 57 213 q 150 608 57 514 q 386 703 243 703 q 611 601 536 703 l 611 688 m 599 365 q 549 497 599 450 q 425 543 500 543 q 297 494 347 543 q 247 364 247 446 q 298 231 247 282 q 425 179 349 179 q 549 229 499 179 q 599 365 599 279 m 342 793 l 389 1083 l 525 1083 l 518 793 l 342 793 z "},"Ĥ":{"ha":990,"x_min":106,"x_max":886,"o":"m 106 0 l 106 917 l 293 917 l 293 565 l 699 565 l 699 917 l 886 917 l 886 0 l 699 0 l 699 396 l 293 396 l 293 0 l 106 0 m 763 1006 l 619 1006 l 494 1117 l 369 1006 l 228 1006 l 433 1264 l 557 1264 l 763 1006 z "},"ĥ":{"ha":813,"x_min":13,"x_max":725,"o":"m 725 426 l 725 0 l 539 0 l 539 400 q 503 497 539 460 q 411 533 468 533 q 317 497 354 533 q 281 400 281 460 l 281 0 l 93 0 l 93 1042 l 281 1042 l 281 629 q 469 703 354 703 q 656 627 586 703 q 725 426 725 551 m 547 1131 l 404 1131 l 279 1242 l 154 1131 l 13 1131 l 218 1389 l 342 1389 l 547 1131 z "},"Ħ":{"ha":1017,"x_min":-11,"x_max":1026,"o":"m 118 0 l 118 606 l -11 606 l -11 763 l 118 763 l 118 917 l 306 917 l 306 763 l 711 763 l 711 917 l 899 917 l 899 763 l 1026 763 l 1026 606 l 899 606 l 899 0 l 711 0 l 711 297 l 306 297 l 306 0 l 118 0 m 306 458 l 711 458 l 711 606 l 306 606 l 306 458 z "},"ħ":{"ha":824,"x_min":-6,"x_max":736,"o":"m 736 386 l 736 0 l 549 0 l 549 360 q 514 456 549 419 q 422 493 479 493 q 327 456 364 493 q 290 360 290 419 l 290 0 l 104 0 l 104 765 l -6 765 l -6 919 l 104 919 l 104 1042 l 290 1042 l 290 919 l 556 919 l 556 765 l 290 765 l 290 588 q 479 663 361 663 q 666 587 596 663 q 736 386 736 511 z "},"Ĩ":{"ha":397,"x_min":-76,"x_max":476,"o":"m 106 0 l 106 917 l 293 917 l 293 0 l 106 0 m 211 1038 l 169 1060 q 108 1083 129 1083 q 69 1038 69 1083 l 69 1021 l -74 1021 q -76 1068 -76 1063 q -31 1202 -76 1150 q 85 1254 15 1254 q 188 1225 133 1254 l 229 1200 q 292 1176 264 1176 q 331 1224 331 1176 l 331 1240 l 474 1240 q 476 1194 476 1199 q 431 1059 476 1111 q 317 1007 385 1007 q 211 1038 267 1007 z "},"ĩ":{"ha":374,"x_min":-64,"x_max":438,"o":"m 93 0 l 93 688 l 281 688 l 281 0 l 93 0 m 190 840 l 164 861 q 119 885 138 885 q 83 836 83 885 l 83 819 l -60 819 q -64 865 -64 840 q -20 1001 -64 949 q 92 1054 24 1054 q 186 1018 138 1054 l 213 996 q 257 974 244 974 q 292 1022 292 974 l 292 1039 l 435 1039 q 438 992 438 1003 q 395 856 438 907 q 285 804 353 804 q 190 840 242 804 z "},"Ī":{"ha":397,"x_min":-24,"x_max":424,"o":"m 106 0 l 106 917 l 293 917 l 293 0 l 106 0 m -24 1049 l -24 1196 l 424 1196 l 424 1049 l -24 1049 z "},"ī":{"ha":374,"x_min":10,"x_max":365,"o":"m 93 0 l 93 688 l 281 688 l 281 0 l 93 0 m 10 864 l 10 1013 l 365 1013 l 365 864 l 10 864 z "},"Ĭ":{"ha":397,"x_min":-40,"x_max":439,"o":"m 106 0 l 106 917 l 293 917 l 293 0 l 106 0 m -40 1243 l -40 1264 l 107 1264 l 107 1243 q 132 1167 107 1196 q 200 1139 157 1139 q 268 1167 243 1139 q 293 1243 293 1194 l 293 1264 l 439 1264 l 439 1243 q 372 1067 439 1136 q 200 999 304 999 q 26 1067 93 999 q -40 1243 -40 1136 z "},"ĭ":{"ha":374,"x_min":-53,"x_max":426,"o":"m 93 0 l 93 688 l 281 688 l 281 0 l 93 0 m -53 1035 l -53 1074 l 94 1074 l 94 1036 q 119 960 94 988 q 188 932 144 932 q 256 960 231 932 q 281 1036 281 988 l 281 1074 l 426 1074 l 426 1035 q 360 860 426 928 q 188 793 293 793 q 15 861 82 793 q -53 1035 -53 929 z "},"Į":{"ha":397,"x_min":6,"x_max":293,"o":"m 106 0 l 106 917 l 293 917 l 293 0 l 106 0 m 6 -128 q 55 -19 6 -67 q 217 75 104 28 l 293 0 l 238 -35 q 196 -65 207 -53 q 185 -92 185 -76 q 235 -132 185 -132 q 293 -124 250 -132 l 293 -246 q 174 -267 231 -267 q 51 -228 96 -267 q 6 -128 6 -190 z "},"į":{"ha":374,"x_min":-7,"x_max":307,"o":"m 93 0 l 93 688 l 281 688 l 281 0 l 93 0 m 67 938 q 101 1021 67 988 q 186 1054 136 1054 q 272 1021 236 1054 q 307 938 307 988 q 272 856 307 889 q 186 822 236 822 q 101 856 136 822 q 67 938 67 889 m -7 -128 q 42 -19 -7 -67 q 204 75 92 28 l 281 0 l 225 -35 q 183 -65 194 -53 q 172 -92 172 -76 q 222 -132 172 -132 q 281 -124 236 -132 l 281 -246 q 161 -267 218 -267 q 38 -228 83 -267 q -7 -128 -7 -190 z "},"İ":{"ha":397,"x_min":79,"x_max":319,"o":"m 106 0 l 106 917 l 293 917 l 293 0 l 106 0 m 114 1049 q 97 1066 114 1049 q 79 1132 79 1083 q 114 1215 79 1181 q 199 1249 149 1249 q 284 1215 249 1249 q 319 1132 319 1181 q 284 1049 319 1083 q 199 1015 249 1015 q 114 1049 149 1015 z "},"ı":{"ha":374,"x_min":93,"x_max":281,"o":"m 93 0 l 93 688 l 281 688 l 281 0 l 93 0 z "},"Ĳ":{"ha":938,"x_min":106,"x_max":832,"o":"m 106 0 l 106 917 l 293 917 l 293 0 l 106 0 m 421 0 l 421 160 q 513 154 488 154 q 613 180 581 154 q 644 264 644 206 l 644 917 l 832 917 l 832 244 q 760 49 832 115 q 553 -17 689 -17 q 421 0 488 -17 z "},"ĳ":{"ha":747,"x_min":67,"x_max":681,"o":"m 93 0 l 93 688 l 281 688 l 281 0 l 93 0 m 67 938 q 101 1021 67 988 q 186 1054 136 1054 q 272 1021 236 1054 q 307 938 307 988 q 272 856 307 889 q 186 822 236 822 q 101 856 136 822 q 67 938 67 889 m 286 -251 l 286 -94 q 343 -99 319 -99 q 437 -74 407 -99 q 467 8 467 -49 l 467 688 l 654 688 l 654 -8 q 585 -201 654 -135 q 390 -267 515 -267 q 286 -251 336 -267 m 440 938 q 475 1021 440 988 q 560 1054 510 1054 q 645 1021 610 1054 q 681 938 681 988 q 645 856 681 889 q 560 822 610 822 q 475 856 510 822 q 440 938 440 889 z "},"Ĵ":{"ha":540,"x_min":24,"x_max":583,"o":"m 24 0 l 24 160 q 115 154 90 154 q 215 180 183 154 q 247 264 247 206 l 247 917 l 435 917 l 435 244 q 363 49 435 115 q 156 -17 292 -17 q 24 0 90 -17 m 583 1006 l 440 1006 l 315 1117 l 190 1006 l 49 1006 l 254 1264 l 378 1264 l 583 1006 z "},"ĵ":{"ha":374,"x_min":-87,"x_max":436,"o":"m -87 -251 l -87 -94 q -31 -99 -54 -99 q 63 -74 33 -99 q 93 8 93 -49 l 93 688 l 281 688 l 281 -8 q 211 -201 281 -135 q 17 -267 142 -267 q -87 -251 -37 -267 m 436 793 l 299 793 l 188 921 l 76 793 l -61 793 l 126 1083 l 250 1083 l 436 793 z "},"Ķ":{"ha":931,"x_min":106,"x_max":913,"o":"m 913 0 l 686 0 l 293 478 l 293 0 l 106 0 l 106 917 l 293 917 l 293 492 l 643 917 l 867 917 l 515 485 l 913 0 m 354 -306 l 358 -64 l 532 -64 l 496 -306 l 354 -306 z "},"ķ":{"ha":778,"x_min":93,"x_max":771,"o":"m 771 0 l 557 0 l 281 381 l 281 0 l 93 0 l 93 1042 l 281 1042 l 281 394 l 528 688 l 750 688 l 492 383 l 771 0 m 304 -306 l 308 -64 l 482 -64 l 446 -306 l 304 -306 z "},"Ĺ":{"ha":728,"x_min":106,"x_max":694,"o":"m 106 0 l 106 917 l 293 917 l 293 169 l 694 169 l 694 0 l 106 0 m 125 1006 l 226 1264 l 451 1264 l 451 1231 l 261 1006 l 125 1006 z "},"ĺ":{"ha":374,"x_min":93,"x_max":440,"o":"m 93 0 l 93 1042 l 281 1042 l 281 0 l 93 0 m 114 1131 l 215 1389 l 440 1389 l 440 1356 l 250 1131 l 114 1131 z "},"Ļ":{"ha":728,"x_min":106,"x_max":694,"o":"m 106 0 l 106 917 l 293 917 l 293 169 l 694 169 l 694 0 l 106 0 m 303 -306 l 307 -64 l 481 -64 l 444 -306 l 303 -306 z "},"ļ":{"ha":374,"x_min":93,"x_max":281,"o":"m 93 0 l 93 1042 l 281 1042 l 281 0 l 93 0 m 97 -306 l 101 -64 l 275 -64 l 239 -306 l 97 -306 z "},"Ľ":{"ha":728,"x_min":106,"x_max":700,"o":"m 106 0 l 106 917 l 293 917 l 293 169 l 694 169 l 694 0 l 106 0 m 500 714 l 507 1000 l 700 1000 l 632 714 l 500 714 z "},"ľ":{"ha":603,"x_min":93,"x_max":603,"o":"m 93 0 l 93 1042 l 281 1042 l 281 0 l 93 0 m 403 756 l 410 1042 l 603 1042 l 535 756 l 403 756 z "},"Ŀ":{"ha":728,"x_min":106,"x_max":697,"o":"m 106 0 l 106 917 l 293 917 l 293 169 l 694 169 l 694 0 l 106 0 m 439 525 q 476 617 439 579 q 569 654 514 654 q 660 617 624 654 q 697 525 697 579 q 661 433 697 469 q 569 396 625 396 q 476 433 514 396 q 439 525 439 469 z "},"ŀ":{"ha":564,"x_min":93,"x_max":597,"o":"m 93 0 l 93 1042 l 281 1042 l 281 0 l 93 0 m 339 444 q 376 536 339 499 q 469 574 414 574 q 560 536 524 574 q 597 444 597 499 q 561 352 597 389 q 469 315 525 315 q 376 352 414 315 q 339 444 339 389 z "},"Ł":{"ha":728,"x_min":6,"x_max":694,"o":"m 293 169 l 694 169 l 694 0 l 106 0 l 106 285 l 6 239 l 6 411 l 106 457 l 106 917 l 293 917 l 293 532 l 569 657 l 569 483 l 293 358 l 293 169 z "},"ł":{"ha":460,"x_min":26,"x_max":431,"o":"m 431 649 l 431 475 l 319 424 l 319 0 l 132 0 l 132 351 l 26 303 l 26 476 l 132 525 l 132 1042 l 319 1042 l 319 597 l 431 649 z "},"Ń":{"ha":990,"x_min":106,"x_max":886,"o":"m 699 917 l 886 917 l 886 -17 l 824 -17 l 293 550 l 293 0 l 106 0 l 106 933 l 167 933 l 699 369 l 699 917 m 422 1006 l 524 1264 l 749 1264 l 749 1231 l 558 1006 l 422 1006 z "},"ń":{"ha":813,"x_min":93,"x_max":725,"o":"m 725 426 l 725 0 l 539 0 l 539 401 q 503 498 539 461 q 411 535 468 535 q 317 498 354 535 q 281 401 281 461 l 281 0 l 93 0 l 93 688 l 265 688 l 265 625 q 467 703 343 703 q 656 628 586 703 q 725 426 725 553 m 322 793 l 424 1083 l 649 1083 l 649 1050 l 458 793 l 322 793 z "},"Ņ":{"ha":990,"x_min":106,"x_max":886,"o":"m 699 917 l 886 917 l 886 -17 l 824 -17 l 293 550 l 293 0 l 106 0 l 106 933 l 167 933 l 699 369 l 699 917 m 406 -306 l 410 -64 l 583 -64 l 547 -306 l 406 -306 z "},"ņ":{"ha":813,"x_min":93,"x_max":725,"o":"m 725 426 l 725 0 l 539 0 l 539 401 q 503 498 539 461 q 411 535 468 535 q 317 498 354 535 q 281 401 281 461 l 281 0 l 93 0 l 93 688 l 265 688 l 265 625 q 467 703 343 703 q 656 628 586 703 q 725 426 725 553 m 322 -306 l 326 -64 l 500 -64 l 464 -306 l 322 -306 z "},"Ň":{"ha":990,"x_min":106,"x_max":886,"o":"m 699 917 l 886 917 l 886 -17 l 824 -17 l 293 550 l 293 0 l 106 0 l 106 933 l 167 933 l 699 369 l 699 917 m 619 1264 l 763 1264 l 557 1006 l 433 1006 l 228 1264 l 369 1264 l 494 1153 l 619 1264 z "},"ň":{"ha":813,"x_min":93,"x_max":725,"o":"m 725 426 l 725 0 l 539 0 l 539 401 q 503 498 539 461 q 411 535 468 535 q 317 498 354 535 q 281 401 281 461 l 281 0 l 93 0 l 93 688 l 265 688 l 265 625 q 467 703 343 703 q 656 628 586 703 q 725 426 725 553 m 501 1083 l 639 1083 l 453 793 l 329 793 l 142 1083 l 279 1083 l 390 956 l 501 1083 z "},"Ŋ":{"ha":990,"x_min":106,"x_max":886,"o":"m 699 917 l 886 917 l 886 -8 q 817 -201 886 -136 q 621 -267 747 -267 q 518 -251 568 -267 l 518 -94 q 575 -99 551 -99 q 669 -74 639 -99 q 699 8 699 -49 l 699 31 l 293 517 l 293 0 l 106 0 l 106 933 l 167 933 l 699 304 l 699 917 z "},"ŋ":{"ha":813,"x_min":93,"x_max":725,"o":"m 725 426 l 725 -8 q 656 -201 725 -136 q 461 -267 588 -267 q 358 -251 408 -267 l 358 -94 q 414 -99 389 -99 q 509 -74 479 -99 q 539 8 539 -49 l 539 400 q 503 497 539 460 q 411 533 468 533 q 317 497 354 533 q 281 400 281 460 l 281 0 l 93 0 l 93 688 l 265 688 l 265 625 q 467 703 343 703 q 656 628 586 703 q 725 426 725 553 z "},"Ō":{"ha":1081,"x_min":50,"x_max":1031,"o":"m 53 458 q 195 796 50 654 q 539 933 340 938 q 884 796 738 938 q 1028 458 1031 654 q 884 121 1031 263 q 539 -17 738 -21 q 195 121 340 -21 q 53 458 50 263 m 835 458 q 751 674 835 589 q 540 760 667 760 q 329 675 413 760 q 246 458 246 590 q 329 242 246 326 q 540 157 413 157 q 751 242 667 157 q 835 458 835 326 m 317 1049 l 317 1196 l 764 1196 l 764 1049 l 317 1049 z "},"ō":{"ha":844,"x_min":51,"x_max":794,"o":"m 54 344 q 161 599 51 492 q 422 703 271 706 q 684 599 574 706 q 792 344 794 492 q 683 90 794 197 q 421 -15 572 -18 q 160 90 269 -18 q 54 344 51 197 m 549 210 q 575 236 549 210 q 600 343 600 263 q 549 478 600 424 q 422 532 499 532 q 294 478 344 532 q 244 343 244 425 q 294 210 244 263 q 422 157 344 157 q 549 210 499 157 m 213 864 l 213 1011 l 632 1011 l 632 864 l 213 864 z "},"Ŏ":{"ha":1081,"x_min":50,"x_max":1031,"o":"m 53 458 q 195 796 50 654 q 539 933 340 938 q 884 796 738 938 q 1028 458 1031 654 q 884 121 1031 263 q 539 -17 738 -21 q 195 121 340 -21 q 53 458 50 263 m 835 458 q 751 674 835 589 q 540 760 667 760 q 329 675 413 760 q 246 458 246 590 q 329 242 246 326 q 540 157 413 157 q 751 242 667 157 q 835 458 835 326 m 300 1243 l 300 1264 l 447 1264 l 447 1243 q 472 1167 447 1196 q 540 1139 497 1139 q 608 1167 583 1139 q 633 1243 633 1194 l 633 1264 l 779 1264 l 779 1243 q 712 1067 779 1136 q 540 999 644 999 q 367 1067 433 999 q 300 1243 300 1136 z "},"ŏ":{"ha":844,"x_min":51,"x_max":794,"o":"m 54 344 q 161 599 51 492 q 422 703 271 706 q 684 599 574 706 q 792 344 794 492 q 683 90 794 197 q 421 -15 572 -18 q 160 90 269 -18 q 54 344 51 197 m 549 210 q 575 236 549 210 q 600 343 600 263 q 549 478 600 424 q 422 532 499 532 q 294 478 344 532 q 244 343 244 425 q 294 210 244 263 q 422 157 344 157 q 549 210 499 157 m 182 1035 l 182 1074 l 329 1074 l 329 1036 q 354 960 329 988 q 422 932 379 932 q 490 960 465 932 q 515 1036 515 988 l 515 1074 l 661 1074 l 661 1035 q 594 860 661 928 q 422 793 528 793 q 249 861 317 793 q 182 1035 182 929 z "},"Ő":{"ha":1081,"x_min":50,"x_max":1031,"o":"m 53 458 q 195 796 50 654 q 539 933 340 938 q 884 796 738 938 q 1028 458 1031 654 q 884 121 1031 263 q 539 -17 738 -21 q 195 121 340 -21 q 53 458 50 263 m 835 458 q 751 674 835 589 q 540 760 667 760 q 329 675 413 760 q 246 458 246 590 q 329 242 246 326 q 540 157 413 157 q 751 242 667 157 q 835 458 835 326 m 296 1006 l 397 1264 l 592 1264 l 592 1231 l 422 1006 l 296 1006 m 625 1006 l 726 1264 l 921 1264 l 921 1231 l 751 1006 l 625 1006 z "},"ő":{"ha":844,"x_min":51,"x_max":800,"o":"m 54 344 q 161 599 51 492 q 422 703 271 706 q 684 599 574 706 q 792 344 794 492 q 683 90 794 197 q 421 -15 572 -18 q 160 90 269 -18 q 54 344 51 197 m 549 210 q 575 236 549 210 q 600 343 600 263 q 549 478 600 424 q 422 532 499 532 q 294 478 344 532 q 244 343 244 425 q 294 210 244 263 q 422 157 344 157 q 549 210 499 157 m 203 793 l 304 1083 l 499 1083 l 499 1050 l 329 793 l 203 793 m 504 793 l 606 1083 l 800 1083 l 800 1050 l 631 793 l 504 793 z "},"Œ":{"ha":1525,"x_min":49,"x_max":1468,"o":"m 1022 169 l 1468 169 l 1468 0 l 835 0 l 835 96 q 538 -17 722 -17 q 192 120 336 -19 q 53 458 49 260 q 193 797 50 657 q 539 933 336 936 q 835 821 722 933 l 835 917 l 1451 917 l 1451 747 l 1022 747 l 1022 561 l 1339 561 l 1339 401 l 1022 401 l 1022 169 m 751 242 q 793 284 751 242 q 835 457 835 326 q 751 674 835 588 q 539 760 667 760 q 329 674 413 760 q 246 457 246 589 q 328 242 246 326 q 539 157 411 157 q 751 242 667 157 z "},"œ":{"ha":1308,"x_min":51,"x_max":1256,"o":"m 1243 279 l 768 279 q 956 144 803 144 q 1146 214 1056 144 l 1224 86 q 951 -17 1104 -17 q 676 110 776 -17 q 418 -17 581 -17 q 160 88 269 -19 q 54 343 51 196 q 161 599 51 492 q 418 703 271 706 q 675 578 585 703 q 936 703 774 703 q 1165 610 1074 703 q 1256 383 1256 517 q 1243 279 1256 331 m 767 411 l 1074 411 q 1031 513 1072 474 q 926 551 989 551 q 824 514 867 551 q 767 411 781 476 m 590 343 q 543 478 590 425 q 421 532 496 532 q 294 478 344 532 q 244 343 244 425 q 294 208 244 261 q 421 156 344 156 q 543 209 496 156 q 590 343 590 263 z "},"Ŕ":{"ha":889,"x_min":106,"x_max":879,"o":"m 879 0 l 668 0 l 431 324 l 293 324 l 293 0 l 106 0 l 106 917 l 450 917 q 688 835 594 917 q 781 621 781 753 q 738 466 781 535 q 619 360 696 397 l 879 0 m 293 751 l 293 489 l 450 489 q 552 525 515 489 q 589 621 589 561 q 551 715 589 679 q 450 751 513 751 l 293 751 m 294 1006 l 396 1264 l 621 1264 l 621 1231 l 431 1006 l 294 1006 z "},"ŕ":{"ha":539,"x_min":93,"x_max":524,"o":"m 515 688 l 515 522 l 465 522 q 330 476 379 522 q 281 343 281 431 l 281 0 l 93 0 l 93 688 l 265 688 l 265 606 q 454 696 338 696 q 515 688 489 696 m 197 793 l 299 1083 l 524 1083 l 524 1050 l 333 793 l 197 793 z "},"Ŗ":{"ha":889,"x_min":106,"x_max":879,"o":"m 879 0 l 668 0 l 431 324 l 293 324 l 293 0 l 106 0 l 106 917 l 450 917 q 688 835 594 917 q 781 621 781 753 q 738 466 781 535 q 619 360 696 397 l 879 0 m 293 751 l 293 489 l 450 489 q 552 525 515 489 q 589 621 589 561 q 551 715 589 679 q 450 751 513 751 l 293 751 m 364 -306 l 368 -64 l 542 -64 l 506 -306 l 364 -306 z "},"ŗ":{"ha":539,"x_min":93,"x_max":515,"o":"m 515 688 l 515 522 l 465 522 q 330 476 379 522 q 281 343 281 431 l 281 0 l 93 0 l 93 688 l 265 688 l 265 606 q 454 696 338 696 q 515 688 489 696 m 97 -306 l 101 -64 l 275 -64 l 239 -306 l 97 -306 z "},"Ř":{"ha":889,"x_min":99,"x_max":879,"o":"m 879 0 l 668 0 l 431 324 l 293 324 l 293 0 l 106 0 l 106 917 l 450 917 q 688 835 594 917 q 781 621 781 753 q 738 466 781 535 q 619 360 696 397 l 879 0 m 293 751 l 293 489 l 450 489 q 552 525 515 489 q 589 621 589 561 q 551 715 589 679 q 450 751 513 751 l 293 751 m 490 1264 l 633 1264 l 428 1006 l 304 1006 l 99 1264 l 240 1264 l 365 1153 l 490 1264 z "},"ř":{"ha":539,"x_min":17,"x_max":515,"o":"m 515 688 l 515 522 l 465 522 q 330 476 379 522 q 281 343 281 431 l 281 0 l 93 0 l 93 688 l 265 688 l 265 606 q 454 696 338 696 q 515 688 489 696 m 376 1083 l 514 1083 l 328 793 l 204 793 l 17 1083 l 154 1083 l 265 956 l 376 1083 z "},"Ś":{"ha":776,"x_min":42,"x_max":717,"o":"m 42 186 l 171 283 q 396 150 268 150 q 492 177 457 150 q 526 251 526 204 q 503 312 526 290 q 410 365 479 333 l 311 410 q 89 674 89 508 q 175 862 89 790 q 393 933 261 933 q 574 887 496 933 q 696 760 651 840 l 568 661 q 393 767 497 767 q 311 743 343 767 q 279 678 279 719 q 302 622 279 643 q 386 572 325 600 l 490 526 q 663 412 608 474 q 717 258 717 350 q 626 59 717 135 q 396 -17 536 -17 q 188 38 281 -17 q 42 186 96 92 m 317 1006 l 418 1264 l 643 1264 l 643 1231 l 453 1006 l 317 1006 z "},"ś":{"ha":632,"x_min":31,"x_max":583,"o":"m 31 117 l 125 231 q 318 138 214 138 q 381 152 357 138 q 406 194 406 167 q 391 227 406 215 q 335 257 376 239 l 261 288 q 118 376 163 328 q 74 497 74 424 q 143 648 74 593 q 326 703 213 703 q 574 600 479 703 l 479 485 q 325 550 410 550 q 251 501 251 550 q 267 469 251 482 q 324 440 282 457 l 390 413 q 538 324 493 371 q 583 203 583 276 q 507 42 583 100 q 315 -17 432 -17 q 31 117 131 -17 m 254 793 l 356 1083 l 581 1083 l 581 1050 l 390 793 l 254 793 z "},"Ŝ":{"ha":776,"x_min":42,"x_max":717,"o":"m 42 186 l 171 283 q 396 150 268 150 q 492 177 457 150 q 526 251 526 204 q 503 312 526 290 q 410 365 479 333 l 311 410 q 89 674 89 508 q 175 862 89 790 q 393 933 261 933 q 574 887 496 933 q 696 760 651 840 l 568 661 q 393 767 497 767 q 311 743 343 767 q 279 678 279 719 q 302 622 279 643 q 386 572 325 600 l 490 526 q 663 412 608 474 q 717 258 717 350 q 626 59 717 135 q 396 -17 536 -17 q 188 38 281 -17 q 42 186 96 92 m 657 1006 l 514 1006 l 389 1117 l 264 1006 l 122 1006 l 328 1264 l 451 1264 l 657 1006 z "},"ŝ":{"ha":632,"x_min":31,"x_max":583,"o":"m 31 117 l 125 231 q 318 138 214 138 q 381 152 357 138 q 406 194 406 167 q 391 227 406 215 q 335 257 376 239 l 261 288 q 118 376 163 328 q 74 497 74 424 q 143 648 74 593 q 326 703 213 703 q 574 600 479 703 l 479 485 q 325 550 410 550 q 251 501 251 550 q 267 469 251 482 q 324 440 282 457 l 390 413 q 538 324 493 371 q 583 203 583 276 q 507 42 583 100 q 315 -17 432 -17 q 31 117 131 -17 m 571 793 l 433 793 l 322 921 l 211 793 l 74 793 l 261 1083 l 385 1083 l 571 793 z "},"Ş":{"ha":776,"x_min":42,"x_max":717,"o":"m 42 186 l 171 283 q 396 150 268 150 q 492 177 457 150 q 526 251 526 204 q 503 312 526 290 q 410 365 479 333 l 311 410 q 89 674 89 508 q 175 862 89 790 q 393 933 261 933 q 574 887 496 933 q 696 760 651 840 l 568 661 q 393 767 497 767 q 311 743 343 767 q 279 678 279 719 q 302 622 279 643 q 386 572 325 600 l 490 526 q 663 412 608 474 q 717 258 717 350 q 626 59 717 135 q 396 -17 536 -17 q 188 38 281 -17 q 42 186 96 92 m 200 -253 l 200 -129 q 283 -132 247 -132 q 369 -53 369 -132 q 351 28 369 -14 l 425 61 q 518 -90 518 10 q 460 -217 518 -168 q 303 -267 401 -267 q 200 -253 246 -267 z "},"ş":{"ha":632,"x_min":31,"x_max":583,"o":"m 31 117 l 125 231 q 318 138 214 138 q 381 152 357 138 q 406 194 406 167 q 391 227 406 215 q 335 257 376 239 l 261 288 q 118 376 163 328 q 74 497 74 424 q 143 648 74 593 q 326 703 213 703 q 574 600 479 703 l 479 485 q 325 550 410 550 q 251 501 251 550 q 267 469 251 482 q 324 440 282 457 l 390 413 q 538 324 493 371 q 583 203 583 276 q 507 42 583 100 q 315 -17 432 -17 q 31 117 131 -17 m 138 -253 l 138 -129 q 221 -132 185 -132 q 307 -53 307 -132 q 289 28 307 -14 l 363 61 q 456 -90 456 10 q 397 -217 456 -168 q 240 -267 339 -267 q 138 -253 183 -267 z "},"Š":{"ha":776,"x_min":42,"x_max":717,"o":"m 42 186 l 171 283 q 396 150 268 150 q 492 177 457 150 q 526 251 526 204 q 503 312 526 290 q 410 365 479 333 l 311 410 q 89 674 89 508 q 175 862 89 790 q 393 933 261 933 q 574 887 496 933 q 696 760 651 840 l 568 661 q 393 767 497 767 q 311 743 343 767 q 279 678 279 719 q 302 622 279 643 q 386 572 325 600 l 490 526 q 663 412 608 474 q 717 258 717 350 q 626 59 717 135 q 396 -17 536 -17 q 188 38 281 -17 q 42 186 96 92 m 514 1264 l 657 1264 l 451 1006 l 328 1006 l 122 1264 l 264 1264 l 389 1153 l 514 1264 z "},"š":{"ha":632,"x_min":31,"x_max":583,"o":"m 31 117 l 125 231 q 318 138 214 138 q 381 152 357 138 q 406 194 406 167 q 391 227 406 215 q 335 257 376 239 l 261 288 q 118 376 163 328 q 74 497 74 424 q 143 648 74 593 q 326 703 213 703 q 574 600 479 703 l 479 485 q 325 550 410 550 q 251 501 251 550 q 267 469 251 482 q 324 440 282 457 l 390 413 q 538 324 493 371 q 583 203 583 276 q 507 42 583 100 q 315 -17 432 -17 q 31 117 131 -17 m 433 1083 l 571 1083 l 385 793 l 261 793 l 74 1083 l 211 1083 l 322 956 l 433 1083 z "},"Ţ":{"ha":813,"x_min":19,"x_max":794,"o":"m 313 0 l 313 747 l 19 747 l 19 917 l 794 917 l 794 747 l 500 747 l 500 0 l 313 0 m 211 -253 l 211 -129 q 294 -132 258 -132 q 381 -53 381 -132 q 363 28 381 -14 l 436 61 q 529 -90 529 10 q 471 -217 529 -168 q 314 -267 413 -267 q 211 -253 257 -267 z "},"ţ":{"ha":578,"x_min":22,"x_max":535,"o":"m 535 157 l 535 0 q 406 -17 468 -17 q 202 49 274 -17 q 131 242 131 114 l 131 529 l 22 529 l 22 688 l 131 688 l 131 861 l 318 861 l 318 688 l 513 688 l 513 529 l 318 529 l 318 258 q 348 176 318 200 q 446 151 378 151 q 535 157 469 151 m 124 -253 l 124 -129 q 207 -132 171 -132 q 293 -53 293 -132 q 275 28 293 -14 l 349 61 q 442 -90 442 10 q 383 -217 442 -168 q 226 -267 325 -267 q 124 -253 169 -267 z "},"Ť":{"ha":813,"x_min":19,"x_max":794,"o":"m 313 0 l 313 747 l 19 747 l 19 917 l 794 917 l 794 747 l 500 747 l 500 0 l 313 0 m 531 1264 l 674 1264 l 468 1006 l 344 1006 l 139 1264 l 281 1264 l 406 1153 l 531 1264 z "},"ť":{"ha":578,"x_min":22,"x_max":638,"o":"m 535 157 l 535 0 q 406 -17 468 -17 q 202 49 274 -17 q 131 242 131 114 l 131 529 l 22 529 l 22 688 l 131 688 l 131 861 l 318 861 l 318 688 l 513 688 l 513 529 l 318 529 l 318 258 q 348 176 318 200 q 446 151 378 151 q 535 157 469 151 m 438 756 l 444 1042 l 638 1042 l 569 756 l 438 756 z "},"Ŧ":{"ha":813,"x_min":19,"x_max":794,"o":"m 313 0 l 313 315 l 68 315 l 68 472 l 313 472 l 313 747 l 19 747 l 19 917 l 794 917 l 794 747 l 500 747 l 500 472 l 744 472 l 744 315 l 500 315 l 500 0 l 313 0 z "},"ŧ":{"ha":599,"x_min":35,"x_max":547,"o":"m 547 157 l 547 0 q 419 -17 483 -17 q 216 49 288 -17 q 144 242 144 114 l 144 274 l 35 274 l 35 424 l 144 424 l 144 538 l 35 538 l 35 688 l 144 688 l 144 861 l 331 861 l 331 688 l 526 688 l 526 538 l 331 538 l 331 424 l 526 424 l 526 274 l 331 274 l 331 258 q 360 176 331 200 q 458 151 390 151 q 547 157 482 151 z "},"Ũ":{"ha":972,"x_min":97,"x_max":875,"o":"m 97 379 l 97 917 l 285 917 l 285 365 q 340 212 285 267 q 486 157 396 157 q 633 212 578 157 q 688 365 688 267 l 688 917 l 875 917 l 875 379 q 765 92 875 200 q 486 -17 656 -17 q 206 92 315 -17 q 97 379 97 200 m 497 1038 l 456 1060 q 394 1083 415 1083 q 356 1038 356 1083 l 356 1021 l 213 1021 q 210 1068 210 1063 q 256 1202 210 1150 q 371 1254 301 1254 q 474 1225 419 1254 l 515 1200 q 578 1176 550 1176 q 617 1224 617 1176 l 617 1240 l 760 1240 q 763 1194 763 1199 q 717 1059 763 1111 q 603 1007 671 1007 q 497 1038 553 1007 z "},"ũ":{"ha":806,"x_min":86,"x_max":719,"o":"m 86 303 l 86 688 l 274 688 l 274 288 q 310 192 274 228 q 404 156 347 156 q 496 192 460 156 q 532 288 532 229 l 532 688 l 719 688 l 719 303 q 630 72 719 161 q 404 -17 540 -17 q 176 72 265 -17 q 86 303 86 160 m 414 835 l 375 858 q 319 885 339 885 q 281 836 281 885 l 281 819 l 138 819 q 135 865 135 839 q 179 1002 135 950 q 292 1054 224 1054 q 392 1024 344 1054 l 431 999 q 486 974 464 974 q 525 1022 525 974 l 525 1039 l 667 1039 q 671 992 671 1014 q 626 856 671 908 q 513 804 581 804 q 414 835 461 804 z "},"Ū":{"ha":972,"x_min":97,"x_max":875,"o":"m 97 379 l 97 917 l 285 917 l 285 365 q 340 212 285 267 q 486 157 396 157 q 633 212 578 157 q 688 365 688 267 l 688 917 l 875 917 l 875 379 q 765 92 875 200 q 486 -17 656 -17 q 206 92 315 -17 q 97 379 97 200 m 263 1049 l 263 1196 l 710 1196 l 710 1049 l 263 1049 z "},"ū":{"ha":806,"x_min":86,"x_max":719,"o":"m 86 303 l 86 688 l 274 688 l 274 288 q 310 192 274 228 q 404 156 347 156 q 496 192 460 156 q 532 288 532 229 l 532 688 l 719 688 l 719 303 q 630 72 719 161 q 404 -17 540 -17 q 176 72 265 -17 q 86 303 86 160 m 193 864 l 193 1011 l 613 1011 l 613 864 l 193 864 z "},"Ŭ":{"ha":972,"x_min":97,"x_max":875,"o":"m 97 379 l 97 917 l 285 917 l 285 365 q 340 212 285 267 q 486 157 396 157 q 633 212 578 157 q 688 365 688 267 l 688 917 l 875 917 l 875 379 q 765 92 875 200 q 486 -17 656 -17 q 206 92 315 -17 q 97 379 97 200 m 246 1243 l 246 1264 l 393 1264 l 393 1243 q 418 1167 393 1196 q 486 1139 443 1139 q 554 1167 529 1139 q 579 1243 579 1194 l 579 1264 l 725 1264 l 725 1243 q 658 1067 725 1136 q 486 999 590 999 q 313 1067 379 999 q 246 1243 246 1136 z "},"ŭ":{"ha":806,"x_min":86,"x_max":719,"o":"m 86 303 l 86 688 l 274 688 l 274 288 q 310 192 274 228 q 404 156 347 156 q 496 192 460 156 q 532 288 532 229 l 532 688 l 719 688 l 719 303 q 630 72 719 161 q 404 -17 540 -17 q 176 72 265 -17 q 86 303 86 160 m 163 1035 l 163 1074 l 310 1074 l 310 1036 q 335 960 310 988 q 403 932 360 932 q 471 960 446 932 q 496 1036 496 988 l 496 1074 l 642 1074 l 642 1035 q 575 860 642 928 q 403 793 508 793 q 230 861 297 793 q 163 1035 163 929 z "},"Ů":{"ha":972,"x_min":97,"x_max":875,"o":"m 97 379 l 97 917 l 285 917 l 285 365 q 340 212 285 267 q 486 157 396 157 q 633 212 578 157 q 688 365 688 267 l 688 917 l 875 917 l 875 379 q 765 92 875 200 q 486 -17 656 -17 q 206 92 315 -17 q 97 379 97 200 m 310 1108 q 360 1228 310 1179 q 485 1276 410 1276 q 610 1228 560 1276 q 661 1108 661 1179 q 610 987 661 1036 q 485 938 560 938 q 360 987 410 938 q 310 1108 310 1036 m 543 1108 q 526 1149 543 1132 q 486 1165 510 1165 q 445 1149 461 1165 q 429 1108 429 1132 q 445 1067 429 1083 q 486 1050 461 1050 q 526 1067 510 1050 q 543 1108 543 1083 z "},"ů":{"ha":806,"x_min":86,"x_max":719,"o":"m 86 303 l 86 688 l 274 688 l 274 288 q 310 192 274 228 q 404 156 347 156 q 496 192 460 156 q 532 288 532 229 l 532 688 l 719 688 l 719 303 q 630 72 719 161 q 404 -17 540 -17 q 176 72 265 -17 q 86 303 86 160 m 226 932 q 276 1053 226 1004 q 401 1101 326 1101 q 528 1053 478 1101 q 578 932 578 1006 q 528 810 578 858 q 401 761 478 761 q 276 810 326 761 q 226 932 226 858 m 460 932 q 443 973 460 957 q 403 989 426 989 q 363 973 379 989 q 346 932 346 957 q 362 891 346 907 q 403 875 378 875 q 443 892 426 875 q 460 932 460 908 z "},"Ű":{"ha":972,"x_min":97,"x_max":875,"o":"m 97 379 l 97 917 l 285 917 l 285 365 q 340 212 285 267 q 486 157 396 157 q 633 212 578 157 q 688 365 688 267 l 688 917 l 875 917 l 875 379 q 765 92 875 200 q 486 -17 656 -17 q 206 92 315 -17 q 97 379 97 200 m 242 1006 l 343 1264 l 538 1264 l 538 1231 l 368 1006 l 242 1006 m 571 1006 l 672 1264 l 867 1264 l 867 1231 l 697 1006 l 571 1006 z "},"ű":{"ha":806,"x_min":86,"x_max":781,"o":"m 86 303 l 86 688 l 274 688 l 274 288 q 310 192 274 228 q 404 156 347 156 q 496 192 460 156 q 532 288 532 229 l 532 688 l 719 688 l 719 303 q 630 72 719 161 q 404 -17 540 -17 q 176 72 265 -17 q 86 303 86 160 m 183 793 l 285 1083 l 479 1083 l 479 1050 l 310 793 l 183 793 m 485 793 l 586 1083 l 781 1083 l 781 1050 l 611 793 l 485 793 z "},"Ų":{"ha":972,"x_min":97,"x_max":875,"o":"m 97 379 l 97 917 l 285 917 l 285 365 q 340 212 285 267 q 486 157 396 157 q 633 212 578 157 q 688 365 688 267 l 688 917 l 875 917 l 875 379 q 765 92 875 200 q 486 -17 656 -17 q 206 92 315 -17 q 97 379 97 200 m 429 -128 q 458 -37 429 -76 q 589 86 488 1 l 758 86 l 644 -29 q 608 -92 608 -65 q 658 -132 608 -132 q 717 -124 669 -132 l 717 -246 q 597 -267 658 -267 q 475 -229 521 -267 q 429 -128 429 -192 z "},"ų":{"ha":806,"x_min":86,"x_max":719,"o":"m 532 688 l 719 688 l 719 303 q 701 182 719 231 q 649 93 681 129 q 542 -12 610 50 q 496 -86 496 -53 q 549 -133 496 -133 q 607 -125 564 -133 l 607 -244 q 483 -267 542 -267 q 364 -233 407 -267 q 321 -137 321 -200 q 379 -15 321 -69 q 168 79 250 -8 q 86 303 86 167 l 86 688 l 274 688 l 274 288 q 310 192 274 228 q 404 156 347 156 q 496 192 460 156 q 532 288 532 229 l 532 688 z "},"Ŵ":{"ha":1438,"x_min":35,"x_max":1403,"o":"m 1194 917 l 1403 917 l 1036 -17 l 975 -17 l 719 558 l 463 -17 l 401 -17 l 35 917 l 243 917 l 447 375 l 688 933 l 750 933 l 990 378 l 1194 917 m 986 1006 l 843 1006 l 718 1117 l 593 1006 l 451 1006 l 657 1264 l 781 1264 l 986 1006 z "},"ŵ":{"ha":1190,"x_min":17,"x_max":1174,"o":"m 976 688 l 1174 688 l 854 -17 l 793 -17 l 596 383 l 397 -17 l 336 -17 l 17 688 l 214 688 l 376 296 l 564 703 l 626 703 l 817 304 l 976 688 m 843 793 l 706 793 l 594 921 l 483 793 l 346 793 l 533 1083 l 657 1083 l 843 793 z "},"Ŷ":{"ha":867,"x_min":24,"x_max":843,"o":"m 843 917 l 528 361 l 528 0 l 340 0 l 340 360 l 24 917 l 232 917 l 435 553 l 636 917 l 843 917 m 699 1006 l 556 1006 l 431 1117 l 306 1006 l 164 1006 l 369 1264 l 493 1264 l 699 1006 z "},"ŷ":{"ha":776,"x_min":17,"x_max":760,"o":"m 563 688 l 760 688 l 431 -60 q 318 -217 383 -167 q 157 -267 253 -267 q 36 -250 99 -267 l 36 -93 q 117 -99 93 -99 q 203 -78 169 -99 q 260 -6 236 -57 l 281 42 l 17 688 l 215 688 l 383 236 l 563 688 m 636 793 l 499 793 l 388 921 l 276 793 l 139 793 l 326 1083 l 450 1083 l 636 793 z "},"Ÿ":{"ha":867,"x_min":24,"x_max":843,"o":"m 843 917 l 528 361 l 528 0 l 340 0 l 340 360 l 24 917 l 232 917 l 435 553 l 636 917 l 843 917 m 140 1131 q 173 1208 140 1176 q 251 1239 206 1239 q 332 1208 299 1239 q 365 1131 365 1176 q 332 1056 365 1088 q 251 1024 299 1024 q 174 1056 208 1024 q 140 1131 140 1089 m 499 1129 q 532 1207 499 1175 q 611 1239 565 1239 q 690 1207 657 1239 q 724 1129 724 1175 q 690 1054 724 1086 q 611 1022 657 1022 q 533 1055 568 1022 q 499 1129 499 1088 z "},"Ź":{"ha":817,"x_min":28,"x_max":778,"o":"m 317 169 l 778 169 l 778 0 l 28 0 l 28 50 l 488 747 l 88 747 l 88 917 l 776 917 l 776 867 l 317 169 m 343 1006 l 444 1264 l 669 1264 l 669 1231 l 479 1006 l 343 1006 z "},"ź":{"ha":650,"x_min":24,"x_max":628,"o":"m 299 158 l 628 158 l 628 0 l 24 0 l 24 50 l 353 529 l 56 529 l 56 688 l 625 688 l 625 638 l 299 158 m 263 793 l 364 1083 l 589 1083 l 589 1050 l 399 793 l 263 793 z "},"Ż":{"ha":817,"x_min":28,"x_max":778,"o":"m 317 169 l 778 169 l 778 0 l 28 0 l 28 50 l 488 747 l 88 747 l 88 917 l 776 917 l 776 867 l 317 169 m 329 1049 q 312 1066 329 1049 q 294 1132 294 1083 q 329 1215 294 1181 q 414 1249 364 1249 q 499 1215 464 1249 q 535 1132 535 1181 q 499 1049 535 1083 q 414 1015 464 1015 q 329 1049 364 1015 z "},"ż":{"ha":650,"x_min":24,"x_max":628,"o":"m 299 158 l 628 158 l 628 0 l 24 0 l 24 50 l 353 529 l 56 529 l 56 688 l 625 688 l 625 638 l 299 158 m 210 938 q 244 1021 210 988 q 329 1054 279 1054 q 415 1021 379 1054 q 450 938 450 988 q 415 856 450 889 q 329 822 379 822 q 244 856 279 822 q 210 938 210 889 z "},"Ž":{"ha":817,"x_min":28,"x_max":778,"o":"m 317 169 l 778 169 l 778 0 l 28 0 l 28 50 l 488 747 l 88 747 l 88 917 l 776 917 l 776 867 l 317 169 m 539 1264 l 682 1264 l 476 1006 l 353 1006 l 147 1264 l 289 1264 l 414 1153 l 539 1264 z "},"ž":{"ha":650,"x_min":24,"x_max":628,"o":"m 299 158 l 628 158 l 628 0 l 24 0 l 24 50 l 353 529 l 56 529 l 56 688 l 625 688 l 625 638 l 299 158 m 442 1083 l 579 1083 l 393 793 l 269 793 l 82 1083 l 219 1083 l 331 956 l 442 1083 z "},"Ə":{"ha":1018,"x_min":50,"x_max":967,"o":"m 964 460 q 826 122 967 264 q 490 -17 685 -19 q 178 102 307 -19 q 53 403 50 224 q 65 524 53 464 l 768 524 q 676 697 750 632 q 494 761 603 761 q 229 619 333 761 l 103 729 q 272 880 171 826 q 494 933 372 933 q 830 797 693 936 q 964 460 967 657 m 764 371 l 235 371 q 313 214 236 271 q 494 157 389 157 q 667 215 594 157 q 764 371 740 274 z "},"ƒ":{"ha":626,"x_min":-4,"x_max":631,"o":"m 631 918 l 631 763 q 567 765 572 765 q 477 740 507 765 q 442 658 447 715 l 431 564 l 557 564 l 557 404 l 410 404 l 369 72 q 97 -185 339 -185 q -3 -171 38 -185 l -4 -14 l 58 -17 q 185 89 175 -17 l 224 404 l 103 404 l 103 564 l 243 564 l 257 675 q 529 933 289 933 q 631 918 582 933 z "},"ǔ":{"ha":806,"x_min":86,"x_max":719,"o":"m 86 303 l 86 688 l 274 688 l 274 288 q 310 192 274 228 q 404 156 347 156 q 496 192 460 156 q 532 288 532 229 l 532 688 l 719 688 l 719 303 q 630 72 719 161 q 404 -17 540 -17 q 176 72 265 -17 q 86 303 86 160 m 514 1083 l 651 1083 l 465 793 l 342 793 l 154 1083 l 292 1083 l 403 956 l 514 1083 z "},"Ǽ":{"ha":1183,"x_min":7,"x_max":1128,"o":"m 789 169 l 1128 169 l 1128 0 l 635 0 l 614 119 l 271 119 l 208 0 l 7 0 l 476 917 l 1111 917 l 1111 747 l 693 747 l 724 561 l 999 561 l 999 401 l 750 401 l 789 169 m 528 647 l 349 274 l 588 274 l 528 647 m 511 1006 l 613 1264 l 838 1264 l 838 1231 l 647 1006 l 511 1006 z "},"ǽ":{"ha":1219,"x_min":50,"x_max":1167,"o":"m 1153 274 l 674 274 q 742 178 692 211 q 865 144 793 144 q 1056 214 965 144 l 1133 86 q 861 -17 1014 -17 q 572 122 671 -17 q 301 -17 489 -17 q 117 40 183 -17 q 50 190 50 97 q 120 342 50 286 q 310 397 190 397 l 482 397 l 482 419 q 449 509 482 478 q 356 540 417 540 q 172 446 264 540 l 76 561 q 375 703 194 703 q 601 601 529 703 q 844 703 696 703 q 1075 611 983 703 q 1167 383 1167 519 q 1153 274 1167 321 m 668 397 l 985 397 q 945 509 986 467 q 838 551 904 551 q 728 510 774 551 q 668 397 682 468 m 482 256 l 482 274 l 335 274 q 239 201 239 274 q 265 143 239 164 q 336 122 292 122 q 440 160 399 122 q 482 256 482 197 m 532 793 l 633 1083 l 858 1083 l 858 1050 l 668 793 l 532 793 z "},"Ǿ":{"ha":1081,"x_min":43,"x_max":1038,"o":"m 1038 844 l 933 740 q 1028 458 1028 618 q 884 121 1031 263 q 539 -17 738 -21 q 261 65 389 -17 l 156 -40 l 43 72 l 146 175 q 53 458 53 301 q 195 796 50 654 q 539 933 340 938 q 818 850 693 933 l 925 957 l 1038 844 m 238 458 q 274 304 238 374 l 697 726 q 540 768 625 768 q 323 681 408 768 q 238 458 238 593 m 843 458 q 806 613 843 542 l 383 189 q 540 149 453 149 q 756 237 669 149 q 843 458 843 325 m 467 1006 l 568 1264 l 793 1264 l 793 1231 l 603 1006 l 467 1006 z "},"ǿ":{"ha":850,"x_min":42,"x_max":808,"o":"m 808 615 l 735 542 q 794 343 794 453 q 685 88 794 193 q 424 -17 576 -17 q 229 36 319 -17 l 154 -40 l 42 72 l 115 146 q 57 343 57 231 q 165 599 56 492 q 425 703 274 706 q 619 650 529 703 l 696 726 l 808 615 m 232 343 q 249 257 232 294 l 514 524 q 425 544 474 544 q 286 488 340 544 q 232 343 232 432 m 618 343 q 601 429 618 392 l 333 163 q 424 142 374 142 q 563 198 508 142 q 618 343 618 254 m 358 793 l 460 1083 l 685 1083 l 685 1050 l 494 793 l 358 793 z "},"Ș":{"ha":776,"x_min":42,"x_max":717,"o":"m 42 186 l 171 283 q 396 150 268 150 q 492 177 457 150 q 526 251 526 204 q 503 312 526 290 q 410 365 479 333 l 311 410 q 89 674 89 508 q 175 862 89 790 q 393 933 261 933 q 574 887 496 933 q 696 760 651 840 l 568 661 q 393 767 497 767 q 311 743 343 767 q 279 678 279 719 q 302 622 279 643 q 386 572 325 600 l 490 526 q 663 412 608 474 q 717 258 717 350 q 626 59 717 135 q 396 -17 536 -17 q 188 38 281 -17 q 42 186 96 92 m 306 -306 l 310 -64 l 483 -64 l 447 -306 l 306 -306 z "},"ș":{"ha":632,"x_min":31,"x_max":583,"o":"m 31 117 l 125 231 q 318 138 214 138 q 381 152 357 138 q 406 194 406 167 q 391 227 406 215 q 335 257 376 239 l 261 288 q 118 376 163 328 q 74 497 74 424 q 143 648 74 593 q 326 703 213 703 q 574 600 479 703 l 479 485 q 325 550 410 550 q 251 501 251 550 q 267 469 251 482 q 324 440 282 457 l 390 413 q 538 324 493 371 q 583 203 583 276 q 507 42 583 100 q 315 -17 432 -17 q 31 117 131 -17 m 243 -306 l 247 -64 l 421 -64 l 385 -306 l 243 -306 z "},"Ț":{"ha":813,"x_min":19,"x_max":794,"o":"m 313 0 l 313 747 l 19 747 l 19 917 l 794 917 l 794 747 l 500 747 l 500 0 l 313 0 m 317 -306 l 321 -64 l 494 -64 l 458 -306 l 317 -306 z "},"ț":{"ha":578,"x_min":22,"x_max":535,"o":"m 535 157 l 535 0 q 406 -17 468 -17 q 202 49 274 -17 q 131 242 131 114 l 131 529 l 22 529 l 22 688 l 131 688 l 131 861 l 318 861 l 318 688 l 513 688 l 513 529 l 318 529 l 318 258 q 348 176 318 200 q 446 151 378 151 q 535 157 469 151 m 229 -306 l 233 -64 l 407 -64 l 371 -306 l 229 -306 z "},"ȷ":{"ha":374,"x_min":-87,"x_max":281,"o":"m -87 -251 l -87 -94 q -31 -99 -54 -99 q 63 -74 33 -99 q 93 8 93 -49 l 93 688 l 281 688 l 281 -8 q 211 -201 281 -135 q 17 -267 142 -267 q -87 -251 -37 -267 z "},"ə":{"ha":790,"x_min":54,"x_max":738,"o":"m 631 599 q 684 548 631 599 q 738 344 738 496 q 634 88 738 193 q 381 -17 531 -17 q 146 76 238 -17 q 54 304 54 168 q 67 407 54 364 l 549 407 q 358 542 514 542 q 163 474 251 542 l 85 601 q 364 703 204 703 q 631 599 525 703 m 550 275 l 235 275 q 281 174 238 213 q 388 136 324 136 q 491 173 447 136 q 550 275 535 210 z "},"ˆ":{"ha":833,"x_min":168,"x_max":665,"o":"m 665 793 l 528 793 l 417 921 l 306 793 l 168 793 l 356 1083 l 479 1083 l 665 793 z "},"ˇ":{"ha":833,"x_min":168,"x_max":665,"o":"m 528 1083 l 665 1083 l 479 793 l 356 793 l 168 1083 l 306 1083 l 417 956 l 528 1083 z "},"˘":{"ha":833,"x_min":176,"x_max":656,"o":"m 176 1035 l 176 1074 l 324 1074 l 324 1036 q 349 960 324 988 q 417 932 374 932 q 485 960 460 932 q 510 1036 510 988 l 510 1074 l 656 1074 l 656 1035 q 589 860 656 928 q 417 793 522 793 q 244 861 311 793 q 176 1035 176 929 z "},"˙":{"ha":833,"x_min":296,"x_max":536,"o":"m 296 938 q 331 1021 296 988 q 415 1054 365 1054 q 501 1021 465 1054 q 536 938 536 988 q 501 856 536 889 q 415 822 465 822 q 331 856 365 822 q 296 938 296 889 z "},"˚":{"ha":833,"x_min":240,"x_max":592,"o":"m 240 932 q 290 1053 240 1004 q 415 1101 340 1101 q 542 1053 492 1101 q 592 932 592 1006 q 542 810 592 858 q 415 761 492 761 q 290 810 340 761 q 240 932 240 858 m 474 932 q 457 973 474 957 q 417 989 440 989 q 376 973 393 989 q 360 932 360 957 q 376 891 360 907 q 417 875 392 875 q 457 892 440 875 q 474 932 474 908 z "},"˛":{"ha":833,"x_min":272,"x_max":560,"o":"m 272 -128 q 322 -19 272 -67 q 483 75 371 28 l 560 0 l 504 -35 q 463 -65 474 -53 q 451 -92 451 -76 q 501 -132 451 -132 q 560 -124 517 -132 l 560 -246 q 440 -267 497 -267 q 317 -228 363 -267 q 272 -128 272 -190 z "},"˜":{"ha":833,"x_min":149,"x_max":685,"o":"m 428 835 l 389 858 q 333 885 353 885 q 294 836 294 885 l 294 819 l 151 819 q 149 865 149 839 q 193 1002 149 950 q 306 1054 238 1054 q 406 1024 358 1054 l 444 999 q 500 974 478 974 q 539 1022 539 974 l 539 1039 l 681 1039 q 685 992 685 1014 q 640 856 685 908 q 526 804 594 804 q 428 835 475 804 z "},"˝":{"ha":833,"x_min":118,"x_max":715,"o":"m 118 793 l 219 1083 l 414 1083 l 414 1050 l 244 793 l 118 793 m 419 793 l 521 1083 l 715 1083 l 715 1050 l 546 793 l 419 793 z "},"̀":{"ha":0,"x_min":-511,"x_max":-185,"o":"m -321 793 l -511 1050 l -511 1083 l -286 1083 l -185 793 l -321 793 z "},"́":{"ha":0,"x_min":-511,"x_max":-185,"o":"m -511 793 l -410 1083 l -185 1083 l -185 1050 l -375 793 l -511 793 z "},"̂":{"ha":0,"x_min":-596,"x_max":-99,"o":"m -99 793 l -236 793 l -347 921 l -458 793 l -596 793 l -408 1083 l -285 1083 l -99 793 z "},"̃":{"ha":0,"x_min":-615,"x_max":-79,"o":"m -336 835 l -375 858 q -431 885 -411 885 q -469 836 -469 885 l -469 819 l -612 819 q -615 865 -615 839 q -571 1002 -615 950 q -458 1054 -526 1054 q -358 1024 -406 1054 l -319 999 q -264 974 -286 974 q -225 1022 -225 974 l -225 1039 l -83 1039 q -79 992 -79 1014 q -124 856 -79 908 q -237 804 -169 804 q -336 835 -289 804 z "},"̄":{"ha":0,"x_min":-557,"x_max":-137,"o":"m -557 864 l -557 1011 l -137 1011 l -137 864 l -557 864 z "},"̆":{"ha":0,"x_min":-587,"x_max":-108,"o":"m -587 1035 l -587 1074 l -440 1074 l -440 1036 q -415 960 -440 988 q -347 932 -390 932 q -279 960 -304 932 q -254 1036 -254 988 l -254 1074 l -108 1074 l -108 1035 q -175 860 -108 928 q -347 793 -242 793 q -520 861 -453 793 q -587 1035 -587 929 z "},"̇":{"ha":0,"x_min":-468,"x_max":-228,"o":"m -468 938 q -433 1021 -468 988 q -349 1054 -399 1054 q -263 1021 -299 1054 q -228 938 -228 988 q -263 856 -228 889 q -349 822 -299 822 q -433 856 -399 822 q -468 938 -468 889 z "},"̈":{"ha":0,"x_min":-625,"x_max":-69,"o":"m -592 863 q -608 878 -592 863 q -625 939 -625 894 q -592 1015 -625 983 q -511 1047 -558 1047 q -433 1015 -467 1047 q -400 939 -400 983 q -433 863 -400 894 q -511 831 -467 831 q -592 863 -558 831 m -261 863 q -278 878 -261 863 q -294 939 -294 894 q -261 1015 -294 983 q -181 1047 -228 1047 q -103 1015 -136 1047 q -69 939 -69 983 q -103 863 -69 894 q -181 831 -136 831 q -261 863 -228 831 z "},"̊":{"ha":0,"x_min":-524,"x_max":-172,"o":"m -524 932 q -474 1053 -524 1004 q -349 1101 -424 1101 q -222 1053 -272 1101 q -172 932 -172 1006 q -222 810 -172 858 q -349 761 -272 761 q -474 810 -424 761 q -524 932 -524 858 m -290 932 q -307 973 -290 957 q -347 989 -324 989 q -387 973 -371 989 q -404 932 -404 957 q -388 891 -404 907 q -347 875 -372 875 q -307 892 -324 875 q -290 932 -290 908 z "},"̋":{"ha":0,"x_min":-646,"x_max":-49,"o":"m -646 793 l -544 1083 l -350 1083 l -350 1050 l -519 793 l -646 793 m -344 793 l -243 1083 l -49 1083 l -49 1050 l -218 793 l -344 793 z "},"̌":{"ha":0,"x_min":-596,"x_max":-99,"o":"m -236 1083 l -99 1083 l -285 793 l -408 793 l -596 1083 l -458 1083 l -347 956 l -236 1083 z "},"̦":{"ha":0,"x_min":-436,"x_max":-258,"o":"m -436 -306 l -432 -64 l -258 -64 l -294 -306 l -436 -306 z "},"̧":{"ha":0,"x_min":-507,"x_max":-189,"o":"m -507 -253 l -507 -129 q -424 -132 -460 -132 q -337 -53 -337 -132 q -356 28 -337 -14 l -282 61 q -189 -90 -189 10 q -247 -217 -189 -168 q -404 -267 -306 -267 q -507 -253 -461 -267 z "},"̨":{"ha":0,"x_min":-492,"x_max":-204,"o":"m -492 -128 q -442 -19 -492 -67 q -281 75 -393 28 l -204 0 l -260 -35 q -301 -65 -290 -53 q -312 -92 -312 -76 q -262 -132 -312 -132 q -204 -124 -247 -132 l -204 -246 q -324 -267 -267 -267 q -447 -228 -401 -267 q -492 -128 -492 -190 z "},"΄":{"ha":694,"x_min":211,"x_max":483,"o":"m 211 793 l 261 1083 l 483 1083 l 483 1050 l 349 793 l 211 793 z "},"΅":{"ha":694,"x_min":-28,"x_max":722,"o":"m 224 793 l 279 1083 l 493 1083 l 493 1050 l 353 793 l 224 793 m -28 938 q 6 1015 -28 982 q 82 1047 39 1047 q 160 1015 128 1047 q 193 938 193 983 q 160 863 193 894 q 82 831 128 831 q 6 863 40 831 q -28 938 -28 896 m 500 938 q 534 1015 500 982 q 611 1047 568 1047 q 690 1015 657 1047 q 722 938 722 983 q 689 863 722 894 q 611 831 656 831 q 535 863 569 831 q 500 938 500 896 z "},"Ά":{"ha":918,"x_min":-11,"x_max":899,"o":"m 697 0 l 646 119 l 271 119 l 219 0 l 18 0 l 428 933 l 490 933 l 899 0 l 697 0 m 581 274 l 458 583 l 336 274 l 581 274 m -11 631 l -4 917 l 189 917 l 121 631 l -11 631 z "},"·":{"ha":389,"x_min":65,"x_max":324,"o":"m 65 444 q 103 536 65 499 q 196 574 140 574 q 287 536 250 574 q 324 444 324 499 q 288 352 324 389 q 196 315 251 315 q 103 352 140 315 q 65 444 65 389 z "},"Έ":{"ha":796,"x_min":-200,"x_max":739,"o":"m 106 0 l 106 917 l 722 917 l 722 747 l 293 747 l 293 561 l 608 561 l 608 401 l 293 401 l 293 169 l 739 169 l 739 0 l 106 0 m -200 631 l -193 917 l 0 917 l -68 631 l -200 631 z "},"Ή":{"ha":990,"x_min":-200,"x_max":886,"o":"m 106 0 l 106 917 l 293 917 l 293 565 l 699 565 l 699 917 l 886 917 l 886 0 l 699 0 l 699 396 l 293 396 l 293 0 l 106 0 m -200 631 l -193 917 l 0 917 l -68 631 l -200 631 z "},"Ί":{"ha":397,"x_min":-200,"x_max":293,"o":"m 106 0 l 106 917 l 293 917 l 293 0 l 106 0 m -200 631 l -193 917 l 0 917 l -68 631 l -200 631 z "},"Ό":{"ha":1081,"x_min":-147,"x_max":1031,"o":"m 53 458 q 195 796 50 654 q 539 933 340 938 q 884 796 738 938 q 1028 458 1031 654 q 884 121 1031 263 q 539 -17 738 -21 q 195 121 340 -21 q 53 458 50 263 m 835 458 q 751 674 835 589 q 540 760 667 760 q 329 675 413 760 q 246 458 246 590 q 329 242 246 326 q 540 157 413 157 q 751 242 667 157 q 835 458 835 326 m -147 631 l -140 917 l 53 917 l -15 631 l -147 631 z "},"Ύ":{"ha":867,"x_min":-229,"x_max":843,"o":"m 843 917 l 528 361 l 528 0 l 340 0 l 340 360 l 24 917 l 232 917 l 435 553 l 636 917 l 843 917 m -229 631 l -222 917 l -29 917 l -97 631 l -229 631 z "},"Ώ":{"ha":1094,"x_min":-114,"x_max":1039,"o":"m 872 169 l 1021 169 l 1021 0 l 626 0 l 626 169 q 842 472 842 272 q 758 678 842 597 q 546 760 674 760 q 335 680 417 760 q 253 475 253 600 q 468 169 253 272 l 468 0 l 74 0 l 74 169 l 214 169 q 60 482 60 294 q 201 802 56 668 q 546 933 346 936 q 892 801 744 936 q 1035 482 1039 667 q 872 169 1035 299 m -114 631 l -107 917 l 86 917 l 18 631 l -114 631 z "},"ΐ":{"ha":450,"x_min":-171,"x_max":579,"o":"m 90 231 l 90 688 l 276 688 l 276 258 q 298 176 276 201 q 367 151 319 151 q 435 157 389 151 l 435 0 q 321 -17 383 -17 q 90 231 90 -17 m 81 793 l 136 1083 l 350 1083 l 350 1050 l 210 793 l 81 793 m -171 938 q -137 1015 -171 982 q -61 1047 -104 1047 q 17 1015 -15 1047 q 50 938 50 983 q 17 863 50 894 q -61 831 -15 831 q -137 863 -103 831 q -171 938 -171 896 m 357 938 q 391 1015 357 982 q 468 1047 425 1047 q 547 1015 514 1047 q 579 938 579 983 q 546 863 579 894 q 468 831 513 831 q 392 863 426 831 q 357 938 357 896 z "},"Α":{"ha":918,"x_min":18,"x_max":899,"o":"m 697 0 l 646 119 l 271 119 l 219 0 l 18 0 l 428 933 l 490 933 l 899 0 l 697 0 m 581 274 l 458 583 l 336 274 l 581 274 z "},"Β":{"ha":863,"x_min":106,"x_max":815,"o":"m 815 269 q 731 76 815 151 q 514 0 646 0 l 106 0 l 106 917 l 431 917 q 640 845 558 917 q 721 661 721 774 q 653 496 721 560 q 815 269 815 436 m 415 756 l 286 756 l 286 546 l 415 546 q 503 574 472 546 q 535 651 535 601 q 503 728 535 700 q 415 756 472 756 m 631 276 q 596 360 631 329 q 500 392 561 392 l 286 392 l 286 161 l 500 161 q 596 192 561 161 q 631 276 631 222 z "},"Γ":{"ha":728,"x_min":106,"x_max":694,"o":"m 106 0 l 106 917 l 694 917 l 694 747 l 293 747 l 293 0 l 106 0 z "},"Δ":{"ha":918,"x_min":40,"x_max":876,"o":"m 490 933 l 876 50 l 876 0 l 40 0 l 40 50 l 428 933 l 490 933 m 625 169 l 460 557 l 293 169 l 625 169 z "},"Ε":{"ha":796,"x_min":106,"x_max":739,"o":"m 106 0 l 106 917 l 722 917 l 722 747 l 293 747 l 293 561 l 608 561 l 608 401 l 293 401 l 293 169 l 739 169 l 739 0 l 106 0 z "},"Ζ":{"ha":817,"x_min":28,"x_max":778,"o":"m 317 169 l 778 169 l 778 0 l 28 0 l 28 50 l 488 747 l 88 747 l 88 917 l 776 917 l 776 867 l 317 169 z "},"Η":{"ha":990,"x_min":106,"x_max":886,"o":"m 106 0 l 106 917 l 293 917 l 293 565 l 699 565 l 699 917 l 886 917 l 886 0 l 699 0 l 699 396 l 293 396 l 293 0 l 106 0 z "},"Θ":{"ha":1081,"x_min":50,"x_max":1031,"o":"m 53 458 q 195 796 50 654 q 539 933 340 938 q 884 796 738 938 q 1028 458 1031 654 q 884 121 1031 263 q 539 -17 738 -21 q 195 121 340 -21 q 53 458 50 263 m 846 457 q 758 682 846 593 q 539 771 671 771 q 321 683 407 771 q 235 457 235 594 q 322 233 235 321 q 539 146 408 146 q 758 234 669 146 q 846 457 846 322 m 344 379 l 344 533 l 736 533 l 736 379 l 344 379 z "},"Ι":{"ha":397,"x_min":106,"x_max":293,"o":"m 106 0 l 106 917 l 293 917 l 293 0 l 106 0 z "},"Κ":{"ha":931,"x_min":106,"x_max":913,"o":"m 913 0 l 686 0 l 293 478 l 293 0 l 106 0 l 106 917 l 293 917 l 293 492 l 643 917 l 867 917 l 515 485 l 913 0 z "},"Λ":{"ha":918,"x_min":18,"x_max":899,"o":"m 899 0 l 697 0 l 458 557 l 219 0 l 18 0 l 428 933 l 490 933 l 899 0 z "},"Μ":{"ha":1108,"x_min":106,"x_max":1003,"o":"m 942 933 l 1003 933 l 1003 0 l 815 0 l 815 489 l 585 200 l 524 200 l 293 489 l 293 0 l 106 0 l 106 933 l 167 933 l 554 438 l 942 933 z "},"Ν":{"ha":990,"x_min":106,"x_max":886,"o":"m 699 917 l 886 917 l 886 -17 l 824 -17 l 293 550 l 293 0 l 106 0 l 106 933 l 167 933 l 699 369 l 699 917 z "},"Ξ":{"ha":875,"x_min":57,"x_max":819,"o":"m 57 747 l 57 917 l 819 917 l 819 747 l 57 747 m 154 369 l 154 539 l 722 539 l 722 369 l 154 369 m 57 0 l 57 169 l 819 169 l 819 0 l 57 0 z "},"Ο":{"ha":1081,"x_min":50,"x_max":1031,"o":"m 53 458 q 195 796 50 654 q 539 933 340 938 q 884 796 738 938 q 1028 458 1031 654 q 884 121 1031 263 q 539 -17 738 -21 q 195 121 340 -21 q 53 458 50 263 m 835 458 q 751 674 835 589 q 540 760 667 760 q 329 675 413 760 q 246 458 246 590 q 329 242 246 326 q 540 157 413 157 q 751 242 667 157 q 835 458 835 326 z "},"Π":{"ha":960,"x_min":106,"x_max":854,"o":"m 106 0 l 106 917 l 854 917 l 854 0 l 667 0 l 667 747 l 293 747 l 293 0 l 106 0 z "},"Ρ":{"ha":825,"x_min":106,"x_max":781,"o":"m 106 0 l 106 917 l 450 917 q 688 835 594 917 q 781 621 781 753 q 688 407 781 490 q 450 324 594 324 l 293 324 l 293 0 l 106 0 m 293 488 l 450 488 q 552 524 515 488 q 589 621 589 561 q 551 715 589 679 q 450 751 513 751 l 293 751 l 293 488 z "},"Σ":{"ha":792,"x_min":49,"x_max":735,"o":"m 332 169 l 735 169 l 735 0 l 49 0 l 49 50 l 340 469 l 49 867 l 49 917 l 718 917 l 718 747 l 339 747 l 535 483 l 535 457 l 332 169 z "},"Τ":{"ha":813,"x_min":19,"x_max":794,"o":"m 313 0 l 313 747 l 19 747 l 19 917 l 794 917 l 794 747 l 500 747 l 500 0 l 313 0 z "},"Υ":{"ha":867,"x_min":24,"x_max":843,"o":"m 843 917 l 528 361 l 528 0 l 340 0 l 340 360 l 24 917 l 232 917 l 435 553 l 636 917 l 843 917 z "},"Φ":{"ha":1164,"x_min":51,"x_max":1111,"o":"m 675 22 l 675 -60 l 488 -60 l 488 24 q 176 153 300 29 q 53 461 51 278 q 176 763 53 642 q 488 892 300 883 l 488 975 l 675 975 l 675 893 q 987 765 863 888 q 1110 461 1111 643 q 987 153 1110 276 q 675 22 864 31 m 488 185 l 488 732 q 309 647 381 725 q 238 456 238 569 q 307 265 238 342 q 488 185 379 190 m 926 456 q 855 647 926 569 q 675 732 783 725 l 675 185 q 856 265 783 190 q 926 456 926 340 z "},"Χ":{"ha":853,"x_min":18,"x_max":833,"o":"m 833 0 l 621 0 l 426 304 l 232 0 l 18 0 l 322 467 l 36 917 l 250 917 l 426 628 l 601 917 l 814 917 l 532 467 l 833 0 z "},"Ψ":{"ha":1121,"x_min":88,"x_max":1035,"o":"m 467 0 l 467 201 q 188 315 288 211 q 88 596 88 418 l 88 917 l 275 917 l 275 607 q 327 438 275 501 q 467 372 379 375 l 467 917 l 654 917 l 654 372 q 794 439 742 375 q 847 607 847 503 l 847 917 l 1035 917 l 1035 596 q 934 315 1035 418 q 654 201 833 211 l 654 0 l 467 0 z "},"Ω":{"ha":1094,"x_min":56,"x_max":1039,"o":"m 872 169 l 1021 169 l 1021 0 l 626 0 l 626 169 q 842 472 842 272 q 758 678 842 597 q 546 760 674 760 q 335 680 417 760 q 253 475 253 600 q 468 169 253 272 l 468 0 l 74 0 l 74 169 l 214 169 q 60 482 60 294 q 201 802 56 668 q 546 933 346 936 q 892 801 744 936 q 1035 482 1039 667 q 872 169 1035 299 z "},"Ϊ":{"ha":397,"x_min":-92,"x_max":492,"o":"m 106 0 l 106 917 l 293 917 l 293 0 l 106 0 m -92 1131 q -59 1208 -92 1176 q 19 1239 -26 1239 q 100 1208 67 1239 q 133 1131 133 1176 q 100 1056 133 1088 q 19 1024 67 1024 q -58 1056 -24 1024 q -92 1131 -92 1089 m 267 1129 q 300 1207 267 1175 q 379 1239 333 1239 q 458 1207 425 1239 q 492 1129 492 1175 q 458 1054 492 1086 q 379 1022 425 1022 q 301 1055 336 1022 q 267 1129 267 1088 z "},"Ϋ":{"ha":867,"x_min":24,"x_max":843,"o":"m 843 917 l 528 361 l 528 0 l 340 0 l 340 360 l 24 917 l 232 917 l 435 553 l 636 917 l 843 917 m 142 1131 q 174 1208 142 1176 q 253 1239 207 1239 q 333 1208 300 1239 q 367 1131 367 1176 q 333 1056 367 1088 q 253 1024 300 1024 q 176 1056 210 1024 q 142 1131 142 1089 m 500 1129 q 533 1207 500 1175 q 613 1239 567 1239 q 692 1207 658 1239 q 725 1129 725 1175 q 692 1054 725 1086 q 613 1022 658 1022 q 535 1055 569 1022 q 500 1129 500 1088 z "},"ά":{"ha":894,"x_min":54,"x_max":871,"o":"m 831 154 l 871 156 l 871 0 q 768 -14 828 -14 q 604 93 642 -14 q 381 -17 533 -17 q 147 85 239 -17 q 54 343 54 188 q 147 600 54 497 q 381 703 239 703 q 606 592 536 703 q 611 688 607 631 l 783 688 q 769 365 769 489 l 769 239 q 831 154 769 154 m 585 343 q 536 482 585 431 q 414 533 488 533 q 293 481 342 533 q 244 344 244 428 q 292 207 244 260 q 414 154 340 154 q 536 204 488 154 q 585 343 585 254 m 317 793 l 367 1083 l 589 1083 l 589 1050 l 454 793 l 317 793 z "},"έ":{"ha":713,"x_min":57,"x_max":667,"o":"m 561 224 l 667 113 q 361 -17 564 -17 q 137 37 217 -17 q 57 186 57 90 q 178 349 57 299 q 85 500 85 401 q 161 649 85 594 q 371 703 238 703 q 663 585 565 703 l 557 472 q 374 542 494 542 q 268 476 268 542 q 351 415 268 415 l 476 415 l 476 276 l 344 276 q 240 214 240 276 q 269 161 240 178 q 361 144 297 144 q 561 224 490 144 m 274 793 l 324 1083 l 546 1083 l 546 1050 l 411 793 l 274 793 z "},"ή":{"ha":844,"x_min":24,"x_max":757,"o":"m 757 426 l 757 -250 l 571 -250 l 571 400 q 535 497 571 460 q 443 533 500 533 q 349 496 386 533 q 311 400 311 458 l 311 0 l 125 0 l 125 449 q 63 533 125 533 l 24 532 l 24 688 q 126 701 67 701 q 279 622 238 701 q 493 703 363 703 q 685 628 613 703 q 757 426 757 553 m 347 793 l 397 1083 l 619 1083 l 619 1050 l 485 793 l 347 793 z "},"ί":{"ha":450,"x_min":89,"x_max":435,"o":"m 90 231 l 90 688 l 276 688 l 276 258 q 298 176 276 201 q 367 151 319 151 q 435 157 389 151 l 435 0 q 321 -17 383 -17 q 90 231 90 -17 m 89 793 l 139 1083 l 361 1083 l 361 1050 l 226 793 l 89 793 z "},"ΰ":{"ha":817,"x_min":50,"x_max":800,"o":"m 86 306 l 86 688 l 274 688 l 274 289 q 311 191 274 229 q 408 153 349 153 q 506 190 468 153 q 543 289 543 228 l 543 688 l 731 688 l 731 306 q 642 72 731 161 q 408 -17 553 -17 q 175 72 264 -17 q 86 306 86 161 m 301 793 l 357 1083 l 571 1083 l 571 1050 l 431 793 l 301 793 m 50 938 q 83 1015 50 982 q 160 1047 117 1047 q 238 1015 206 1047 q 271 938 271 983 q 238 863 271 894 q 160 831 206 831 q 84 863 118 831 q 50 938 50 896 m 578 938 q 612 1015 578 982 q 689 1047 646 1047 q 767 1015 735 1047 q 800 938 800 983 q 767 863 800 894 q 689 831 733 831 q 613 863 647 831 q 578 938 578 896 z "},"α":{"ha":894,"x_min":54,"x_max":871,"o":"m 831 154 l 871 156 l 871 0 q 768 -14 828 -14 q 604 93 642 -14 q 381 -17 533 -17 q 147 85 239 -17 q 54 343 54 188 q 147 600 54 497 q 381 703 239 703 q 606 592 536 703 q 611 688 607 631 l 783 688 q 769 365 769 489 l 769 239 q 831 154 769 154 m 585 343 q 536 482 585 431 q 414 533 488 533 q 293 481 342 533 q 244 344 244 428 q 292 207 244 260 q 414 154 340 154 q 536 204 488 154 q 585 343 585 254 z "},"β":{"ha":863,"x_min":93,"x_max":808,"o":"m 808 311 q 713 77 808 171 q 475 -17 618 -17 q 281 47 365 -17 l 281 -250 l 93 -250 l 93 738 q 187 968 93 878 q 425 1058 281 1058 q 648 983 560 1058 q 736 792 736 907 q 632 588 736 657 q 762 481 715 553 q 808 311 808 408 m 619 317 q 574 438 619 393 q 450 483 528 483 l 367 483 l 367 642 l 418 642 q 507 675 474 642 q 540 765 540 708 q 507 853 540 819 q 418 888 474 888 q 318 846 356 888 q 281 735 281 804 l 281 221 q 450 156 358 156 q 573 199 526 156 q 619 317 619 243 z "},"γ":{"ha":779,"x_min":17,"x_max":763,"o":"m 763 688 l 483 -12 l 483 -250 l 297 -250 l 297 -17 l 17 688 l 214 688 l 389 199 l 564 688 l 763 688 z "},"δ":{"ha":839,"x_min":54,"x_max":789,"o":"m 786 343 q 680 88 789 194 q 419 -17 571 -19 q 159 84 264 -17 q 54 335 54 185 q 142 567 54 471 q 367 681 229 664 l 69 992 l 69 1042 l 753 1042 l 753 872 l 418 872 l 633 650 q 786 343 786 493 m 594 338 q 544 471 594 418 q 418 524 494 524 q 293 472 342 524 q 244 339 244 419 q 293 208 244 258 q 419 156 342 157 q 546 208 497 157 q 594 338 594 258 z "},"ε":{"ha":713,"x_min":57,"x_max":667,"o":"m 561 224 l 667 113 q 361 -17 564 -17 q 137 37 217 -17 q 57 186 57 90 q 178 349 57 299 q 85 500 85 401 q 161 649 85 594 q 371 703 238 703 q 663 585 565 703 l 557 472 q 374 542 494 542 q 268 476 268 542 q 351 415 268 415 l 476 415 l 476 276 l 344 276 q 240 214 240 276 q 269 161 240 178 q 361 144 297 144 q 561 224 490 144 z "},"ζ":{"ha":658,"x_min":54,"x_max":671,"o":"m 671 992 l 361 538 q 267 392 289 432 q 242 304 242 346 q 277 216 242 249 q 396 161 313 183 l 464 142 q 646 -81 646 92 q 604 -250 646 -168 l 421 -250 q 457 -126 457 -181 q 431 -48 457 -76 q 347 -3 406 -19 l 279 18 q 54 281 54 85 q 89 418 54 347 q 219 629 122 486 l 386 872 l 74 872 l 74 1042 l 671 1042 l 671 992 z "},"η":{"ha":844,"x_min":24,"x_max":757,"o":"m 757 426 l 757 -250 l 571 -250 l 571 400 q 535 497 571 460 q 443 533 500 533 q 349 496 386 533 q 311 400 311 458 l 311 0 l 125 0 l 125 449 q 63 533 125 533 l 24 532 l 24 688 q 126 701 67 701 q 279 622 238 701 q 493 703 363 703 q 685 628 613 703 q 757 426 757 553 z "},"θ":{"ha":890,"x_min":65,"x_max":825,"o":"m 825 525 q 725 125 825 267 q 444 -17 625 -17 q 165 125 265 -17 q 65 525 65 267 q 165 919 65 781 q 444 1058 264 1058 q 725 919 625 1058 q 825 525 825 781 m 260 600 l 631 600 q 444 886 614 886 q 260 600 276 886 m 631 439 l 260 439 q 444 156 278 156 q 631 439 613 156 z "},"ι":{"ha":450,"x_min":90,"x_max":435,"o":"m 90 231 l 90 688 l 276 688 l 276 258 q 298 176 276 201 q 367 151 319 151 q 435 157 389 151 l 435 0 q 321 -17 383 -17 q 90 231 90 -17 z "},"κ":{"ha":779,"x_min":93,"x_max":772,"o":"m 772 0 l 560 0 l 281 360 l 281 0 l 93 0 l 93 688 l 281 688 l 281 371 l 540 688 l 763 688 l 496 364 l 772 0 z "},"λ":{"ha":794,"x_min":-4,"x_max":786,"o":"m 753 157 l 786 157 l 786 0 q 703 -14 744 -14 q 595 21 636 -14 q 526 135 554 56 l 403 482 l 193 0 l -4 0 l 311 697 l 282 786 q 234 867 261 843 q 157 890 207 890 q 85 886 131 890 l 85 1043 q 189 1058 133 1058 q 347 1007 286 1058 q 447 849 408 956 l 683 214 q 753 157 704 157 z "},"μ":{"ha":851,"x_min":93,"x_max":826,"o":"m 789 154 l 826 156 l 826 0 q 726 -14 783 -14 q 579 58 622 -14 q 424 -17 518 -17 q 281 46 336 -17 l 281 -250 l 93 -250 l 93 688 l 281 688 l 281 292 q 316 192 281 231 q 408 153 351 153 q 503 192 467 153 q 539 292 539 231 l 539 688 l 725 688 l 725 239 q 789 154 725 154 z "},"ν":{"ha":776,"x_min":17,"x_max":760,"o":"m 561 688 l 760 688 l 419 -17 l 357 -17 l 17 688 l 214 688 l 388 299 l 561 688 z "},"ξ":{"ha":676,"x_min":63,"x_max":644,"o":"m 644 -81 q 604 -250 644 -165 l 422 -250 q 456 -126 456 -183 q 432 -47 456 -74 q 351 -7 408 -19 l 304 3 q 126 100 190 26 q 63 281 63 174 q 101 431 63 364 q 208 535 139 497 q 96 715 96 592 q 176 872 96 810 l 71 872 l 71 1042 l 642 1042 l 642 872 l 424 872 q 320 835 358 872 q 282 742 282 797 q 319 649 282 686 q 417 611 356 611 l 581 611 l 581 451 l 410 451 q 295 413 338 451 q 253 308 253 375 q 292 209 253 246 q 421 151 331 172 l 465 142 q 644 -81 644 100 z "},"ο":{"ha":844,"x_min":51,"x_max":794,"o":"m 54 344 q 161 599 51 492 q 422 703 271 706 q 684 599 574 706 q 792 344 794 492 q 683 90 794 197 q 421 -15 572 -18 q 160 90 269 -18 q 54 344 51 197 m 549 210 q 575 236 549 210 q 600 343 600 263 q 549 478 600 424 q 422 532 499 532 q 294 478 344 532 q 244 343 244 425 q 294 210 244 263 q 422 157 344 157 q 549 210 499 157 z "},"π":{"ha":824,"x_min":13,"x_max":810,"o":"m 110 0 l 110 518 l 13 518 l 13 688 l 810 688 l 810 518 l 714 518 l 714 0 l 528 0 l 528 518 l 296 518 l 296 0 l 110 0 z "},"ρ":{"ha":857,"x_min":86,"x_max":804,"o":"m 804 343 q 711 85 804 188 q 475 -17 618 -17 q 274 64 350 -17 l 274 -250 l 86 -250 l 86 338 q 184 603 86 503 q 443 703 282 703 q 703 603 603 703 q 804 343 804 503 m 613 343 q 564 481 613 428 q 439 533 515 533 q 316 481 363 533 q 269 343 269 429 q 317 206 269 258 q 440 154 364 154 q 565 208 517 154 q 613 343 613 261 z "},"ς":{"ha":738,"x_min":54,"x_max":711,"o":"m 475 -126 q 452 -49 475 -76 q 375 -4 429 -22 l 315 14 q 54 343 54 101 q 153 602 54 501 q 410 703 253 703 q 711 531 617 703 l 581 431 q 414 532 508 532 q 292 481 340 532 q 244 353 244 431 q 285 235 244 278 q 419 163 326 192 l 493 139 q 664 -81 664 86 q 625 -250 664 -162 l 442 -250 q 475 -126 475 -185 z "},"σ":{"ha":897,"x_min":51,"x_max":871,"o":"m 871 688 l 871 518 l 704 518 q 781 326 781 438 q 676 82 781 181 q 415 -17 571 -17 q 158 86 264 -19 q 54 340 51 192 q 158 591 54 494 q 426 688 261 688 l 871 688 m 589 343 q 541 475 589 424 q 417 526 493 526 q 292 475 340 526 q 244 343 244 424 q 293 208 244 261 q 417 156 342 156 q 540 208 492 156 q 589 343 589 261 z "},"τ":{"ha":692,"x_min":18,"x_max":647,"o":"m 647 518 l 410 518 l 410 258 q 440 176 410 201 q 538 151 469 151 q 626 157 561 151 l 626 0 q 497 -17 561 -17 q 294 50 364 -17 q 224 242 224 117 l 224 518 l 18 518 l 18 688 l 647 688 l 647 518 z "},"υ":{"ha":817,"x_min":86,"x_max":731,"o":"m 86 306 l 86 688 l 274 688 l 274 289 q 311 191 274 229 q 408 153 349 153 q 506 190 468 153 q 543 289 543 228 l 543 688 l 731 688 l 731 306 q 642 72 731 161 q 408 -17 553 -17 q 175 72 264 -17 q 86 306 86 161 z "},"φ":{"ha":1075,"x_min":54,"x_max":1021,"o":"m 631 -15 l 631 -250 l 444 -250 l 444 -17 q 163 90 272 -8 q 54 344 54 189 q 163 597 54 500 q 444 703 271 694 l 444 917 l 631 917 l 631 703 q 913 597 804 694 q 1021 344 1021 500 q 911 91 1021 190 q 631 -15 801 -8 m 449 143 l 449 543 q 294 485 351 538 q 236 343 236 432 q 293 201 236 254 q 449 143 350 149 m 781 201 q 810 228 781 201 q 839 343 839 254 q 781 485 839 432 q 625 543 724 538 l 625 143 q 781 201 724 149 z "},"χ":{"ha":744,"x_min":11,"x_max":750,"o":"m 750 -93 l 750 -250 q 651 -264 710 -264 q 549 -233 590 -264 q 471 -132 507 -203 l 372 65 l 218 -250 l 11 -250 l 268 236 l 149 475 q 63 532 118 532 q 13 531 22 532 l 13 688 q 113 700 50 700 q 217 669 176 700 q 293 568 258 639 l 376 397 l 519 688 l 726 688 l 479 225 l 614 -37 q 649 -82 631 -69 q 700 -94 668 -94 q 750 -93 740 -94 z "},"ψ":{"ha":1103,"x_min":86,"x_max":1017,"o":"m 458 -250 l 458 -17 q 190 83 293 -17 q 86 344 86 183 l 86 688 l 274 688 l 274 360 q 326 211 274 271 q 458 153 378 153 l 458 917 l 644 917 l 644 153 q 777 211 724 153 q 831 360 831 269 l 831 688 l 1017 688 l 1017 344 q 913 83 1017 183 q 644 -17 810 -17 l 644 -250 l 458 -250 z "},"ω":{"ha":1111,"x_min":54,"x_max":1057,"o":"m 1057 335 q 975 80 1057 176 q 756 -17 893 -17 q 556 75 626 -17 q 356 -17 488 -17 q 136 80 218 -17 q 54 335 54 176 q 119 569 54 474 q 300 696 183 664 l 363 536 q 242 331 242 475 q 275 201 242 249 q 365 153 308 153 q 440 186 413 153 q 467 279 467 219 l 467 475 l 643 475 l 643 279 q 670 186 643 219 q 746 153 697 153 q 836 201 803 153 q 869 331 869 249 q 750 536 869 475 l 811 696 q 992 569 928 664 q 1057 335 1057 474 z "},"ϊ":{"ha":450,"x_min":-82,"x_max":449,"o":"m 90 231 l 90 688 l 276 688 l 276 258 q 298 176 276 201 q 367 151 319 151 q 435 157 389 151 l 435 0 q 321 -17 383 -17 q 90 231 90 -17 m -82 938 q -49 1015 -82 983 q 29 1047 -17 1047 q 110 1015 76 1047 q 143 938 143 983 q 110 863 143 894 q 29 831 76 831 q -48 863 -14 831 q -82 938 -82 896 m 224 938 q 257 1015 224 983 q 336 1047 290 1047 q 415 1015 382 1047 q 449 938 449 983 q 415 863 449 894 q 336 831 382 831 q 258 863 293 831 q 224 938 224 896 z "},"ϋ":{"ha":817,"x_min":86,"x_max":731,"o":"m 86 306 l 86 688 l 274 688 l 274 289 q 311 191 274 229 q 408 153 349 153 q 506 190 468 153 q 543 289 543 228 l 543 688 l 731 688 l 731 306 q 642 72 731 161 q 408 -17 553 -17 q 175 72 264 -17 q 86 306 86 161 m 160 863 q 143 878 160 863 q 126 939 126 894 q 160 1015 126 983 q 240 1047 193 1047 q 318 1015 285 1047 q 351 939 351 983 q 318 863 351 894 q 240 831 285 831 q 160 863 193 831 m 490 863 q 474 878 490 863 q 457 939 457 894 q 490 1015 457 983 q 571 1047 524 1047 q 649 1015 615 1047 q 682 939 682 983 q 649 863 682 894 q 571 831 615 831 q 490 863 524 831 z "},"ό":{"ha":844,"x_min":51,"x_max":794,"o":"m 54 344 q 161 599 51 492 q 422 703 271 706 q 684 599 574 706 q 792 344 794 492 q 683 90 794 197 q 421 -15 572 -18 q 160 90 269 -18 q 54 344 51 197 m 549 210 q 575 236 549 210 q 600 343 600 263 q 549 478 600 424 q 422 532 499 532 q 294 478 344 532 q 244 343 244 425 q 294 210 244 263 q 422 157 344 157 q 549 210 499 157 m 328 793 l 378 1083 l 600 1083 l 600 1050 l 465 793 l 328 793 z "},"ύ":{"ha":817,"x_min":86,"x_max":731,"o":"m 86 306 l 86 688 l 274 688 l 274 289 q 311 191 274 229 q 408 153 349 153 q 506 190 468 153 q 543 289 543 228 l 543 688 l 731 688 l 731 306 q 642 72 731 161 q 408 -17 553 -17 q 175 72 264 -17 q 86 306 86 161 m 310 793 l 360 1083 l 582 1083 l 582 1050 l 447 793 l 310 793 z "},"ώ":{"ha":1111,"x_min":54,"x_max":1057,"o":"m 1057 335 q 975 80 1057 176 q 756 -17 893 -17 q 556 75 626 -17 q 356 -17 488 -17 q 136 80 218 -17 q 54 335 54 176 q 119 569 54 474 q 300 696 183 664 l 363 536 q 242 331 242 475 q 275 201 242 249 q 365 153 308 153 q 440 186 413 153 q 467 279 467 219 l 467 475 l 643 475 l 643 279 q 670 186 643 219 q 746 153 697 153 q 836 201 803 153 q 869 331 869 249 q 750 536 869 475 l 811 696 q 992 569 928 664 q 1057 335 1057 474 m 461 793 l 511 1083 l 733 1083 l 733 1050 l 599 793 l 461 793 z "},"Ѐ":{"ha":796,"x_min":106,"x_max":739,"o":"m 106 0 l 106 917 l 722 917 l 722 747 l 293 747 l 293 561 l 608 561 l 608 401 l 293 401 l 293 169 l 739 169 l 739 0 l 106 0 m 342 1006 l 151 1231 l 151 1264 l 376 1264 l 478 1006 l 342 1006 z "},"Ё":{"ha":796,"x_min":106,"x_max":739,"o":"m 106 0 l 106 917 l 722 917 l 722 747 l 293 747 l 293 561 l 608 561 l 608 401 l 293 401 l 293 169 l 739 169 l 739 0 l 106 0 m 118 1131 q 151 1208 118 1176 q 229 1239 183 1239 q 310 1208 276 1239 q 343 1131 343 1176 q 310 1056 343 1088 q 229 1024 276 1024 q 152 1056 186 1024 q 118 1131 118 1089 m 476 1129 q 510 1207 476 1175 q 589 1239 543 1239 q 668 1207 635 1239 q 701 1129 701 1175 q 668 1054 701 1086 q 589 1022 635 1022 q 511 1055 546 1022 q 476 1129 476 1088 z "},"Ђ":{"ha":1044,"x_min":19,"x_max":990,"o":"m 668 -25 l 631 142 q 757 185 715 154 q 799 278 799 215 q 759 368 799 336 q 649 400 719 400 q 475 367 557 400 l 475 0 l 288 0 l 288 747 l 19 747 l 19 917 l 783 917 l 783 747 l 475 747 l 475 532 q 658 564 556 564 q 897 488 803 564 q 990 281 990 411 q 899 64 990 139 q 668 -25 807 -11 z "},"Ѓ":{"ha":728,"x_min":106,"x_max":694,"o":"m 106 0 l 106 917 l 694 917 l 694 747 l 293 747 l 293 0 l 106 0 m 315 1006 l 417 1264 l 642 1264 l 642 1231 l 451 1006 l 315 1006 z "},"Є":{"ha":1000,"x_min":49,"x_max":946,"o":"m 804 311 l 946 211 q 779 44 886 104 q 540 -17 672 -17 q 194 120 339 -21 q 53 458 49 261 q 196 797 50 656 q 542 933 342 938 q 778 873 672 933 q 946 706 885 813 l 804 606 q 542 760 706 760 q 359 701 436 760 q 257 543 282 642 l 644 543 l 644 383 l 254 383 q 355 219 276 281 q 542 157 433 157 q 804 311 706 157 z "},"Ѕ":{"ha":776,"x_min":42,"x_max":717,"o":"m 42 186 l 171 283 q 396 150 268 150 q 492 177 457 150 q 526 251 526 204 q 503 312 526 290 q 410 365 479 333 l 311 410 q 89 674 89 508 q 175 862 89 790 q 393 933 261 933 q 574 887 496 933 q 696 760 651 840 l 568 661 q 393 767 497 767 q 311 743 343 767 q 279 678 279 719 q 302 622 279 643 q 386 572 325 600 l 490 526 q 663 412 608 474 q 717 258 717 350 q 626 59 717 135 q 396 -17 536 -17 q 188 38 281 -17 q 42 186 96 92 z "},"І":{"ha":397,"x_min":106,"x_max":293,"o":"m 106 0 l 106 917 l 293 917 l 293 0 l 106 0 z "},"Ї":{"ha":397,"x_min":-93,"x_max":490,"o":"m 106 0 l 106 917 l 293 917 l 293 0 l 106 0 m -93 1131 q -60 1208 -93 1176 q 18 1239 -28 1239 q 99 1208 65 1239 q 132 1131 132 1176 q 99 1056 132 1088 q 18 1024 65 1024 q -59 1056 -25 1024 q -93 1131 -93 1089 m 265 1129 q 299 1207 265 1175 q 378 1239 332 1239 q 457 1207 424 1239 q 490 1129 490 1175 q 457 1054 490 1086 q 378 1022 424 1022 q 300 1055 335 1022 q 265 1129 265 1088 z "},"Ј":{"ha":540,"x_min":24,"x_max":435,"o":"m 24 0 l 24 160 q 115 154 90 154 q 215 180 183 154 q 247 264 247 206 l 247 917 l 435 917 l 435 244 q 363 49 435 115 q 156 -17 292 -17 q 24 0 90 -17 z "},"Љ":{"ha":1349,"x_min":0,"x_max":1294,"o":"m 1294 301 q 1201 83 1294 167 q 960 0 1107 0 l 606 0 l 606 747 l 374 747 q 337 289 369 456 q 243 56 304 122 q 79 -14 182 -11 q 0 0 38 -14 l 0 160 q 38 157 11 157 q 156 294 121 157 q 196 747 192 432 l 197 917 l 793 917 l 793 601 l 960 601 q 1201 517 1107 601 q 1294 301 1294 433 m 1065 201 q 1084 219 1065 201 q 1103 300 1103 238 q 1065 400 1103 363 q 960 438 1026 438 l 793 438 l 793 165 l 960 165 q 1065 201 1026 165 z "},"Њ":{"ha":1379,"x_min":106,"x_max":1325,"o":"m 106 0 l 106 917 l 293 917 l 293 589 l 635 589 l 635 917 l 822 917 l 822 589 l 990 589 q 1231 506 1136 589 q 1325 294 1325 424 q 1231 82 1325 164 q 990 0 1138 0 l 635 0 l 635 419 l 293 419 l 293 0 l 106 0 m 822 165 l 990 165 q 1095 200 1057 165 q 1133 293 1133 235 q 1095 388 1133 351 q 990 424 1057 424 l 822 424 l 822 165 z "},"Ћ":{"ha":1083,"x_min":19,"x_max":997,"o":"m 997 210 l 997 0 l 810 0 l 810 192 q 764 340 810 289 q 635 392 718 392 q 475 360 547 392 l 475 0 l 288 0 l 288 747 l 19 747 l 19 917 l 783 917 l 783 747 l 475 747 l 475 532 q 651 564 567 564 q 903 471 808 564 q 997 210 997 378 z "},"Ќ":{"ha":931,"x_min":106,"x_max":913,"o":"m 913 0 l 686 0 l 293 478 l 293 0 l 106 0 l 106 917 l 293 917 l 293 492 l 643 917 l 867 917 l 515 485 l 913 0 m 393 1006 l 494 1264 l 719 1264 l 719 1231 l 529 1006 l 393 1006 z "},"Ѝ":{"ha":996,"x_min":106,"x_max":892,"o":"m 829 933 l 892 933 l 892 0 l 704 0 l 704 568 l 167 -17 l 106 -17 l 106 917 l 293 917 l 293 354 l 829 933 m 457 1006 l 267 1231 l 267 1264 l 492 1264 l 593 1006 l 457 1006 z "},"Ў":{"ha":900,"x_min":24,"x_max":882,"o":"m 682 917 l 882 917 l 569 231 q 444 41 504 94 q 267 -15 385 -12 q 163 0 215 -15 l 163 160 q 236 156 197 156 q 365 214 319 156 l 24 917 l 233 917 l 467 418 l 682 917 m 231 1243 l 231 1264 l 381 1264 l 381 1238 q 404 1160 381 1188 q 471 1132 428 1132 q 538 1160 514 1132 q 561 1238 561 1188 l 561 1264 l 710 1264 l 710 1243 q 643 1067 710 1136 q 471 999 576 999 q 297 1067 364 999 q 231 1243 231 1136 z "},"Џ":{"ha":968,"x_min":106,"x_max":864,"o":"m 864 917 l 864 0 l 575 0 l 575 -196 l 394 -196 l 394 0 l 106 0 l 106 917 l 293 917 l 293 169 l 676 169 l 676 917 l 864 917 z "},"А":{"ha":918,"x_min":18,"x_max":899,"o":"m 697 0 l 646 119 l 271 119 l 219 0 l 18 0 l 428 933 l 490 933 l 899 0 l 697 0 m 581 274 l 458 583 l 336 274 l 581 274 z "},"Б":{"ha":842,"x_min":106,"x_max":794,"o":"m 106 0 l 106 917 l 717 917 l 717 747 l 293 747 l 293 557 l 486 557 q 709 481 624 557 q 794 282 794 406 q 708 78 794 157 q 486 0 622 0 l 106 0 m 293 161 l 476 161 q 574 194 539 161 q 608 282 608 226 q 574 370 608 338 q 476 403 539 403 l 293 403 l 293 161 z "},"В":{"ha":863,"x_min":106,"x_max":815,"o":"m 815 269 q 731 76 815 151 q 514 0 646 0 l 106 0 l 106 917 l 431 917 q 640 845 558 917 q 721 661 721 774 q 653 496 721 560 q 815 269 815 436 m 415 756 l 286 756 l 286 546 l 415 546 q 503 574 472 546 q 535 651 535 601 q 503 728 535 700 q 415 756 472 756 m 631 276 q 596 360 631 329 q 500 392 561 392 l 286 392 l 286 161 l 500 161 q 596 192 561 161 q 631 276 631 222 z "},"Г":{"ha":728,"x_min":106,"x_max":694,"o":"m 106 0 l 106 917 l 694 917 l 694 747 l 293 747 l 293 0 l 106 0 z "},"Д":{"ha":1001,"x_min":22,"x_max":968,"o":"m 846 169 l 968 169 l 968 -196 l 781 -196 l 781 0 l 210 0 l 210 -196 l 22 -196 l 22 169 l 96 169 q 208 765 208 263 l 208 917 l 846 917 l 846 169 m 300 169 l 658 169 l 658 747 l 385 747 q 300 169 378 321 z "},"Е":{"ha":796,"x_min":106,"x_max":739,"o":"m 106 0 l 106 917 l 722 917 l 722 747 l 293 747 l 293 561 l 608 561 l 608 401 l 293 401 l 293 169 l 739 169 l 739 0 l 106 0 z "},"Ж":{"ha":1376,"x_min":18,"x_max":1357,"o":"m 1357 0 l 1131 0 l 782 478 l 782 0 l 594 0 l 594 479 l 244 0 l 18 0 l 390 483 l 47 917 l 271 917 l 594 490 l 594 917 l 782 917 l 782 492 l 1104 917 l 1328 917 l 986 483 l 1357 0 z "},"З":{"ha":817,"x_min":54,"x_max":764,"o":"m 764 271 q 669 63 764 142 q 415 -17 574 -17 q 199 40 294 -17 q 54 196 104 96 l 185 290 q 414 157 275 157 q 533 190 486 157 q 579 281 579 224 q 541 362 579 332 q 431 392 503 392 l 310 392 l 310 546 l 417 546 q 506 575 474 546 q 539 651 539 604 q 505 731 539 701 q 410 760 471 760 q 219 640 289 760 l 89 733 q 222 881 136 829 q 419 933 307 933 q 642 862 560 933 q 724 667 724 790 q 632 482 724 556 q 764 271 764 418 z "},"И":{"ha":996,"x_min":106,"x_max":892,"o":"m 829 933 l 892 933 l 892 0 l 704 0 l 704 568 l 167 -17 l 106 -17 l 106 917 l 293 917 l 293 354 l 829 933 z "},"Й":{"ha":996,"x_min":106,"x_max":892,"o":"m 829 933 l 892 933 l 892 0 l 704 0 l 704 568 l 167 -17 l 106 -17 l 106 917 l 293 917 l 293 354 l 829 933 m 285 1243 l 285 1264 l 435 1264 l 435 1238 q 458 1160 435 1188 q 525 1132 482 1132 q 592 1160 568 1132 q 615 1238 615 1188 l 615 1264 l 764 1264 l 764 1243 q 697 1067 764 1136 q 525 999 631 999 q 351 1067 418 999 q 285 1243 285 1136 z "},"К":{"ha":931,"x_min":106,"x_max":913,"o":"m 913 0 l 686 0 l 293 478 l 293 0 l 106 0 l 106 917 l 293 917 l 293 492 l 643 917 l 867 917 l 515 485 l 913 0 z "},"Л":{"ha":932,"x_min":0,"x_max":826,"o":"m 197 917 l 826 917 l 826 0 l 639 0 l 639 747 l 375 747 q 335 288 369 454 q 241 55 301 121 q 79 -14 181 -11 q 0 0 38 -14 l 0 160 q 38 157 11 157 q 156 294 121 157 q 196 747 192 432 l 197 917 z "},"М":{"ha":1108,"x_min":106,"x_max":1003,"o":"m 942 933 l 1003 933 l 1003 0 l 815 0 l 815 489 l 585 200 l 524 200 l 293 489 l 293 0 l 106 0 l 106 933 l 167 933 l 554 438 l 942 933 z "},"Н":{"ha":990,"x_min":106,"x_max":886,"o":"m 106 0 l 106 917 l 293 917 l 293 565 l 699 565 l 699 917 l 886 917 l 886 0 l 699 0 l 699 396 l 293 396 l 293 0 l 106 0 z "},"О":{"ha":1081,"x_min":50,"x_max":1031,"o":"m 53 458 q 195 796 50 654 q 539 933 340 938 q 884 796 738 938 q 1028 458 1031 654 q 884 121 1031 263 q 539 -17 738 -21 q 195 121 340 -21 q 53 458 50 263 m 835 458 q 751 674 835 589 q 540 760 667 760 q 329 675 413 760 q 246 458 246 590 q 329 242 246 326 q 540 157 413 157 q 751 242 667 157 q 835 458 835 326 z "},"П":{"ha":976,"x_min":106,"x_max":872,"o":"m 106 0 l 106 917 l 872 917 l 872 0 l 685 0 l 685 747 l 293 747 l 293 0 l 106 0 z "},"Р":{"ha":825,"x_min":106,"x_max":781,"o":"m 106 0 l 106 917 l 450 917 q 688 835 594 917 q 781 621 781 753 q 688 407 781 490 q 450 324 594 324 l 293 324 l 293 0 l 106 0 m 293 488 l 450 488 q 552 524 515 488 q 589 621 589 561 q 551 715 589 679 q 450 751 513 751 l 293 751 l 293 488 z "},"С":{"ha":1000,"x_min":49,"x_max":946,"o":"m 53 458 q 196 797 50 656 q 542 933 342 938 q 778 873 672 933 q 946 706 885 813 l 804 606 q 542 760 706 760 q 330 674 414 760 q 246 457 246 588 q 330 242 246 326 q 542 157 414 157 q 804 311 706 157 l 946 211 q 779 44 886 104 q 540 -17 672 -17 q 194 120 339 -21 q 53 458 49 261 z "},"Т":{"ha":813,"x_min":19,"x_max":794,"o":"m 313 0 l 313 747 l 19 747 l 19 917 l 794 917 l 794 747 l 500 747 l 500 0 l 313 0 z "},"У":{"ha":900,"x_min":24,"x_max":882,"o":"m 682 917 l 882 917 l 569 231 q 444 41 504 94 q 267 -15 385 -12 q 163 0 215 -15 l 163 160 q 236 156 197 156 q 365 214 319 156 l 24 917 l 233 917 l 467 418 l 682 917 z "},"Ф":{"ha":1165,"x_min":50,"x_max":1115,"o":"m 675 83 l 675 -28 l 488 -28 l 488 83 q 170 194 290 92 q 50 467 50 296 q 169 736 50 638 q 488 843 292 835 l 488 944 l 675 944 l 675 843 q 994 735 874 835 q 1115 463 1115 635 q 994 192 1115 292 q 675 83 874 92 m 863 305 q 897 334 863 305 q 931 465 931 363 q 864 624 931 568 q 675 683 797 679 l 675 244 q 863 305 796 247 m 488 244 l 488 683 q 302 619 369 678 q 235 461 235 561 q 301 306 235 361 q 488 244 367 250 z "},"Х":{"ha":853,"x_min":18,"x_max":833,"o":"m 833 0 l 621 0 l 426 304 l 232 0 l 18 0 l 322 467 l 36 917 l 250 917 l 426 628 l 601 917 l 814 917 l 532 467 l 833 0 z "},"Ц":{"ha":1019,"x_min":106,"x_max":986,"o":"m 807 -196 l 807 0 l 106 0 l 106 917 l 293 917 l 293 169 l 676 169 l 676 917 l 864 917 l 864 169 l 986 169 l 986 -196 l 807 -196 z "},"Ч":{"ha":915,"x_min":67,"x_max":810,"o":"m 622 917 l 810 917 l 810 0 l 622 0 l 622 338 q 432 306 535 306 q 163 399 258 306 q 67 668 67 493 l 67 917 l 254 917 l 254 686 q 305 528 254 579 q 463 476 356 476 q 622 504 554 476 l 622 917 z "},"Ш":{"ha":1375,"x_min":106,"x_max":1271,"o":"m 106 0 l 106 917 l 293 917 l 293 169 l 594 169 l 594 917 l 782 917 l 782 169 l 1083 169 l 1083 917 l 1271 917 l 1271 0 l 106 0 z "},"Щ":{"ha":1425,"x_min":106,"x_max":1392,"o":"m 1213 -196 l 1213 0 l 106 0 l 106 917 l 293 917 l 293 169 l 594 169 l 594 917 l 782 917 l 782 169 l 1083 169 l 1083 917 l 1271 917 l 1271 169 l 1392 169 l 1392 -196 l 1213 -196 z "},"Ъ":{"ha":971,"x_min":19,"x_max":917,"o":"m 228 0 l 228 747 l 19 747 l 19 917 l 415 917 l 415 601 l 582 601 q 822 517 728 601 q 917 301 917 432 q 823 83 917 167 q 582 0 729 0 l 228 0 m 415 165 l 582 165 q 687 202 649 165 q 725 300 725 239 q 687 400 725 363 q 582 438 649 438 l 415 438 l 415 165 z "},"Ы":{"ha":1232,"x_min":106,"x_max":1128,"o":"m 106 0 l 106 917 l 293 917 l 293 601 l 460 601 q 701 517 607 601 q 794 301 794 433 q 701 83 794 167 q 460 0 607 0 l 106 0 m 293 165 l 460 165 q 565 202 526 165 q 603 300 603 239 q 565 400 603 363 q 460 438 526 438 l 293 438 l 293 165 m 940 0 l 940 917 l 1128 917 l 1128 0 l 940 0 z "},"Ь":{"ha":849,"x_min":106,"x_max":794,"o":"m 106 0 l 106 917 l 293 917 l 293 601 l 460 601 q 701 517 607 601 q 794 301 794 433 q 701 83 794 167 q 460 0 607 0 l 106 0 m 293 165 l 460 165 q 565 202 526 165 q 603 300 603 239 q 565 400 603 363 q 460 438 526 438 l 293 438 l 293 165 z "},"Э":{"ha":1000,"x_min":54,"x_max":950,"o":"m 946 458 q 805 121 950 263 q 460 -17 660 -21 q 221 44 328 -17 q 54 211 114 104 l 196 311 q 458 157 294 157 q 645 219 567 157 q 746 383 724 281 l 385 383 l 385 543 l 743 543 q 640 701 718 642 q 458 760 563 760 q 196 606 294 760 l 54 706 q 222 873 115 813 q 458 933 328 933 q 805 797 660 938 q 946 458 950 656 z "},"Ю":{"ha":1399,"x_min":106,"x_max":1350,"o":"m 1346 458 q 1207 121 1349 263 q 872 -17 1065 -21 q 561 101 692 -17 q 410 396 431 218 l 293 396 l 293 0 l 106 0 l 106 917 l 293 917 l 293 565 l 417 565 q 576 831 450 728 q 872 933 703 933 q 1208 796 1065 938 q 1346 458 1350 654 m 1074 242 q 1113 285 1074 242 q 1153 458 1153 328 q 1074 674 1153 589 q 872 760 994 760 q 670 675 750 760 q 590 458 590 590 q 670 242 590 326 q 872 157 750 157 q 1074 242 994 157 z "},"Я":{"ha":878,"x_min":50,"x_max":772,"o":"m 449 917 l 772 917 l 772 0 l 585 0 l 585 304 l 465 304 l 251 0 l 50 0 l 285 336 q 147 447 197 374 q 96 611 96 519 q 194 832 96 747 q 449 917 292 917 m 585 469 l 585 751 l 443 751 q 331 713 374 751 q 288 610 288 674 q 331 508 288 546 q 443 469 374 469 l 585 469 z "},"а":{"ha":757,"x_min":50,"x_max":669,"o":"m 669 408 l 669 0 l 497 0 l 497 67 q 288 -17 417 -17 q 115 40 179 -17 q 50 189 50 97 q 120 335 50 282 q 310 389 190 389 l 482 389 l 482 419 q 449 509 482 478 q 354 540 417 540 q 261 518 303 540 q 172 446 219 496 l 75 561 q 375 703 194 703 q 590 626 511 703 q 669 408 669 549 m 482 257 l 482 265 l 335 265 q 239 196 239 265 q 266 141 239 161 q 338 121 293 121 q 441 159 400 121 q 482 257 482 197 z "},"б":{"ha":857,"x_min":69,"x_max":804,"o":"m 804 332 q 701 83 804 182 q 439 -15 597 -15 q 171 97 272 -15 q 69 394 69 210 l 69 499 q 90 706 71 622 q 161 856 110 789 q 303 961 213 922 q 536 1018 394 1000 q 743 1057 686 1038 l 743 886 q 538 851 693 867 q 390 821 446 840 q 301 765 333 801 q 256 682 268 728 q 240 560 243 636 q 482 678 324 678 q 711 578 618 678 q 804 332 804 479 m 561 207 q 613 332 613 258 q 561 456 613 406 q 436 507 511 507 q 311 456 363 507 q 261 332 261 406 q 311 207 261 258 q 436 156 363 156 q 561 207 511 156 z "},"в":{"ha":768,"x_min":97,"x_max":710,"o":"m 710 210 q 640 59 710 118 q 463 0 569 0 l 97 0 l 97 688 l 417 688 q 591 635 524 688 q 658 494 658 582 q 603 368 658 419 q 710 210 710 321 m 275 547 l 275 419 l 406 419 q 489 483 489 419 q 406 547 489 547 l 275 547 m 512 160 q 525 170 512 160 q 538 215 538 181 q 512 269 538 250 q 442 289 486 289 l 275 289 l 275 139 l 442 139 q 512 160 486 139 z "},"г":{"ha":629,"x_min":97,"x_max":603,"o":"m 97 0 l 97 688 l 603 688 l 603 529 l 283 529 l 283 0 l 97 0 z "},"д":{"ha":883,"x_min":11,"x_max":839,"o":"m 725 158 l 839 158 l 839 -196 l 660 -196 l 660 0 l 190 0 l 190 -196 l 11 -196 l 11 158 l 85 158 q 145 282 126 199 q 169 517 164 365 l 175 688 l 725 688 l 725 158 m 276 158 l 539 158 l 539 529 l 342 529 l 340 489 q 276 158 333 271 z "},"е":{"ha":790,"x_min":51,"x_max":738,"o":"m 725 281 l 243 281 q 310 180 260 215 q 436 144 361 144 q 628 214 538 144 l 706 86 q 431 -17 582 -17 q 162 87 272 -19 q 54 343 51 193 q 158 599 51 492 q 414 703 265 706 q 647 611 556 703 q 738 383 738 519 q 725 281 738 333 m 243 413 l 556 413 q 512 513 554 475 q 407 551 469 551 q 303 514 347 551 q 243 413 258 476 z "},"ж":{"ha":1168,"x_min":11,"x_max":1157,"o":"m 1157 0 l 933 0 l 672 358 l 672 0 l 486 0 l 486 360 l 224 0 l 11 0 l 276 364 l 25 688 l 246 688 l 486 371 l 486 688 l 672 688 l 672 372 l 913 688 l 1132 688 l 888 369 l 1157 0 z "},"з":{"ha":682,"x_min":46,"x_max":624,"o":"m 624 201 q 551 40 624 96 q 342 -17 479 -17 q 46 113 146 -17 l 151 224 q 331 144 219 144 q 413 164 383 144 q 442 217 442 183 q 416 265 442 247 q 344 283 390 283 l 256 283 l 256 422 l 336 422 q 413 482 413 422 q 328 542 413 542 q 165 472 231 542 l 58 585 q 339 703 160 703 q 527 650 460 703 q 594 501 594 597 q 526 357 594 413 q 624 201 624 306 z "},"и":{"ha":826,"x_min":97,"x_max":729,"o":"m 668 703 l 729 703 l 729 0 l 542 0 l 542 372 l 158 -17 l 97 -17 l 97 688 l 283 688 l 283 313 l 668 703 z "},"й":{"ha":826,"x_min":97,"x_max":729,"o":"m 668 703 l 729 703 l 729 0 l 542 0 l 542 372 l 158 -17 l 97 -17 l 97 688 l 283 688 l 283 313 l 668 703 m 189 1035 l 189 1074 l 339 1074 l 339 1036 q 363 955 339 983 q 429 926 386 926 q 496 955 472 926 q 519 1036 519 983 l 519 1074 l 668 1074 l 668 1035 q 601 860 668 928 q 429 793 535 793 q 256 860 322 793 q 189 1035 189 928 z "},"к":{"ha":789,"x_min":97,"x_max":778,"o":"m 778 0 l 556 0 l 283 364 l 283 0 l 97 0 l 97 688 l 283 688 l 283 367 l 543 688 l 756 688 l 496 374 l 778 0 z "},"л":{"ha":797,"x_min":18,"x_max":700,"o":"m 154 688 l 700 688 l 700 0 l 514 0 l 514 529 l 329 529 l 328 476 q 269 99 321 208 q 89 -12 217 -10 q 18 0 50 -12 l 18 154 q 44 151 32 151 q 126 236 101 151 q 153 524 150 321 l 154 688 z "},"м":{"ha":963,"x_min":97,"x_max":865,"o":"m 97 0 l 97 703 l 158 703 l 481 343 l 806 703 l 865 703 l 865 0 l 678 0 l 678 331 l 511 143 l 449 143 l 283 329 l 283 0 l 97 0 z "},"н":{"ha":821,"x_min":97,"x_max":724,"o":"m 97 0 l 97 688 l 283 688 l 283 436 l 538 436 l 538 688 l 724 688 l 724 0 l 538 0 l 538 276 l 283 276 l 283 0 l 97 0 z "},"о":{"ha":844,"x_min":51,"x_max":794,"o":"m 54 344 q 161 599 51 492 q 422 703 271 706 q 684 599 574 706 q 792 344 794 492 q 683 90 794 197 q 421 -15 572 -18 q 160 90 269 -18 q 54 344 51 197 m 549 210 q 575 236 549 210 q 600 343 600 263 q 549 478 600 424 q 422 532 499 532 q 294 478 344 532 q 244 343 244 425 q 294 210 244 263 q 422 157 344 157 q 549 210 499 157 z "},"п":{"ha":813,"x_min":97,"x_max":715,"o":"m 97 0 l 97 688 l 715 688 l 715 0 l 528 0 l 528 529 l 283 529 l 283 0 l 97 0 z "},"р":{"ha":874,"x_min":93,"x_max":819,"o":"m 724 601 q 772 550 724 601 q 819 344 819 499 q 724 87 819 190 q 486 -17 629 -17 q 281 67 357 -17 l 281 -250 l 93 -250 l 93 688 l 265 688 l 265 601 q 486 703 336 703 q 724 601 629 703 m 629 343 q 579 481 629 428 q 451 533 529 533 q 327 483 376 533 q 278 344 278 433 q 327 205 278 256 q 451 154 376 154 q 578 207 528 154 q 629 343 629 260 z "},"с":{"ha":767,"x_min":51,"x_max":721,"o":"m 54 344 q 161 599 54 494 q 422 703 268 703 q 721 533 625 703 l 590 432 q 425 532 521 532 q 295 478 346 532 q 244 344 244 425 q 295 209 244 263 q 425 156 346 156 q 590 254 521 156 l 721 154 q 598 28 675 74 q 422 -17 521 -17 q 161 88 271 -19 q 54 344 51 196 z "},"т":{"ha":649,"x_min":19,"x_max":629,"o":"m 231 0 l 231 529 l 19 529 l 19 688 l 629 688 l 629 529 l 417 529 l 417 0 l 231 0 z "},"у":{"ha":776,"x_min":17,"x_max":760,"o":"m 563 688 l 760 688 l 431 -60 q 318 -217 383 -167 q 157 -267 253 -267 q 36 -250 99 -267 l 36 -93 q 117 -99 93 -99 q 203 -78 169 -99 q 260 -6 236 -57 l 281 42 l 17 688 l 215 688 l 383 236 l 563 688 z "},"ф":{"ha":1075,"x_min":54,"x_max":1021,"o":"m 631 -12 l 631 -250 l 444 -250 l 444 -12 q 163 92 271 -1 q 54 344 54 186 q 162 601 54 507 q 444 703 269 694 l 444 1042 l 631 1042 l 631 703 q 913 597 804 692 q 1021 344 1021 501 q 913 90 1021 183 q 631 -12 806 -4 m 449 146 l 449 543 q 295 486 350 538 q 240 343 240 435 q 296 204 240 256 q 449 146 351 153 m 835 347 q 778 488 835 435 q 626 543 722 540 l 626 146 q 780 203 725 151 q 835 347 835 256 z "},"х":{"ha":738,"x_min":11,"x_max":726,"o":"m 726 0 l 517 0 l 369 219 l 221 0 l 11 0 l 263 354 l 28 688 l 238 688 l 369 489 l 500 688 l 710 688 l 474 356 l 726 0 z "},"ц":{"ha":864,"x_min":97,"x_max":819,"o":"m 640 -196 l 640 0 l 97 0 l 97 688 l 283 688 l 283 158 l 519 158 l 519 688 l 706 688 l 706 158 l 819 158 l 819 -196 l 640 -196 z "},"ч":{"ha":769,"x_min":54,"x_max":672,"o":"m 485 688 l 672 688 l 672 0 l 485 0 l 485 242 q 336 219 431 219 q 128 298 203 219 q 54 518 54 376 l 54 688 l 240 688 l 240 532 q 375 386 240 386 q 485 404 440 386 l 485 688 z "},"ш":{"ha":1193,"x_min":97,"x_max":1097,"o":"m 97 0 l 97 688 l 283 688 l 283 158 l 504 158 l 504 688 l 690 688 l 690 158 l 911 158 l 911 688 l 1097 688 l 1097 0 l 97 0 z "},"щ":{"ha":1254,"x_min":97,"x_max":1210,"o":"m 1032 -196 l 1032 0 l 97 0 l 97 688 l 283 688 l 283 158 l 504 158 l 504 688 l 690 688 l 690 158 l 911 158 l 911 688 l 1097 688 l 1097 158 l 1210 158 l 1210 -196 l 1032 -196 z "},"ъ":{"ha":836,"x_min":19,"x_max":783,"o":"m 186 0 l 186 529 l 19 529 l 19 688 l 372 688 l 372 489 l 497 489 q 703 424 621 489 q 783 246 783 360 q 703 65 783 132 q 497 0 621 0 l 186 0 m 372 158 l 492 158 q 566 180 539 158 q 593 243 593 201 q 565 307 593 283 q 492 331 538 331 l 372 331 l 372 158 z "},"ы":{"ha":1056,"x_min":97,"x_max":958,"o":"m 97 0 l 97 688 l 283 688 l 283 489 l 408 489 q 614 424 532 489 q 694 246 694 360 q 614 65 694 129 q 408 0 532 0 l 97 0 m 772 0 l 772 688 l 958 688 l 958 0 l 772 0 m 283 158 l 403 158 q 504 243 504 158 q 477 308 504 285 q 403 331 450 331 l 283 331 l 283 158 z "},"ь":{"ha":749,"x_min":97,"x_max":694,"o":"m 97 0 l 97 688 l 283 688 l 283 489 l 408 489 q 614 424 533 489 q 694 246 694 360 q 615 67 694 133 q 408 0 536 0 l 97 0 m 283 158 l 403 158 q 477 180 450 158 q 504 243 504 201 q 476 307 504 283 q 403 331 449 331 l 283 331 l 283 158 z "},"э":{"ha":767,"x_min":46,"x_max":714,"o":"m 606 599 q 660 548 606 599 q 714 344 714 496 q 606 88 714 193 q 343 -17 499 -17 q 46 154 153 -17 l 171 250 q 343 149 242 149 q 454 185 406 149 q 519 281 503 222 l 294 281 l 294 414 l 518 414 q 451 504 497 471 q 343 538 404 538 q 171 438 244 538 l 46 533 q 343 703 150 703 q 606 599 499 703 z "},"ю":{"ha":1131,"x_min":97,"x_max":1079,"o":"m 1076 344 q 972 90 1079 197 q 719 -15 864 -18 q 494 67 590 -15 q 375 276 399 149 l 283 276 l 283 0 l 97 0 l 97 688 l 283 688 l 283 436 l 381 436 q 501 628 408 556 q 719 703 594 703 q 972 598 865 706 q 1076 344 1079 490 m 840 210 q 864 236 840 210 q 889 343 889 263 q 839 478 889 424 q 717 532 790 532 q 592 478 640 532 q 543 343 543 425 q 592 210 543 263 q 715 157 642 157 q 840 210 790 157 z "},"я":{"ha":771,"x_min":33,"x_max":674,"o":"m 363 688 l 674 688 l 674 0 l 488 0 l 488 211 l 414 211 l 244 0 l 33 0 l 228 238 q 120 321 158 265 q 82 450 82 376 q 158 623 82 558 q 363 688 235 688 m 488 363 l 488 529 l 369 529 q 299 507 325 529 q 272 447 272 485 q 299 385 272 408 q 369 363 325 363 l 488 363 z "},"ѐ":{"ha":790,"x_min":51,"x_max":738,"o":"m 725 281 l 243 281 q 310 180 260 215 q 436 144 361 144 q 628 214 538 144 l 706 86 q 431 -17 582 -17 q 162 87 272 -19 q 54 343 51 193 q 158 599 51 492 q 414 703 265 706 q 647 611 556 703 q 738 383 738 519 q 725 281 738 333 m 243 413 l 556 413 q 512 513 554 475 q 407 551 469 551 q 303 514 347 551 q 243 413 258 476 m 346 793 l 156 1050 l 156 1083 l 381 1083 l 482 793 l 346 793 z "},"ё":{"ha":790,"x_min":51,"x_max":738,"o":"m 725 281 l 243 281 q 310 180 260 215 q 436 144 361 144 q 628 214 538 144 l 706 86 q 431 -17 582 -17 q 162 87 272 -19 q 54 343 51 193 q 158 599 51 492 q 414 703 265 706 q 647 611 556 703 q 738 383 738 519 q 725 281 738 333 m 243 413 l 556 413 q 512 513 554 475 q 407 551 469 551 q 303 514 347 551 q 243 413 258 476 m 169 863 q 153 878 169 863 q 136 939 136 894 q 169 1015 136 983 q 250 1047 203 1047 q 328 1015 294 1047 q 361 939 361 983 q 328 863 361 894 q 250 831 294 831 q 169 863 203 831 m 500 863 q 483 878 500 863 q 467 939 467 894 q 500 1015 467 983 q 581 1047 533 1047 q 658 1015 625 1047 q 692 939 692 983 q 658 863 692 894 q 581 831 625 831 q 500 863 533 831 z "},"ђ":{"ha":824,"x_min":-6,"x_max":736,"o":"m 736 386 l 736 -8 q 667 -201 736 -136 q 471 -267 597 -267 q 368 -251 418 -267 l 368 -94 q 425 -99 401 -99 q 519 -74 489 -99 q 549 8 549 -49 l 549 360 q 514 456 549 419 q 422 493 479 493 q 327 456 364 493 q 290 360 290 419 l 290 0 l 104 0 l 104 767 l -6 767 l -6 921 l 104 921 l 104 1042 l 290 1042 l 290 921 l 556 921 l 556 767 l 290 767 l 290 588 q 479 663 361 663 q 666 587 596 663 q 736 386 736 511 z "},"ѓ":{"ha":629,"x_min":97,"x_max":603,"o":"m 97 0 l 97 688 l 603 688 l 603 529 l 283 529 l 283 0 l 97 0 m 272 793 l 374 1083 l 599 1083 l 599 1050 l 408 793 l 272 793 z "},"є":{"ha":767,"x_min":51,"x_max":721,"o":"m 596 250 l 721 154 q 425 -17 614 -17 q 161 88 271 -19 q 54 344 51 196 q 161 599 51 493 q 425 703 271 706 q 721 533 618 703 l 596 438 q 424 538 528 538 q 317 504 363 538 q 250 414 271 471 l 472 414 l 472 281 l 249 281 q 313 185 265 222 q 424 149 361 149 q 596 250 525 149 z "},"ѕ":{"ha":632,"x_min":31,"x_max":583,"o":"m 31 117 l 125 231 q 318 138 214 138 q 381 152 357 138 q 406 194 406 167 q 391 227 406 215 q 335 257 376 239 l 261 288 q 118 376 163 328 q 74 497 74 424 q 143 648 74 593 q 326 703 213 703 q 574 600 479 703 l 479 485 q 325 550 410 550 q 251 501 251 550 q 267 469 251 482 q 324 440 282 457 l 390 413 q 538 324 493 371 q 583 203 583 276 q 507 42 583 100 q 315 -17 432 -17 q 31 117 131 -17 z "},"і":{"ha":386,"x_min":72,"x_max":313,"o":"m 72 938 q 108 1021 72 988 q 193 1054 143 1054 q 278 1021 243 1054 q 313 938 313 988 q 278 856 313 889 q 193 822 243 822 q 108 856 143 822 q 72 938 72 889 m 100 0 l 100 688 l 286 688 l 286 0 l 100 0 z "},"ї":{"ha":374,"x_min":1,"x_max":376,"o":"m 1 938 q 26 1023 1 992 q 92 1054 50 1054 q 156 1023 132 1054 q 181 938 181 992 q 157 853 181 883 q 92 822 133 822 q 26 853 50 822 q 1 938 1 885 m 197 938 q 222 1023 197 992 q 288 1054 246 1054 q 352 1023 328 1054 q 376 938 376 992 q 352 853 376 883 q 288 822 328 822 q 222 853 246 822 q 197 938 197 885 m 93 0 l 93 688 l 281 688 l 281 0 l 93 0 z "},"ј":{"ha":374,"x_min":-87,"x_max":307,"o":"m -87 -251 l -87 -94 q -31 -99 -54 -99 q 63 -74 33 -99 q 93 8 93 -49 l 93 688 l 281 688 l 281 -8 q 211 -201 281 -135 q 17 -267 142 -267 q -87 -251 -37 -267 m 67 938 q 101 1021 67 988 q 186 1054 136 1054 q 272 1021 236 1054 q 307 938 307 988 q 272 856 307 889 q 186 822 236 822 q 101 856 136 822 q 67 938 67 889 z "},"љ":{"ha":1146,"x_min":18,"x_max":1092,"o":"m 1092 250 q 1011 67 1092 133 q 806 0 932 0 l 496 0 l 496 529 l 329 529 l 328 476 q 269 99 321 208 q 89 -12 217 -10 q 18 0 50 -12 l 18 154 q 44 151 32 151 q 126 236 101 151 q 153 524 150 321 l 154 688 l 682 688 l 682 489 l 806 489 q 1011 425 933 489 q 1092 250 1092 361 m 901 247 q 873 308 901 285 q 800 331 844 331 l 682 331 l 682 158 l 800 158 q 874 182 847 158 q 901 247 901 206 z "},"њ":{"ha":1163,"x_min":97,"x_max":1108,"o":"m 1108 235 q 1029 63 1108 125 q 819 0 950 0 l 508 0 l 508 310 l 283 310 l 283 0 l 97 0 l 97 688 l 283 688 l 283 468 l 508 468 l 508 688 l 694 688 l 694 468 l 819 468 q 1028 406 947 468 q 1108 235 1108 346 m 918 235 q 890 292 918 271 q 818 314 863 314 l 694 314 l 694 154 l 818 154 q 891 176 864 154 q 918 235 918 197 z "},"ћ":{"ha":824,"x_min":-6,"x_max":736,"o":"m 736 386 l 736 0 l 549 0 l 549 360 q 514 456 549 419 q 422 493 479 493 q 327 456 364 493 q 290 360 290 419 l 290 0 l 104 0 l 104 765 l -6 765 l -6 919 l 104 919 l 104 1042 l 290 1042 l 290 919 l 556 919 l 556 765 l 290 765 l 290 588 q 479 663 361 663 q 666 587 596 663 q 736 386 736 511 z "},"ќ":{"ha":789,"x_min":97,"x_max":778,"o":"m 778 0 l 556 0 l 283 364 l 283 0 l 97 0 l 97 688 l 283 688 l 283 367 l 543 688 l 756 688 l 496 374 l 778 0 m 342 793 l 443 1083 l 668 1083 l 668 1050 l 478 793 l 342 793 z "},"ѝ":{"ha":826,"x_min":97,"x_max":729,"o":"m 668 703 l 729 703 l 729 0 l 542 0 l 542 372 l 158 -17 l 97 -17 l 97 688 l 283 688 l 283 313 l 668 703 m 361 793 l 171 1050 l 171 1083 l 396 1083 l 497 793 l 361 793 z "},"ў":{"ha":776,"x_min":17,"x_max":760,"o":"m 563 688 l 760 688 l 431 -60 q 318 -217 383 -167 q 157 -267 253 -267 q 36 -250 99 -267 l 36 -93 q 117 -99 93 -99 q 203 -78 169 -99 q 260 -6 236 -57 l 281 42 l 17 688 l 215 688 l 383 236 l 563 688 m 147 1035 l 147 1074 l 297 1074 l 297 1036 q 321 955 297 983 q 388 926 344 926 q 454 955 431 926 q 478 1036 478 983 l 478 1074 l 626 1074 l 626 1035 q 560 860 626 928 q 388 793 493 793 q 214 860 281 793 q 147 1035 147 928 z "},"џ":{"ha":803,"x_min":97,"x_max":707,"o":"m 707 688 l 707 0 l 492 0 l 492 -196 l 313 -196 l 313 0 l 97 0 l 97 688 l 283 688 l 283 158 l 521 158 l 521 688 l 707 688 z "},"Ѣ":{"ha":971,"x_min":19,"x_max":917,"o":"m 228 0 l 228 672 l 19 672 l 19 825 l 228 825 l 228 933 l 415 933 l 415 825 l 681 825 l 681 672 l 415 672 l 415 556 l 588 556 q 828 481 740 556 q 917 276 917 406 q 828 74 917 149 q 585 0 739 0 l 228 0 m 415 165 l 589 165 q 688 196 651 165 q 725 278 725 226 q 688 361 725 329 q 589 393 651 393 l 415 393 l 415 165 z "},"ѣ":{"ha":828,"x_min":-6,"x_max":774,"o":"m 176 0 l 176 540 l -6 540 l -6 688 l 176 688 l 176 1042 l 364 1042 l 364 688 l 590 688 l 590 540 l 364 540 l 364 442 l 506 442 q 699 382 625 442 q 774 222 774 322 q 699 60 774 119 q 506 0 625 0 l 176 0 m 364 147 l 492 147 q 583 221 583 147 q 559 275 583 256 q 490 294 535 294 l 364 294 l 364 147 z "},"Ѳ":{"ha":1081,"x_min":50,"x_max":1031,"o":"m 1028 458 q 884 121 1031 263 q 539 -17 738 -21 q 195 121 340 -21 q 53 458 50 263 q 195 796 50 654 q 539 933 340 938 q 884 796 738 938 q 1028 458 1031 654 m 249 528 q 400 563 319 563 q 542 540 453 563 q 682 517 625 517 q 826 549 751 517 q 722 706 800 647 q 539 764 644 764 q 349 699 428 764 q 249 528 269 635 m 832 386 q 682 353 758 353 q 539 376 633 353 q 400 400 456 400 q 253 367 325 400 q 357 211 279 269 q 539 153 435 153 q 729 217 651 153 q 832 386 810 281 z "},"ѳ":{"ha":844,"x_min":51,"x_max":794,"o":"m 792 344 q 683 89 794 196 q 421 -15 572 -18 q 160 89 269 -18 q 54 344 51 196 q 161 599 54 494 q 422 703 268 703 q 684 599 576 703 q 792 344 792 494 m 240 407 q 324 426 286 426 q 424 408 365 426 q 436 405 425 408 q 459 399 447 401 q 489 393 471 396 q 522 390 507 390 q 603 408 561 390 q 536 506 585 469 q 422 543 488 543 q 307 506 356 543 q 240 407 258 469 m 607 290 q 521 271 557 271 q 421 289 475 271 q 324 306 361 306 q 239 286 286 306 q 303 184 254 222 q 421 146 353 146 q 541 185 490 146 q 607 290 592 225 z "},"Ѵ":{"ha":944,"x_min":18,"x_max":944,"o":"m 944 915 l 944 754 q 896 758 915 758 q 835 739 858 758 q 792 674 811 719 l 490 -17 l 428 -17 l 18 917 l 231 917 l 460 358 l 625 758 q 713 888 660 847 q 853 929 767 929 q 944 915 897 929 z "},"ѵ":{"ha":775,"x_min":17,"x_max":775,"o":"m 775 688 l 775 531 l 735 532 q 687 518 704 532 q 653 472 669 504 l 419 -17 l 357 -17 l 17 688 l 214 688 l 389 297 l 500 549 q 579 664 536 628 q 690 700 622 700 q 775 688 731 700 z "},"Ґ":{"ha":693,"x_min":106,"x_max":660,"o":"m 106 0 l 106 917 l 481 917 l 481 1113 l 660 1113 l 660 747 l 293 747 l 293 0 l 106 0 z "},"ґ":{"ha":629,"x_min":97,"x_max":603,"o":"m 97 0 l 97 688 l 424 688 l 424 883 l 603 883 l 603 529 l 283 529 l 283 0 l 97 0 z "},"Ғ":{"ha":719,"x_min":3,"x_max":686,"o":"m 686 747 l 306 747 l 306 506 l 521 506 l 521 349 l 306 349 l 306 0 l 118 0 l 118 349 l 3 349 l 3 506 l 118 506 l 118 917 l 686 917 l 686 747 z "},"ғ":{"ha":629,"x_min":-6,"x_max":603,"o":"m 603 529 l 283 529 l 283 388 l 456 388 l 456 236 l 283 236 l 283 0 l 97 0 l 97 236 l -6 236 l -6 388 l 97 388 l 97 688 l 603 688 l 603 529 z "},"Җ":{"ha":1381,"x_min":18,"x_max":1372,"o":"m 1226 169 l 1372 169 l 1372 -196 l 1193 -196 l 1193 0 l 1131 0 l 782 478 l 782 0 l 594 0 l 594 479 l 244 0 l 18 0 l 390 483 l 47 917 l 271 917 l 594 490 l 594 917 l 782 917 l 782 492 l 1104 917 l 1328 917 l 986 483 l 1226 169 z "},"җ":{"ha":1218,"x_min":11,"x_max":1174,"o":"m 1046 158 l 1174 158 l 1174 -196 l 994 -196 l 994 0 l 949 0 l 678 368 l 678 0 l 492 0 l 492 367 l 222 0 l 11 0 l 281 371 l 31 688 l 251 688 l 492 381 l 492 688 l 678 688 l 678 379 l 918 688 l 1138 688 l 889 374 l 1046 158 z "},"Ҙ":{"ha":817,"x_min":54,"x_max":764,"o":"m 764 271 q 669 63 764 142 q 415 -17 574 -17 q 199 40 294 -17 q 54 196 104 96 l 185 290 q 414 157 275 157 q 533 190 486 157 q 579 281 579 224 q 541 362 579 332 q 431 392 503 392 l 310 392 l 310 546 l 417 546 q 506 575 474 546 q 539 651 539 604 q 505 731 539 701 q 410 760 471 760 q 219 640 289 760 l 89 733 q 222 881 136 829 q 419 933 307 933 q 642 862 560 933 q 724 667 724 790 q 632 482 724 556 q 764 271 764 418 m 228 -253 l 228 -129 q 311 -132 275 -132 q 397 -53 397 -132 q 379 28 397 -14 l 453 61 q 546 -90 546 10 q 488 -217 546 -168 q 331 -267 429 -267 q 228 -253 274 -267 z "},"ҙ":{"ha":682,"x_min":46,"x_max":624,"o":"m 624 201 q 551 40 624 96 q 342 -17 479 -17 q 46 113 146 -17 l 151 224 q 331 144 219 144 q 413 164 383 144 q 442 217 442 183 q 416 265 442 247 q 344 283 390 283 l 256 283 l 256 422 l 336 422 q 413 482 413 422 q 328 542 413 542 q 165 472 231 542 l 58 585 q 339 703 160 703 q 527 650 460 703 q 594 501 594 597 q 526 357 594 413 q 624 201 624 306 m 165 -253 l 165 -129 q 249 -132 213 -132 q 335 -53 335 -132 q 317 28 335 -14 l 390 61 q 483 -90 483 10 q 425 -217 483 -168 q 268 -267 367 -267 q 165 -253 211 -267 z "},"Қ":{"ha":935,"x_min":106,"x_max":926,"o":"m 776 169 l 926 169 l 926 -196 l 747 -196 l 747 0 l 686 0 l 293 478 l 293 0 l 106 0 l 106 917 l 293 917 l 293 492 l 643 917 l 867 917 l 517 486 l 776 169 z "},"қ":{"ha":831,"x_min":97,"x_max":786,"o":"m 657 158 l 786 158 l 786 -196 l 607 -196 l 607 0 l 561 0 l 283 368 l 283 0 l 97 0 l 97 688 l 283 688 l 283 379 l 539 688 l 753 688 l 490 376 l 657 158 z "},"Ҡ":{"ha":1167,"x_min":19,"x_max":1147,"o":"m 1147 0 l 921 0 l 528 478 l 528 0 l 340 0 l 340 747 l 19 747 l 19 917 l 528 917 l 528 492 l 878 917 l 1101 917 l 750 485 l 1147 0 z "},"ҡ":{"ha":967,"x_min":19,"x_max":956,"o":"m 956 0 l 742 0 l 461 372 l 461 0 l 274 0 l 274 529 l 19 529 l 19 688 l 461 688 l 461 375 l 719 688 l 933 688 l 671 376 l 956 0 z "},"Ң":{"ha":1042,"x_min":106,"x_max":1008,"o":"m 828 -196 l 828 0 l 699 0 l 699 396 l 293 396 l 293 0 l 106 0 l 106 917 l 293 917 l 293 565 l 699 565 l 699 917 l 886 917 l 886 169 l 1008 169 l 1008 -196 l 828 -196 z "},"ң":{"ha":874,"x_min":97,"x_max":829,"o":"m 651 -196 l 651 0 l 538 0 l 538 276 l 283 276 l 283 0 l 97 0 l 97 688 l 283 688 l 283 436 l 538 436 l 538 688 l 724 688 l 724 158 l 829 158 l 829 -196 l 651 -196 z "},"Ҫ":{"ha":1000,"x_min":49,"x_max":946,"o":"m 53 458 q 196 797 50 656 q 542 933 342 938 q 778 873 672 933 q 946 706 885 813 l 804 606 q 542 760 706 760 q 330 674 414 760 q 246 457 246 588 q 330 242 246 326 q 542 157 414 157 q 804 311 706 157 l 946 211 q 779 44 886 104 q 540 -17 672 -17 q 194 120 339 -21 q 53 458 49 261 m 353 -253 l 353 -129 q 436 -132 400 -132 q 522 -53 522 -132 q 504 28 522 -14 l 578 61 q 671 -90 671 10 q 613 -217 671 -168 q 456 -267 554 -267 q 353 -253 399 -267 z "},"ҫ":{"ha":767,"x_min":51,"x_max":721,"o":"m 54 344 q 161 599 54 494 q 422 703 268 703 q 721 533 625 703 l 590 432 q 425 532 521 532 q 295 478 346 532 q 244 344 244 425 q 295 209 244 263 q 425 156 346 156 q 590 254 521 156 l 721 154 q 598 28 675 74 q 422 -17 521 -17 q 161 88 271 -19 q 54 344 51 196 m 225 -253 l 225 -129 q 308 -132 272 -132 q 394 -53 394 -132 q 376 28 394 -14 l 450 61 q 543 -90 543 10 q 485 -217 543 -168 q 328 -267 426 -267 q 225 -253 271 -267 z "},"Ү":{"ha":867,"x_min":24,"x_max":843,"o":"m 843 917 l 528 361 l 528 0 l 340 0 l 340 360 l 24 917 l 232 917 l 435 553 l 636 917 l 843 917 z "},"ү":{"ha":776,"x_min":17,"x_max":760,"o":"m 760 688 l 481 -1 l 481 -250 l 294 -250 l 294 -4 l 17 688 l 214 688 l 389 186 l 561 688 l 760 688 z "},"Ұ":{"ha":867,"x_min":24,"x_max":843,"o":"m 843 917 l 531 367 l 728 367 l 728 210 l 528 210 l 528 0 l 340 0 l 340 210 l 140 210 l 140 367 l 336 367 l 24 917 l 232 917 l 435 553 l 636 917 l 843 917 z "},"ұ":{"ha":776,"x_min":17,"x_max":760,"o":"m 760 688 l 485 0 l 656 0 l 656 -150 l 481 -150 l 481 -250 l 294 -250 l 294 -150 l 121 -150 l 121 0 l 292 0 l 17 688 l 214 688 l 389 185 l 561 688 l 760 688 z "},"Ҳ":{"ha":871,"x_min":18,"x_max":863,"o":"m 725 169 l 863 169 l 863 -196 l 683 -196 l 683 0 l 621 0 l 426 304 l 232 0 l 18 0 l 322 467 l 36 917 l 250 917 l 426 628 l 601 917 l 814 917 l 532 467 l 725 169 z "},"ҳ":{"ha":786,"x_min":11,"x_max":742,"o":"m 614 158 l 742 158 l 742 -196 l 563 -196 l 563 0 l 517 0 l 368 218 l 219 0 l 11 0 l 264 356 l 28 688 l 236 688 l 368 490 l 501 688 l 710 688 l 472 356 l 614 158 z "},"Ҷ":{"ha":965,"x_min":67,"x_max":932,"o":"m 810 169 l 932 169 l 932 -196 l 753 -196 l 753 0 l 622 0 l 622 338 q 432 306 535 306 q 163 399 258 306 q 67 668 67 493 l 67 917 l 254 917 l 254 686 q 305 528 254 579 q 463 476 356 476 q 622 504 554 476 l 622 917 l 810 917 l 810 169 z "},"ҷ":{"ha":831,"x_min":54,"x_max":786,"o":"m 672 158 l 786 158 l 786 -196 l 608 -196 l 608 0 l 486 0 l 486 251 q 336 219 418 219 q 128 298 203 219 q 54 518 54 376 l 54 688 l 240 688 l 240 532 q 367 386 240 386 q 486 413 432 386 l 486 688 l 672 688 l 672 158 z "},"Һ":{"ha":915,"x_min":106,"x_max":849,"o":"m 849 249 l 849 0 l 661 0 l 661 231 q 610 389 661 338 q 453 440 560 440 q 293 413 361 440 l 293 0 l 106 0 l 106 917 l 293 917 l 293 579 q 483 611 381 611 q 753 517 657 611 q 849 249 849 424 z "},"һ":{"ha":813,"x_min":93,"x_max":725,"o":"m 725 426 l 725 0 l 539 0 l 539 400 q 503 497 539 460 q 411 533 468 533 q 317 497 354 533 q 281 400 281 460 l 281 0 l 93 0 l 93 1042 l 281 1042 l 281 629 q 469 703 354 703 q 656 627 586 703 q 725 426 725 551 z "},"Ӏ":{"ha":397,"x_min":106,"x_max":293,"o":"m 106 0 l 106 917 l 293 917 l 293 0 l 106 0 z "},"Ӂ":{"ha":1376,"x_min":18,"x_max":1357,"o":"m 1357 0 l 1131 0 l 782 478 l 782 0 l 594 0 l 594 479 l 244 0 l 18 0 l 390 483 l 47 917 l 271 917 l 594 490 l 594 917 l 782 917 l 782 492 l 1104 917 l 1328 917 l 986 483 l 1357 0 m 447 1243 l 447 1264 l 597 1264 l 597 1238 q 621 1160 597 1188 q 688 1132 644 1132 q 754 1160 731 1132 q 778 1238 778 1188 l 778 1264 l 926 1264 l 926 1243 q 860 1067 926 1136 q 688 999 793 999 q 514 1067 581 999 q 447 1243 447 1136 z "},"ӂ":{"ha":1168,"x_min":11,"x_max":1157,"o":"m 1157 0 l 933 0 l 672 358 l 672 0 l 486 0 l 486 360 l 224 0 l 11 0 l 276 364 l 25 688 l 246 688 l 486 371 l 486 688 l 672 688 l 672 372 l 913 688 l 1132 688 l 888 369 l 1157 0 m 339 1035 l 339 1074 l 489 1074 l 489 1036 q 513 955 489 983 q 579 926 536 926 q 646 955 622 926 q 669 1036 669 983 l 669 1074 l 818 1074 l 818 1035 q 751 860 818 928 q 579 793 685 793 q 406 860 472 793 q 339 1035 339 928 z "},"ӏ":{"ha":381,"x_min":97,"x_max":283,"o":"m 97 0 l 97 1042 l 283 1042 l 283 0 l 97 0 z "},"Ӑ":{"ha":918,"x_min":18,"x_max":899,"o":"m 697 0 l 646 119 l 271 119 l 219 0 l 18 0 l 428 933 l 490 933 l 899 0 l 697 0 m 581 274 l 458 583 l 336 274 l 581 274 m 219 1243 l 219 1264 l 369 1264 l 369 1238 q 393 1160 369 1188 q 460 1132 417 1132 q 526 1160 503 1132 q 550 1238 550 1188 l 550 1264 l 699 1264 l 699 1243 q 632 1067 699 1136 q 460 999 565 999 q 286 1067 353 999 q 219 1243 219 1136 z "},"ӑ":{"ha":757,"x_min":50,"x_max":669,"o":"m 669 408 l 669 0 l 497 0 l 497 67 q 288 -17 417 -17 q 115 40 179 -17 q 50 189 50 97 q 120 335 50 282 q 310 389 190 389 l 482 389 l 482 419 q 449 509 482 478 q 354 540 417 540 q 261 518 303 540 q 172 446 219 496 l 75 561 q 375 703 194 703 q 590 626 511 703 q 669 408 669 549 m 482 257 l 482 265 l 335 265 q 239 196 239 265 q 266 141 239 161 q 338 121 293 121 q 441 159 400 121 q 482 257 482 197 m 136 1035 l 136 1074 l 286 1074 l 286 1036 q 310 955 286 983 q 376 926 333 926 q 443 955 419 926 q 467 1036 467 983 l 467 1074 l 615 1074 l 615 1035 q 549 860 615 928 q 376 793 482 793 q 203 860 269 793 q 136 1035 136 928 z "},"Ӕ":{"ha":1183,"x_min":7,"x_max":1128,"o":"m 789 169 l 1128 169 l 1128 0 l 635 0 l 614 119 l 271 119 l 208 0 l 7 0 l 476 917 l 1111 917 l 1111 747 l 693 747 l 724 561 l 999 561 l 999 401 l 750 401 l 789 169 m 528 647 l 349 274 l 588 274 l 528 647 z "},"ӕ":{"ha":1219,"x_min":50,"x_max":1167,"o":"m 1153 274 l 674 274 q 742 178 692 211 q 865 144 793 144 q 1056 214 965 144 l 1133 86 q 861 -17 1014 -17 q 572 122 671 -17 q 301 -17 489 -17 q 117 40 183 -17 q 50 190 50 97 q 120 342 50 286 q 310 397 190 397 l 482 397 l 482 419 q 449 509 482 478 q 356 540 417 540 q 172 446 264 540 l 76 561 q 375 703 194 703 q 601 601 529 703 q 844 703 696 703 q 1075 611 983 703 q 1167 383 1167 519 q 1153 274 1167 321 m 668 397 l 985 397 q 945 509 986 467 q 838 551 904 551 q 728 510 774 551 q 668 397 682 468 m 482 256 l 482 274 l 335 274 q 239 201 239 274 q 265 143 239 164 q 336 122 292 122 q 440 160 399 122 q 482 256 482 197 z "},"Ӗ":{"ha":796,"x_min":106,"x_max":739,"o":"m 106 0 l 106 917 l 722 917 l 722 747 l 293 747 l 293 561 l 608 561 l 608 401 l 293 401 l 293 169 l 739 169 l 739 0 l 106 0 m 158 1243 l 158 1264 l 308 1264 l 308 1238 q 332 1160 308 1188 q 399 1132 356 1132 q 465 1160 442 1132 q 489 1238 489 1188 l 489 1264 l 638 1264 l 638 1243 q 571 1067 638 1136 q 399 999 504 999 q 225 1067 292 999 q 158 1243 158 1136 z "},"ӗ":{"ha":790,"x_min":51,"x_max":738,"o":"m 725 281 l 243 281 q 310 180 260 215 q 436 144 361 144 q 628 214 538 144 l 706 86 q 431 -17 582 -17 q 162 87 272 -19 q 54 343 51 193 q 158 599 51 492 q 414 703 265 706 q 647 611 556 703 q 738 383 738 519 q 725 281 738 333 m 243 413 l 556 413 q 512 513 554 475 q 407 551 469 551 q 303 514 347 551 q 243 413 258 476 m 156 1035 l 156 1074 l 306 1074 l 306 1036 q 329 955 306 983 q 396 926 353 926 q 463 955 439 926 q 486 1036 486 983 l 486 1074 l 635 1074 l 635 1035 q 568 860 635 928 q 396 793 501 793 q 222 860 289 793 q 156 1035 156 928 z "},"Ә":{"ha":1018,"x_min":50,"x_max":967,"o":"m 964 460 q 826 122 967 264 q 490 -17 685 -19 q 178 102 307 -19 q 53 403 50 224 q 65 524 53 464 l 768 524 q 676 697 750 632 q 494 761 603 761 q 229 619 333 761 l 103 729 q 272 880 171 826 q 494 933 372 933 q 830 797 693 936 q 964 460 967 657 m 764 371 l 235 371 q 313 214 236 271 q 494 157 389 157 q 667 215 594 157 q 764 371 740 274 z "},"ә":{"ha":790,"x_min":54,"x_max":738,"o":"m 631 599 q 684 548 631 599 q 738 344 738 496 q 634 88 738 193 q 381 -17 531 -17 q 146 76 238 -17 q 54 304 54 168 q 67 407 54 364 l 549 407 q 358 542 514 542 q 163 474 251 542 l 85 601 q 364 703 204 703 q 631 599 525 703 m 550 275 l 235 275 q 281 174 238 213 q 388 136 324 136 q 491 173 447 136 q 550 275 535 210 z "},"Ӣ":{"ha":996,"x_min":106,"x_max":892,"o":"m 829 933 l 892 933 l 892 0 l 704 0 l 704 568 l 167 -17 l 106 -17 l 106 917 l 293 917 l 293 354 l 829 933 m 301 1049 l 301 1196 l 749 1196 l 749 1049 l 301 1049 z "},"ӣ":{"ha":826,"x_min":97,"x_max":729,"o":"m 668 703 l 729 703 l 729 0 l 542 0 l 542 372 l 158 -17 l 97 -17 l 97 688 l 283 688 l 283 313 l 668 703 m 219 864 l 219 1011 l 639 1011 l 639 864 l 219 864 z "},"Ӧ":{"ha":1081,"x_min":50,"x_max":1031,"o":"m 53 458 q 195 796 50 654 q 539 933 340 938 q 884 796 738 938 q 1028 458 1031 654 q 884 121 1031 263 q 539 -17 738 -21 q 195 121 340 -21 q 53 458 50 263 m 835 458 q 751 674 835 589 q 540 760 667 760 q 329 675 413 760 q 246 458 246 590 q 329 242 246 326 q 540 157 413 157 q 751 242 667 157 q 835 458 835 326 m 249 1131 q 281 1208 249 1176 q 360 1239 314 1239 q 440 1208 407 1239 q 474 1131 474 1176 q 440 1056 474 1088 q 360 1024 407 1024 q 283 1056 317 1024 q 249 1131 249 1089 m 607 1129 q 640 1207 607 1175 q 719 1239 674 1239 q 799 1207 765 1239 q 832 1129 832 1175 q 799 1054 832 1086 q 719 1022 765 1022 q 642 1055 676 1022 q 607 1129 607 1088 z "},"ӧ":{"ha":844,"x_min":51,"x_max":794,"o":"m 54 344 q 161 599 51 492 q 422 703 271 706 q 684 599 574 706 q 792 344 794 492 q 683 90 794 197 q 421 -15 572 -18 q 160 90 269 -18 q 54 344 51 197 m 549 210 q 575 236 549 210 q 600 343 600 263 q 549 478 600 424 q 422 532 499 532 q 294 478 344 532 q 244 343 244 425 q 294 210 244 263 q 422 157 344 157 q 549 210 499 157 m 178 863 q 161 878 178 863 q 144 939 144 894 q 178 1015 144 983 q 258 1047 211 1047 q 336 1015 303 1047 q 369 939 369 983 q 336 863 369 894 q 258 831 303 831 q 178 863 211 831 m 508 863 q 492 878 508 863 q 475 939 475 894 q 508 1015 475 983 q 589 1047 542 1047 q 667 1015 633 1047 q 700 939 700 983 q 667 863 700 894 q 589 831 633 831 q 508 863 542 831 z "},"Ө":{"ha":1081,"x_min":50,"x_max":1031,"o":"m 1028 458 q 884 121 1031 263 q 539 -17 738 -21 q 195 121 340 -21 q 53 458 50 263 q 195 796 50 654 q 539 933 340 938 q 884 796 738 938 q 1028 458 1031 654 m 254 550 l 826 550 q 722 706 800 647 q 540 764 644 764 q 358 706 436 764 q 254 550 281 647 m 832 390 l 249 390 q 348 217 268 282 q 540 153 428 153 q 731 218 651 153 q 832 390 811 283 z "},"ө":{"ha":844,"x_min":51,"x_max":794,"o":"m 792 344 q 683 89 794 196 q 421 -15 572 -18 q 160 89 269 -18 q 54 344 51 196 q 161 599 54 494 q 422 703 268 703 q 684 599 576 703 q 792 344 792 494 m 243 414 l 601 414 q 534 508 582 474 q 422 543 486 543 q 310 508 357 543 q 243 414 263 474 m 604 281 l 240 281 q 306 182 258 218 q 421 146 354 146 q 537 183 488 146 q 604 281 586 219 z "},"Ӯ":{"ha":900,"x_min":24,"x_max":882,"o":"m 682 917 l 882 917 l 569 231 q 444 41 504 94 q 267 -15 385 -12 q 163 0 215 -15 l 163 160 q 236 156 197 156 q 365 214 319 156 l 24 917 l 233 917 l 467 418 l 682 917 m 247 1049 l 247 1196 l 694 1196 l 694 1049 l 247 1049 z "},"ӯ":{"ha":776,"x_min":17,"x_max":760,"o":"m 563 688 l 760 688 l 431 -60 q 318 -217 383 -167 q 157 -267 253 -267 q 36 -250 99 -267 l 36 -93 q 117 -99 93 -99 q 203 -78 169 -99 q 260 -6 236 -57 l 281 42 l 17 688 l 215 688 l 383 236 l 563 688 m 179 864 l 179 1011 l 599 1011 l 599 864 l 179 864 z "},"Ӳ":{"ha":900,"x_min":24,"x_max":882,"o":"m 682 917 l 882 917 l 569 231 q 444 41 504 94 q 267 -15 385 -12 q 163 0 215 -15 l 163 160 q 236 156 197 156 q 365 214 319 156 l 24 917 l 233 917 l 467 418 l 682 917 m 226 1006 l 328 1264 l 522 1264 l 522 1231 l 353 1006 l 226 1006 m 556 1006 l 657 1264 l 851 1264 l 851 1231 l 682 1006 l 556 1006 z "},"ӳ":{"ha":776,"x_min":17,"x_max":765,"o":"m 563 688 l 760 688 l 431 -60 q 318 -217 383 -167 q 157 -267 253 -267 q 36 -250 99 -267 l 36 -93 q 117 -99 93 -99 q 203 -78 169 -99 q 260 -6 236 -57 l 281 42 l 17 688 l 215 688 l 383 236 l 563 688 m 168 793 l 269 1083 l 464 1083 l 464 1050 l 294 793 l 168 793 m 469 793 l 571 1083 l 765 1083 l 765 1050 l 596 793 l 469 793 z "},"Ẁ":{"ha":1438,"x_min":35,"x_max":1403,"o":"m 1194 917 l 1403 917 l 1036 -17 l 975 -17 l 719 558 l 463 -17 l 401 -17 l 35 917 l 243 917 l 447 375 l 688 933 l 750 933 l 990 378 l 1194 917 m 651 1006 l 461 1231 l 461 1264 l 686 1264 l 788 1006 l 651 1006 z "},"ẁ":{"ha":1190,"x_min":17,"x_max":1174,"o":"m 976 688 l 1174 688 l 854 -17 l 793 -17 l 596 383 l 397 -17 l 336 -17 l 17 688 l 214 688 l 376 296 l 564 703 l 626 703 l 817 304 l 976 688 m 528 793 l 338 1050 l 338 1083 l 563 1083 l 664 793 l 528 793 z "},"Ẃ":{"ha":1438,"x_min":35,"x_max":1403,"o":"m 1194 917 l 1403 917 l 1036 -17 l 975 -17 l 719 558 l 463 -17 l 401 -17 l 35 917 l 243 917 l 447 375 l 688 933 l 750 933 l 990 378 l 1194 917 m 646 1006 l 747 1264 l 972 1264 l 972 1231 l 782 1006 l 646 1006 z "},"ẃ":{"ha":1190,"x_min":17,"x_max":1174,"o":"m 976 688 l 1174 688 l 854 -17 l 793 -17 l 596 383 l 397 -17 l 336 -17 l 17 688 l 214 688 l 376 296 l 564 703 l 626 703 l 817 304 l 976 688 m 526 793 l 628 1083 l 853 1083 l 853 1050 l 663 793 l 526 793 z "},"Ẅ":{"ha":1438,"x_min":35,"x_max":1403,"o":"m 1194 917 l 1403 917 l 1036 -17 l 975 -17 l 719 558 l 463 -17 l 401 -17 l 35 917 l 243 917 l 447 375 l 688 933 l 750 933 l 990 378 l 1194 917 m 428 1131 q 460 1208 428 1176 q 539 1239 493 1239 q 619 1208 586 1239 q 653 1131 653 1176 q 619 1056 653 1088 q 539 1024 586 1024 q 462 1056 496 1024 q 428 1131 428 1089 m 786 1129 q 819 1207 786 1175 q 899 1239 853 1239 q 978 1207 944 1239 q 1011 1129 1011 1175 q 978 1054 1011 1086 q 899 1022 944 1022 q 821 1055 856 1022 q 786 1129 786 1088 z "},"ẅ":{"ha":1190,"x_min":17,"x_max":1174,"o":"m 976 688 l 1174 688 l 854 -17 l 793 -17 l 596 383 l 397 -17 l 336 -17 l 17 688 l 214 688 l 376 296 l 564 703 l 626 703 l 817 304 l 976 688 m 350 863 q 333 878 350 863 q 317 939 317 894 q 350 1015 317 983 q 431 1047 383 1047 q 508 1015 475 1047 q 542 939 542 983 q 508 863 542 894 q 431 831 475 831 q 350 863 383 831 m 681 863 q 664 878 681 863 q 647 939 647 894 q 681 1015 647 983 q 761 1047 714 1047 q 839 1015 806 1047 q 872 939 872 983 q 839 863 872 894 q 761 831 806 831 q 681 863 714 831 z "},"ẞ":{"ha":1015,"x_min":106,"x_max":963,"o":"m 963 289 q 870 69 963 154 q 644 -17 778 -17 q 374 99 489 -17 l 474 232 q 633 156 546 156 q 734 193 696 156 q 772 293 772 231 q 723 397 772 361 q 582 432 674 432 l 486 432 l 486 479 l 635 747 l 293 747 l 293 0 l 106 0 l 106 917 l 892 917 l 892 867 l 736 582 q 899 478 836 556 q 963 289 963 400 z "},"Ỳ":{"ha":867,"x_min":24,"x_max":843,"o":"m 843 917 l 528 361 l 528 0 l 340 0 l 340 360 l 24 917 l 232 917 l 435 553 l 636 917 l 843 917 m 364 1006 l 174 1231 l 174 1264 l 399 1264 l 500 1006 l 364 1006 z "},"ỳ":{"ha":776,"x_min":17,"x_max":760,"o":"m 563 688 l 760 688 l 431 -60 q 318 -217 383 -167 q 157 -267 253 -267 q 36 -250 99 -267 l 36 -93 q 117 -99 93 -99 q 203 -78 169 -99 q 260 -6 236 -57 l 281 42 l 17 688 l 215 688 l 383 236 l 563 688 m 321 793 l 131 1050 l 131 1083 l 356 1083 l 457 793 l 321 793 z "}," ":{"ha":194,"x_min":0,"x_max":0,"o":""},"–":{"ha":697,"x_min":49,"x_max":649,"o":"m 49 367 l 49 524 l 649 524 l 649 367 l 49 367 z "},"—":{"ha":1389,"x_min":69,"x_max":1319,"o":"m 69 367 l 69 524 l 1319 524 l 1319 367 l 69 367 z "},"―":{"ha":1389,"x_min":69,"x_max":1319,"o":"m 69 367 l 69 524 l 1319 524 l 1319 367 l 69 367 z "},"‘":{"ha":418,"x_min":82,"x_max":303,"o":"m 82 531 l 160 917 l 303 917 l 296 531 l 82 531 z "},"’":{"ha":418,"x_min":115,"x_max":336,"o":"m 115 531 l 122 917 l 336 917 l 258 531 l 115 531 z "},"‚":{"ha":418,"x_min":115,"x_max":336,"o":"m 115 -215 l 122 171 l 336 171 l 258 -215 l 115 -215 z "},"“":{"ha":747,"x_min":82,"x_max":632,"o":"m 82 531 l 160 917 l 303 917 l 296 531 l 82 531 m 411 531 l 489 917 l 632 917 l 625 531 l 411 531 z "},"”":{"ha":747,"x_min":115,"x_max":665,"o":"m 115 531 l 122 917 l 336 917 l 258 531 l 115 531 m 444 531 l 451 917 l 665 917 l 588 531 l 444 531 z "},"„":{"ha":747,"x_min":115,"x_max":665,"o":"m 115 -215 l 122 171 l 336 171 l 258 -215 l 115 -215 m 444 -215 l 451 171 l 665 171 l 588 -215 l 444 -215 z "},"†":{"ha":671,"x_min":65,"x_max":606,"o":"m 242 344 l 242 682 l 65 682 l 65 840 l 242 840 l 242 1042 l 429 1042 l 429 840 l 606 840 l 606 682 l 429 682 l 429 344 l 242 344 z "},"‡":{"ha":671,"x_min":65,"x_max":606,"o":"m 242 228 l 242 389 l 65 389 l 65 547 l 242 547 l 242 724 l 65 724 l 65 882 l 242 882 l 242 1042 l 429 1042 l 429 882 l 606 882 l 606 724 l 429 724 l 429 547 l 606 547 l 606 389 l 429 389 l 429 228 l 242 228 z "},"•":{"ha":593,"x_min":71,"x_max":522,"o":"m 71 376 q 138 533 71 469 q 297 597 204 597 q 457 533 392 597 q 522 376 522 469 q 457 220 522 283 q 297 157 392 157 q 138 221 204 157 q 71 376 71 285 z "},"…":{"ha":1108,"x_min":65,"x_max":1043,"o":"m 425 113 q 463 204 425 167 q 556 242 500 242 q 647 204 610 242 q 683 113 683 167 q 647 20 683 57 q 556 -17 611 -17 q 463 20 500 -17 q 425 113 425 57 m 65 113 q 103 204 65 167 q 196 242 140 242 q 287 204 250 242 q 324 113 324 167 q 288 20 324 57 q 196 -17 251 -17 q 103 20 140 -17 q 65 113 65 57 m 785 113 q 822 204 785 167 q 915 242 860 242 q 1006 204 969 242 q 1043 113 1043 167 q 1007 20 1043 57 q 915 -17 971 -17 q 822 20 860 -17 q 785 113 785 57 z "},"‰":{"ha":1704,"x_min":78,"x_max":1626,"o":"m 147 543 q 113 576 147 543 q 78 706 78 610 q 147 867 78 801 q 315 933 217 933 q 482 867 413 933 q 551 706 551 801 q 482 543 551 610 q 315 476 413 476 q 147 543 217 476 m 260 0 l 786 917 l 938 917 l 410 0 l 260 0 m 407 706 q 381 776 407 749 q 317 804 356 804 q 249 776 275 804 q 224 706 224 749 q 249 633 224 661 q 317 606 274 606 q 381 633 356 606 q 407 706 407 661 m 1222 53 q 1188 86 1222 53 q 1153 215 1153 119 q 1222 377 1153 311 q 1389 443 1292 443 q 1556 377 1486 443 q 1626 215 1626 311 q 1557 53 1626 119 q 1389 -14 1488 -14 q 1222 53 1292 -14 m 714 51 q 679 85 714 51 q 644 214 644 118 q 714 376 644 310 q 881 442 783 442 q 1048 376 978 442 q 1118 214 1118 310 q 1049 51 1118 118 q 881 -15 979 -15 q 714 51 783 -15 m 1456 144 q 1469 158 1456 144 q 1482 215 1482 172 q 1456 286 1482 258 q 1390 314 1431 314 q 1323 287 1349 314 q 1297 215 1297 260 q 1323 144 1297 171 q 1390 117 1349 117 q 1456 144 1431 117 m 947 143 q 959 157 947 143 q 972 214 972 171 q 947 285 972 257 q 882 313 921 313 q 814 285 839 313 q 789 214 789 258 q 814 142 789 169 q 882 115 839 115 q 947 143 921 115 z "},"′":{"ha":400,"x_min":92,"x_max":356,"o":"m 92 522 l 142 917 l 356 917 l 235 522 l 92 522 z "},"″":{"ha":729,"x_min":92,"x_max":685,"o":"m 92 522 l 142 917 l 356 917 l 235 522 l 92 522 m 421 522 l 471 917 l 685 917 l 564 522 l 421 522 z "},"‹":{"ha":472,"x_min":40,"x_max":431,"o":"m 311 63 l 40 353 l 40 403 l 311 694 l 431 590 l 243 379 l 431 167 l 311 63 z "},"›":{"ha":472,"x_min":43,"x_max":432,"o":"m 163 63 l 43 167 l 229 379 l 43 590 l 163 694 l 432 403 l 432 353 l 163 63 z "},"⁄":{"ha":349,"x_min":-165,"x_max":514,"o":"m -165 0 l 363 917 l 514 917 l -14 0 l -165 0 z "},"⁰":{"ha":585,"x_min":58,"x_max":528,"o":"m 58 799 q 119 1013 58 932 q 292 1094 181 1094 q 467 1014 406 1094 q 528 799 528 933 q 467 579 528 665 q 292 494 407 494 q 120 578 182 494 q 58 799 58 663 m 385 797 q 292 967 385 967 q 200 797 200 967 q 292 622 200 622 q 385 797 385 622 z "},"⁴":{"ha":522,"x_min":17,"x_max":507,"o":"m 507 708 l 507 594 l 438 594 l 438 506 l 311 506 l 311 594 l 17 594 l 17 631 l 189 1083 l 332 1083 l 188 708 l 311 708 l 313 860 l 438 860 l 438 708 l 507 708 z "},"⁵":{"ha":515,"x_min":21,"x_max":468,"o":"m 468 700 q 403 553 468 611 q 240 494 338 494 q 109 531 167 494 q 21 631 51 567 l 118 699 q 235 622 168 622 q 301 642 276 622 q 325 696 325 661 q 219 764 325 764 l 83 764 l 83 1083 l 439 1083 l 439 958 l 217 958 l 217 876 q 272 883 251 883 q 410 833 351 883 q 468 700 468 783 z "},"⁶":{"ha":517,"x_min":40,"x_max":476,"o":"m 476 706 q 411 556 476 617 q 257 494 346 494 q 104 556 168 494 q 40 708 40 617 q 58 792 40 754 q 119 888 76 831 l 263 1083 l 425 1083 l 296 906 q 421 844 365 901 q 476 706 476 786 m 315 646 q 326 658 315 646 q 338 706 338 669 q 315 765 338 742 q 257 789 292 789 q 201 765 224 789 q 178 706 178 740 q 201 646 178 669 q 257 622 224 622 q 315 646 292 622 z "},"⁷":{"ha":475,"x_min":39,"x_max":450,"o":"m 39 1083 l 450 1083 l 450 1046 l 200 506 l 50 506 l 267 958 l 39 958 l 39 1083 z "},"⁸":{"ha":539,"x_min":49,"x_max":490,"o":"m 490 663 q 429 540 490 585 q 269 494 368 494 q 110 540 171 494 q 49 663 49 585 q 151 804 49 760 q 74 938 74 857 q 128 1052 74 1010 q 269 1094 182 1094 q 411 1052 357 1094 q 465 938 465 1010 q 386 804 465 854 q 490 663 490 758 m 201 931 q 217 894 201 910 q 269 861 232 879 q 322 894 306 879 q 338 931 338 910 q 318 969 338 954 q 269 983 299 983 q 221 969 240 983 q 201 931 201 954 m 353 668 q 333 712 353 694 q 269 747 314 729 q 204 712 224 729 q 185 668 185 694 q 269 607 185 607 q 353 668 353 607 z "},"⁹":{"ha":517,"x_min":40,"x_max":476,"o":"m 476 881 q 459 799 476 836 q 397 701 442 763 l 253 506 l 90 506 l 221 683 q 95 745 150 688 q 40 883 40 803 q 106 1033 40 972 q 258 1094 171 1094 q 412 1033 347 1094 q 476 881 476 972 m 339 883 q 315 943 339 919 q 258 967 292 967 q 201 943 225 967 q 178 883 178 919 q 201 824 178 849 q 258 800 225 800 q 315 824 292 800 q 339 883 339 849 z "},"⁺":{"ha":593,"x_min":46,"x_max":546,"o":"m 225 546 l 225 732 l 46 732 l 46 858 l 225 858 l 225 1043 l 367 1043 l 367 858 l 546 858 l 546 732 l 367 732 l 367 546 l 225 546 z "},"⁻":{"ha":593,"x_min":46,"x_max":546,"o":"m 46 733 l 46 857 l 546 857 l 546 733 l 46 733 z "},"⁼":{"ha":593,"x_min":57,"x_max":536,"o":"m 57 846 l 57 972 l 536 972 l 536 846 l 57 846 m 57 618 l 57 746 l 536 746 l 536 618 l 57 618 z "},"⁽":{"ha":382,"x_min":67,"x_max":357,"o":"m 67 794 q 130 1090 67 972 q 300 1254 193 1207 l 357 1167 q 193 794 193 1061 q 357 421 193 529 l 300 335 q 67 794 67 454 z "},"⁾":{"ha":382,"x_min":25,"x_max":315,"o":"m 83 335 l 25 421 q 189 794 189 526 q 25 1167 189 1057 l 83 1254 q 252 1089 189 1206 q 315 794 315 972 q 252 499 315 617 q 83 335 189 382 z "},"₀":{"ha":585,"x_min":58,"x_max":528,"o":"m 58 126 q 119 341 58 260 q 292 422 181 422 q 467 342 406 422 q 528 126 528 261 q 467 -92 528 -6 q 292 -178 406 -178 q 120 -94 182 -178 q 58 126 58 -10 m 385 125 q 292 294 385 294 q 200 125 200 294 q 292 -50 200 -50 q 385 125 385 -50 z "},"₁":{"ha":514,"x_min":58,"x_max":461,"o":"m 58 -167 l 58 -42 l 201 -42 l 201 286 l 71 286 l 71 411 l 342 411 l 342 -42 l 461 -42 l 461 -167 l 58 -167 z "},"₂":{"ha":535,"x_min":46,"x_max":481,"o":"m 297 -42 l 481 -42 l 481 -167 l 46 -168 l 46 -139 l 253 86 q 325 221 325 168 q 307 274 325 254 q 258 294 289 294 q 209 274 228 294 q 190 218 190 254 q 191 211 190 217 q 192 197 192 206 q 193 178 193 188 l 56 178 q 50 226 50 199 q 109 363 50 304 q 260 422 168 422 q 408 368 349 422 q 468 233 468 317 q 438 124 468 176 q 342 6 408 72 l 297 -42 z "},"₃":{"ha":500,"x_min":15,"x_max":453,"o":"m 453 25 q 388 -119 453 -61 q 231 -178 324 -178 q 101 -142 157 -178 q 15 -42 44 -106 l 111 26 q 226 -50 163 -50 q 287 -29 264 -50 q 310 25 310 -8 q 204 92 310 92 l 138 92 l 138 126 l 246 286 l 61 286 l 61 411 l 443 411 l 443 374 l 326 200 q 417 135 382 182 q 453 25 453 89 z "},"₄":{"ha":522,"x_min":17,"x_max":507,"o":"m 507 36 l 507 -78 l 438 -78 l 438 -167 l 311 -167 l 311 -78 l 17 -78 l 17 -42 l 189 411 l 332 411 l 188 36 l 311 36 l 313 188 l 438 188 l 438 36 l 507 36 z "},"₅":{"ha":515,"x_min":21,"x_max":468,"o":"m 468 28 q 403 -119 468 -61 q 240 -178 338 -178 q 109 -142 167 -178 q 21 -42 51 -106 l 118 26 q 235 -50 168 -50 q 301 -31 276 -50 q 325 24 325 -11 q 219 92 325 92 l 83 92 l 83 411 l 439 411 l 439 286 l 217 286 l 217 204 q 272 211 251 211 q 410 161 351 211 q 468 28 468 111 z "},"₆":{"ha":517,"x_min":40,"x_max":476,"o":"m 476 33 q 411 -117 476 -56 q 257 -178 346 -178 q 104 -117 168 -178 q 40 36 40 -56 q 58 120 40 82 q 119 215 76 158 l 263 411 l 425 411 l 296 233 q 421 172 365 229 q 476 33 476 114 m 315 -26 q 326 -15 315 -26 q 338 33 338 -3 q 315 93 338 69 q 257 117 292 117 q 201 92 224 117 q 178 33 178 68 q 201 -26 178 -3 q 257 -50 224 -50 q 315 -26 292 -50 z "},"₇":{"ha":475,"x_min":39,"x_max":450,"o":"m 39 411 l 450 411 l 450 374 l 200 -167 l 50 -167 l 267 286 l 39 286 l 39 411 z "},"₈":{"ha":539,"x_min":49,"x_max":490,"o":"m 490 -10 q 429 -133 490 -87 q 269 -178 368 -178 q 110 -133 171 -178 q 49 -10 49 -87 q 151 132 49 88 q 74 265 74 185 q 128 380 74 338 q 269 422 182 422 q 411 380 357 422 q 465 265 465 338 q 386 132 465 182 q 490 -10 490 86 m 201 258 q 217 222 201 238 q 269 189 232 207 q 322 222 306 207 q 338 258 338 238 q 318 297 338 282 q 269 311 299 311 q 221 297 240 311 q 201 258 201 282 m 353 -4 q 333 40 353 22 q 269 75 314 57 q 204 40 224 57 q 185 -4 185 22 q 269 -65 185 -65 q 353 -4 353 -65 z "}}}
